<?xml version="1.0" encoding="UTF-8"?>
<svg id="Camada_1" xmlns="http://www.w3.org/2000/svg" viewBox="0 0 85.04 85.04">
  <defs>
    <style>
      .cls-1 {
        fill: #dee491;
      }

      .cls-2 {
        fill: #fff;
      }

      .cls-3 {
        fill: #e75195;
      }
    </style>
  </defs>
  <path class="cls-2" d="M66.73,46.04c-.05-.03-.1-.07-.08-.18s.07-.13.13-.15c2.05-.66,3.29-2.54,3.09-4.68-.2-2.12-1.76-3.73-3.92-4.01h0c-.06,0-.12-.02-.15-.13-.03-.1,0-.15.05-.19,1.57-1.48,1.87-3.72.75-5.56-1.12-1.84-3.23-2.61-5.27-1.91-.06.02-.12.03-.19-.04-.07-.08-.06-.14-.04-.19.77-2.01.07-4.16-1.74-5.34-1.8-1.18-4.05-.95-5.58.57-.04.04-.1.07-.19.04-.1-.04-.12-.1-.12-.16-.18-2.15-1.74-3.78-3.88-4.05s-4.06.9-4.78,2.93c-.02.06-.05.11-.15.12-.11.01-.15-.04-.18-.09-1.1-1.85-3.21-2.65-5.25-1.97-2.05.68-3.27,2.57-3.04,4.72,0,.06,0,.12-.09.18-.1.06-.15.03-.2,0-1.79-1.2-4.04-.99-5.59.51-1.55,1.5-1.83,3.74-.69,5.57.03.05.06.11,0,.2-.06.09-.12.1-.23.07-2.11-.27-4.03.89-4.76,2.89-.75,2.02-.03,4.16,1.79,5.32.05.03.1.07.08.18s-.07.13-.13.15c-2.05.66-3.29,2.54-3.09,4.68.2,2.12,1.76,3.73,3.92,4.01h0c.05,0,.12.02.15.13.03.1,0,.15-.05.19-1.57,1.48-1.87,3.72-.75,5.56,1.11,1.84,3.24,2.61,5.27,1.91.06-.02.12-.03.19.05.07.08.06.14.04.19-.77,2.01-.07,4.16,1.74,5.33,1.81,1.18,4.05.95,5.58-.57.04-.04.09-.08.19-.04.1.04.11.1.12.16.18,2.15,1.74,3.78,3.88,4.05s4.06-.9,4.78-2.93c.02-.06.05-.11.16-.12.1-.02.14.04.17.09,1.1,1.86,3.21,2.65,5.25,1.97,2.05-.68,3.27-2.57,3.04-4.72,0-.06,0-.12.09-.18.09-.05.15-.03.2,0,1.79,1.2,4.04.99,5.59-.51,1.55-1.5,1.83-3.74.69-5.57-.03-.05-.06-.11,0-.2.05-.08.1-.09.15-.08h.03s.03,0,.03,0c2.12.28,4.04-.88,4.78-2.89.75-2.02.02-4.16-1.79-5.32M59.93,51.97c-.96,1.47-.98,3.31-.05,4.8.06.1.06.14-.03.23-.09.09-.13.08-.23.02-1.46-.97-3.3-1.01-4.8-.1-1.5.91-2.32,2.55-2.13,4.3.01.11,0,.15-.13.19-.12.04-.16.02-.22-.08-.89-1.51-2.53-2.35-4.27-2.18-1.75.17-3.2,1.3-3.78,2.95-.04.11-.07.14-.2.12s-.15-.05-.16-.17c-.15-1.75-1.26-3.21-2.91-3.81-.32-.12-.66-.2-.99-.24-1.36-.18-2.71.28-3.7,1.26-.08.08-.12.09-.23.02-.11-.07-.11-.11-.07-.22.62-1.64.25-3.44-.96-4.7-1.22-1.26-3.01-1.69-4.66-1.12-.11.04-.15.03-.22-.08-.07-.11-.05-.15.03-.23,1.27-1.2,1.72-2.99,1.17-4.65-.54-1.64-1.95-2.8-3.72-3.03-.11-.01-.14-.04-.16-.17-.01-.13.02-.16.13-.19,1.67-.53,2.85-1.94,3.07-3.68.23-1.74-.55-3.4-2.03-4.35-.1-.06-.12-.1-.07-.22.04-.12.08-.13.25-.11,1.72.22,3.37-.54,4.32-1.99.96-1.47.98-3.31.05-4.79-.06-.1-.06-.14.03-.23.09-.09.13-.08.23-.02,1.46.97,3.29,1.01,4.8.1,1.5-.91,2.32-2.55,2.13-4.3-.01-.11,0-.15.12-.19.13-.04.16-.02.22.08.89,1.51,2.53,2.34,4.28,2.18,1.74-.17,3.19-1.3,3.78-2.95.04-.11.07-.14.2-.12s.15.05.16.17c.15,1.75,1.26,3.21,2.91,3.81,1.64.61,3.44.22,4.69-1.01.08-.08.12-.09.23-.02.11.07.11.11.07.22-.63,1.64-.26,3.44.96,4.7,1.22,1.26,3,1.69,4.66,1.12.11-.04.15-.03.22.08.07.11.05.15-.03.23-1.27,1.2-1.72,2.99-1.17,4.65.54,1.64,1.95,2.8,3.72,3.03.11.01.14.04.16.16.01.13-.02.16-.13.19-1.67.53-2.85,1.95-3.07,3.68s.55,3.4,2.03,4.34c.1.06.12.1.07.22-.04.12-.08.13-.25.11-1.72-.22-3.37.54-4.32,1.99"/>
  <path class="cls-1" d="M51.31,24.27h0c.17,1.97,2.55,2.84,3.95,1.46,1.78-1.76,4.7.15,3.81,2.48-.7,1.84,1.06,3.67,2.93,3.03,2.37-.81,4.17,2.17,2.36,3.89-1.43,1.36-.63,3.77,1.33,4,2.48.29,2.82,3.77.43,4.53-1.88.6-2.21,3.12-.54,4.18,2.11,1.34.9,4.61-1.57,4.27-1.95-.27-3.34,1.85-2.3,3.53,1.32,2.13-1.19,4.55-3.27,3.16-1.64-1.09-3.81.22-3.6,2.18.26,2.49-3.04,3.58-4.32,1.43-1-1.7-3.53-1.46-4.2.4-.84,2.36-4.3,1.91-4.51-.58-.17-1.97-2.55-2.84-3.95-1.46-1.78,1.76-4.7-.15-3.81-2.48.7-1.84-1.06-3.67-2.93-3.03-2.37.81-4.17-2.17-2.36-3.89,1.43-1.36.63-3.77-1.33-4-2.48-.3-2.82-3.77-.43-4.53,1.88-.6,2.21-3.12.54-4.18-2.11-1.34-.9-4.61,1.57-4.27,1.95.27,3.34-1.85,2.3-3.53-1.32-2.13,1.19-4.55,3.27-3.16,1.64,1.09,3.81-.22,3.6-2.18-.26-2.49,3.04-3.58,4.32-1.43,1,1.7,3.53,1.46,4.2-.4.84-2.36,4.3-1.91,4.51.58"/>
  <path class="cls-3" d="M40.28,34.88c.39-1.1,1.6-1.68,2.7-1.29,1.11.39,1.69,1.6,1.3,2.7-.39,1.11-1.6,1.68-2.71,1.28-1.1-.39-1.68-1.58-1.29-2.7"/>
  <path class="cls-3" d="M51.2,38.73c.39-1.1,1.6-1.68,2.7-1.29,1.11.39,1.69,1.6,1.3,2.7-.39,1.11-1.6,1.68-2.71,1.28-1.1-.39-1.68-1.58-1.29-2.7"/>
  <path class="cls-3" d="M42.7,51.59c-.1-.03-.19-.07-.29-.11-7.03-2.66-8.24-8.91-7.03-13.87.25-1.02,1.27-1.64,2.29-1.39,1.02.24,1.64,1.27,1.39,2.29-.51,2.11-1.09,7.25,4.69,9.43.07.03.14.05.21.08,5.17,1.83,8.8-1.61,9.88-4.24.4-.97,1.51-1.44,2.47-1.03.97.4,1.43,1.5,1.03,2.47-2.03,4.92-7.82,8.78-14.64,6.37"/>
</svg>