<?xml version="1.0" encoding="UTF-8"?>
<svg id="Camada_1" xmlns="http://www.w3.org/2000/svg" viewBox="0 0 85.04 85.04">
  <defs>
    <style>
      .cls-1 {
        fill: #f29ec4;
      }

      .cls-2 {
        fill: #fff;
      }

      .cls-3 {
        fill: #e8328a;
      }

      .cls-4 {
        fill: #e55487;
      }

      .cls-5 {
        fill: #ed7fb1;
      }
    </style>
  </defs>
  <g>
    <path class="cls-2" d="M60.15,34.7l-10.96,32.23c-.32.94-.85,1.76-1.51,2.41-1.6,1.57-4.01,2.2-6.28,1.43l-17.32-5.89c-2.32-.79-3.85-2.82-4.12-5.1-.1-.88-.02-1.8.29-2.69l10.96-32.23c.04-.12.09-.24.13-.36,1.22-2.98,4.57-4.53,7.66-3.48l-.07-.02.87-2.56-.59-.2c-.18-.06-.27-.26-.21-.43.03-.09.09-.16.17-.2.05-.02.1-.04.15-.04-.77-.38-.67-.46-.67-.46,0,0,.7-2.16,1.19-3.51.45-1.24,1.31-.9,1.31-.9l.85.29s4.09,1.44,8.4,2.93c4.32,1.44,8.44,2.8,8.44,2.8l.85.29s.89.26.49,1.51c-.44,1.37-1.2,3.51-1.2,3.51,0,0,.03.13-.81-.05.12.09.17.24.12.38-.03.09-.09.16-.17.2-.08.04-.17.05-.26.02l-.59-.2-.87,2.56-.07-.02c3.13,1.06,4.84,4.4,3.92,7.54-.02.08-.05.17-.08.25Z"/>
    <path class="cls-2" d="M40.58,73.16l-17.32-5.89c-1.58-.54-2.96-1.51-4-2.81-1-1.27-1.64-2.78-1.82-4.39-.15-1.29-.02-2.57.4-3.8l10.96-32.23c.06-.17.12-.35.19-.51,1.27-3.1,4.18-5.09,7.34-5.34-.11-.24-.19-.51-.22-.82-.03-.35,0-.71.12-1.04h0c.03-.09.72-2.22,1.22-3.59.5-1.38,1.38-2.02,2.02-2.31,1.09-.49,2.07-.26,2.48-.12h0s.87.3.87.3c.04.01,4.13,1.46,8.37,2.92,4.26,1.42,8.38,2.77,8.42,2.79h.03s.85.3.85.3c.41.14,1.33.56,1.89,1.61.33.62.64,1.66.2,3.06-.44,1.4-1.19,3.5-1.22,3.59h0c-.12.33-.3.64-.54.9-.21.23-.44.39-.67.52.76.69,1.41,1.52,1.89,2.45,1.03,1.99,1.25,4.27.62,6.41-.03.11-.07.23-.11.36l-10.96,32.23c-.44,1.28-1.18,2.46-2.14,3.4-2.35,2.3-5.75,3.07-8.86,2.02ZM38.99,21.02l-.81,2.4c-1.8-.61-3.78.28-4.5,2.04h0c-.03.07-.05.14-.08.21l-10.96,32.23c-.18.51-.23,1.05-.17,1.58.16,1.38,1.11,2.55,2.42,3l17.32,5.89c1.3.44,2.71.12,3.69-.84.41-.4.7-.87.89-1.42l10.96-32.23c.02-.05.03-.09.04-.13v-.02c.55-1.86-.46-3.8-2.3-4.43l.81-2.4-2.33-.79.57-1.68-5.6-4.2-7.07-.11-.57,1.68-2.32-.79ZM41.7,15.92l7.44,3.64,8.13,1.65c.04-.1.07-.21.11-.32-1.34-.44-4.53-1.49-7.79-2.58h-.01s-.01,0-.01,0c-3.25-1.12-6.42-2.24-7.75-2.7-.04.11-.07.21-.11.32ZM58.91,21.54s0,0,0,0t0,0Z"/>
  </g>
  <path class="cls-4" d="M60.09,34.6l-10.96,32.23c-.32.94-.85,1.76-1.51,2.41-1.6,1.57-4.01,2.2-6.28,1.43l-17.32-5.89c-2.32-.79-3.85-2.82-4.12-5.1-.1-.88-.02-1.8.29-2.69l10.96-32.23c.04-.12.09-.24.13-.36,1.22-2.98,4.57-4.53,7.66-3.48l17.32,5.89c3.13,1.06,4.84,4.4,3.92,7.54-.02.08-.05.17-.08.25Z"/>
  <rect class="cls-4" x="38.8" y="21.22" width="18.45" height="2.71" transform="translate(9.83 -14.26) rotate(18.79)"/>
  <path class="cls-1" d="M58.91,23.92s.18.65-10.3-3.06c-10.57-3.44-10.03-3.85-10.03-3.85,0,0,.7-2.16,1.19-3.51.45-1.24,1.31-.9,1.31-.9l.85.29s4.09,1.44,8.4,2.93c4.32,1.44,8.44,2.8,8.44,2.8l.85.29s.89.26.49,1.51c-.44,1.37-1.2,3.51-1.2,3.51Z"/>
  <rect class="cls-4" x="38.38" y="20.63" width="20.38" height=".68" rx=".34" ry=".34" transform="translate(9.34 -14.52) rotate(18.79)"/>
  <path class="cls-5" d="M37.5,25.75c-1.98-5.35-7.55-1.66-5.05,2.97,2.14,3.96,2.5,4.47,2.51,4.48.02,0,.61-.19,4.72-2.02,4.81-2.14,2.64-8.47-2.19-5.44Z"/>
  <path class="cls-5" d="M46.32,27.33c-3.31-4.65-7.72.38-4.1,4.19,3.1,3.26,3.58,3.66,3.6,3.67.02-.01.54-.34,4.03-3.19,4.08-3.33.33-8.87-3.53-4.67Z"/>
  <path class="cls-5" d="M54.59,32.21c-.3-5.7-6.72-3.82-5.7,1.34.87,4.42,1.06,5.01,1.07,5.03.02,0,.64,0,5.11-.53,5.23-.62,5.03-7.31-.48-5.84Z"/>
  <path class="cls-1" d="M60.15,34.62l-10.96,32.23c-.32.94-.85,1.76-1.51,2.41-.48-.09-1.07-.21-1.82-.4-1.03-.25-2.35-.61-4.03-1.12-2.11-.64-4.78-1.51-8.18-2.7,0,0-3.71-1.21-7.68-2.75-1.3-.51-2.63-1.05-3.87-1.59-.76-.34-1.49-.68-2.15-1.01-.1-.88-.02-1.8.29-2.69l10.96-32.23c.04-.12.09-.24.13-.36,4.06,1.99,17.55,8.3,28.9,9.95-.02.08-.05.17-.08.25Z"/>
  <g>
    <g>
      <path class="cls-2" d="M38.54,38.28l-.83-.28s-.09,0-.1.05l-.61,1.8s-.06.06-.1.05l-1.99-.68s-.06-.06-.05-.1l.61-1.8s0-.09-.05-.1l-.84-.28s-.09,0-.1.05l-1.59,4.68s0,.09.05.1l.84.28s.09,0,.1-.05l.64-1.87s.06-.06.1-.05l1.99.68s.06.06.05.1l-.64,1.87s0,.09.05.1l.83.28s.09,0,.1-.05l1.59-4.68s0-.09-.05-.1Z"/>
      <path class="cls-2" d="M41.77,39.48c-.01-.09-.06-.17-.13-.22-.12-.07-.26-.05-.35.04l-3.78,3.9s-.02.11.03.13l.89.3s.06,0,.08-.02l.66-.72,2.09.71.08.97s.02.06.05.07l.89.3c.06.02.11-.03.11-.08l-.62-5.38ZM41.25,42.1l-.78.38s-.03,0-.04,0-.03-.01-.03-.03l-.38-.78c-.06-.1-.08-.23-.04-.36.08-.23.32-.35.55-.27.15.05.25.17.28.32.11-.09.27-.13.42-.08.23.08.35.32.27.55-.04.12-.13.22-.25.26Z"/>
      <rect class="cls-2" x="41.58" y="42.36" width="5.11" height="1.04" rx=".08" ry=".08" transform="translate(-10.68 70.85) rotate(-71.21)"/>
      <path class="cls-2" d="M48.51,46.94l-.42-2.09s.03-.1.08-.1c.36,0,.65-.08.88-.24.25-.17.44-.45.57-.82.18-.52.13-.97-.13-1.34-.27-.38-.78-.69-1.54-.95-.26-.09-.55-.18-.87-.26-.29-.08-.58-.14-.86-.19-.04,0-.08.02-.09.05l-1.58,4.64s0,.09.05.1l.84.28s.09,0,.1-.05l.58-1.7s.07-.07.11-.05c.14.07.3.14.47.2.09.04.18.07.28.1.03,0,.05.03.06.06l.39,2.06s.03.05.05.06l.94.32c.06.02.12-.03.1-.09ZM48.11,43.89c-.24.05-.57,0-.98-.14-.25-.09-.48-.18-.67-.28-.04-.02-.05-.06-.04-.1l.43-1.27s.05-.06.09-.05c.22.04.45.1.7.19.41.14.69.3.85.49.16.19.19.42.1.68s-.26.43-.5.47Z"/>
    </g>
    <g>
      <g>
        <path class="cls-2" d="M50.15,38.09c-.03-.05-.07-.09-.14-.11s-.12-.02-.18,0c-.06.03-.09.07-.11.13l-.3.89c-.03.09-.07.16-.12.21-.05.05-.11.08-.18.09-.07.01-.15,0-.23-.03-.12-.04-.21-.11-.26-.19-.05-.09-.05-.2,0-.36l.3-.89c.02-.06.02-.12-.01-.17-.03-.05-.07-.09-.14-.11s-.12-.02-.18,0c-.06.03-.09.07-.11.13l-.35,1.02c-.04.13-.06.26-.04.38.02.12.07.22.14.31.08.09.18.16.31.2.11.04.21.06.31.06.09,0,.18,0,.26-.04.04-.01.07-.03.1-.05v.04c-.05.12-.1.21-.16.26-.06.06-.13.09-.22.09-.08,0-.18-.01-.29-.05-.08-.03-.15-.07-.21-.11-.06-.05-.1-.08-.14-.11-.05-.04-.1-.05-.16-.04-.06,0-.11.04-.15.1-.03.05-.05.1-.03.15.01.05.05.11.11.17.05.04.11.08.2.13.08.04.16.08.24.1.18.06.34.09.5.08.16,0,.3-.06.43-.16.13-.1.23-.25.3-.47l.51-1.48c.02-.06.02-.12-.01-.17Z"/>
        <path class="cls-2" d="M36.78,34.06c.25-.74,1.03-1.12,1.76-.87.4.14.68.42.82.75.03.05.02.12,0,.17-.04.12-.17.18-.29.14-.05-.02-.11-.07-.14-.14-.1-.22-.28-.41-.54-.5-.48-.16-1,.1-1.17.61s.08,1.03.56,1.19c.38.13.79,0,1.03-.35l-.63-.21c-.11-.04-.17-.16-.13-.27s.16-.17.27-.13l.91.31c.11.04.17.15.13.28-.22.6-.97,1.04-1.72.79s-1.11-1.03-.86-1.76Z"/>
        <path class="cls-2" d="M40.51,36.78s-.02,0-.03-.01c-.83-.3-.98-1.04-.84-1.62.03-.12.15-.19.27-.17.12.03.19.15.17.27-.06.25-.12.85.56,1.1,0,0,.02,0,.02,0,.61.21,1.03-.2,1.16-.51.05-.11.18-.17.29-.12.11.05.17.17.12.29-.23.58-.91,1.04-1.71.77Z"/>
        <path class="cls-2" d="M42.63,35.71c.04-.12.17-.19.29-.14.1.03.16.13.15.22v.03c.12-.09.28-.11.47-.04.2.07.36.21.42.47.19-.17.44-.18.67-.1.42.14.63.55.46,1.05l-.28.83c-.04.12-.17.19-.29.15s-.18-.17-.14-.3l.28-.83c.09-.26-.01-.44-.21-.5s-.38.01-.47.28l-.28.83c-.04.12-.18.19-.29.15s-.18-.17-.14-.3l.28-.83c.09-.26-.02-.44-.21-.5s-.38.01-.47.27l-.28.83c-.04.12-.17.19-.29.15s-.18-.17-.14-.3l.48-1.4Z"/>
        <path class="cls-2" d="M45.56,36.7c.04-.12.17-.19.29-.14.1.03.16.13.15.22v.03c.12-.09.28-.11.47-.04.2.07.36.21.42.47.19-.17.44-.18.67-.1.42.14.63.55.46,1.05l-.28.83c-.04.12-.17.19-.29.15s-.18-.17-.14-.3l.28-.83c.09-.26-.01-.44-.21-.5s-.38.01-.47.28l-.28.83c-.04.12-.18.19-.29.15s-.18-.17-.14-.3l.28-.83c.09-.26-.02-.44-.21-.5s-.38.01-.47.27l-.28.83c-.04.12-.17.19-.29.15s-.18-.17-.14-.3l.48-1.4Z"/>
      </g>
      <g>
        <path class="cls-2" d="M40.2,34.82c.04-.13.19-.2.32-.16s.2.19.16.32-.19.2-.32.15-.2-.18-.16-.32Z"/>
        <path class="cls-2" d="M41.49,35.26c.04-.13.19-.2.32-.16s.2.19.16.32-.19.2-.32.15-.2-.18-.16-.32Z"/>
      </g>
    </g>
    <path class="cls-2" d="M50.35,37.93c.08-.24.34-.37.58-.28s.37.34.29.58-.34.36-.59.28-.37-.34-.29-.58ZM51.1,38.19c.06-.18-.03-.37-.21-.43s-.36.04-.42.21.03.36.21.42.37-.03.43-.21ZM50.55,38.2l.13-.38s.05-.05.08-.04l.15.05c.13.04.16.14.13.23-.02.07-.09.1-.14.1,0,0-.02,0-.03,0l.04.13s0,.03,0,.04c0,.03-.04.05-.07.03-.02,0-.03-.02-.04-.04l-.06-.19s0-.03,0-.05c.01-.03.04-.05.08-.04h.02s.07.01.08-.02c.01-.04-.01-.07-.05-.08l-.1-.03-.11.32s-.05.05-.08.04-.05-.05-.04-.08Z"/>
    <g>
      <path class="cls-2" d="M33.57,43.27l.38.13.11,1.76,1.16-1.33.45.15-1.52,1.75-.43-.15-.15-2.32Z"/>
      <path class="cls-2" d="M35.27,46.12l.69-2.04.38.13-.69,2.04-.38-.13Z"/>
      <path class="cls-2" d="M37.39,45.01l-.85-.29.13-.4,2.02.69-.13.4-.82-.28-.56,1.64-.35-.12.56-1.64Z"/>
      <path class="cls-2" d="M39.37,45.24l.43.15.14,2.32-.45-.15-.03-.57-.86-.29-.37.43-.38-.13,1.53-1.75ZM39.42,46.53l-.04-.74-.48.56.53.18Z"/>
      <path class="cls-2" d="M40.94,45.78l.38.13.4,1.92,1.48-1.28.42.14-.69,2.04-.35-.12.46-1.34-1.24,1.07-.41-.14-.3-1.47-.42,1.22-.42-.14.69-2.04Z"/>
      <path class="cls-2" d="M43.41,48.89l.69-2.04.38.13-.69,2.04-.38-.13Z"/>
      <path class="cls-2" d="M44.98,47.15l.4.13.7,1.88.5-1.47.42.14-.69,2.04-.44-.15-.71-1.92-.51,1.5-.35-.12.69-2.04Z"/>
    </g>
  </g>
  <rect class="cls-3" x="36.48" y="43.61" width="3.31" height="16.51" rx="1.65" ry="1.65" transform="translate(-23.25 71.26) rotate(-71.21)"/>
  <g>
    <path class="cls-2" d="M32.95,49.8c.06-.05.13-.09.2-.1s.15,0,.23.02c.09.03.17.08.22.16.05.07.08.15.08.25l-.19-.07s-.02-.09-.05-.12c-.03-.03-.06-.06-.11-.07-.05-.02-.1-.02-.14-.01-.05,0-.09.03-.12.07-.04.03-.06.08-.08.14s-.02.11-.02.16c0,.05.03.09.06.13.03.04.07.06.12.08.05.02.09.02.13.01.04,0,.08-.03.11-.06l.19.07c-.06.08-.13.13-.21.15s-.18.02-.27-.01c-.08-.03-.15-.07-.2-.13s-.09-.13-.1-.2c-.02-.08,0-.16.02-.24s.07-.15.13-.2Z"/>
    <path class="cls-2" d="M34.2,50.76l-.33-.11-.11.14-.18-.06.58-.73.19.07.02.94-.18-.06v-.18ZM34.2,50.61v-.39s-.24.31-.24.31l.24.08Z"/>
    <path class="cls-2" d="M35.2,50.88s.02.1,0,.15c-.02.04-.04.08-.07.11s-.07.04-.12.05c-.05,0-.1,0-.16-.02l-.36-.12.28-.83.34.12c.06.02.1.05.14.08.03.03.06.07.07.11,0,.04,0,.08,0,.12-.02.05-.04.08-.08.11s-.08.04-.13.03c.04.02.07.06.09.11ZM34.82,50.6l.15.05s.07.02.1,0,.05-.03.06-.07,0-.06,0-.09c-.02-.03-.04-.05-.08-.06l-.15-.05-.07.21ZM34.97,51.01s.05-.03.06-.07,0-.07,0-.1c-.02-.03-.05-.05-.09-.06l-.16-.06-.08.22.17.06s.08.02.1,0Z"/>
    <path class="cls-2" d="M35.66,50.65l-.07.21.28.1-.05.13-.28-.1-.08.22.32.11-.05.14-.48-.16.28-.84.48.16-.05.14-.32-.11Z"/>
    <path class="cls-2" d="M36.11,51.44l.27.09-.05.13-.44-.15.28-.83.17.06-.24.7Z"/>
    <path class="cls-2" d="M36.63,51.71c-.05-.06-.09-.13-.1-.21s-.01-.16.02-.24.07-.15.13-.2.13-.09.21-.1c.08-.01.16,0,.23.02s.14.07.2.13c.05.06.09.13.1.2s0,.16-.02.24-.07.15-.13.2-.13.09-.21.1c-.08.01-.16,0-.23-.02s-.14-.07-.2-.13ZM37.02,51.7s.09-.03.12-.07.06-.08.08-.14.02-.11.02-.16-.03-.09-.06-.13c-.03-.04-.07-.06-.12-.08s-.1-.02-.14-.01c-.05,0-.09.03-.12.07-.04.03-.06.08-.08.14s-.02.11-.02.16c0,.05.03.09.06.13.03.04.07.06.12.08s.1.02.14.01Z"/>
    <path class="cls-2" d="M37.52,52.04s-.07-.08-.08-.12c-.01-.05-.01-.1,0-.15l.18.06s0,.07,0,.09c.02.03.04.05.08.06s.07.01.1,0c.03-.01.05-.03.06-.06,0-.02,0-.05,0-.07,0-.02-.02-.04-.04-.06-.02-.02-.05-.04-.08-.06-.05-.03-.09-.07-.12-.09-.03-.03-.05-.06-.06-.1s-.01-.09,0-.14c.02-.05.04-.09.08-.12s.08-.04.13-.05c.05,0,.11,0,.16.02.09.03.15.07.19.13.04.06.05.13.03.21l-.18-.06s0-.06-.01-.08c-.02-.03-.04-.05-.08-.06-.03-.01-.06-.01-.09,0-.03.01-.04.03-.05.06,0,.02,0,.04,0,.06,0,.02.02.04.04.05s.05.04.08.06c.05.03.09.07.12.09.03.03.05.06.06.1.01.04.01.09,0,.14-.02.04-.04.08-.08.11-.04.03-.08.05-.13.06-.05,0-.11,0-.17-.02s-.11-.05-.15-.08Z"/>
    <path class="cls-2" d="M38.8,51.72l-.07.21.28.1-.05.13-.28-.1-.08.22.32.11-.05.14-.48-.16.28-.84.48.16-.05.14-.32-.11Z"/>
    <path class="cls-2" d="M39.76,51.9l-.18.52c-.02.06-.02.1,0,.14s.06.07.11.09.1.02.14,0c.04-.02.07-.06.09-.11l.18-.52.17.06-.18.52c-.02.07-.06.13-.11.16-.05.04-.1.06-.16.07-.06,0-.12,0-.18-.02s-.11-.05-.16-.09c-.04-.04-.07-.09-.08-.15s0-.12.02-.2l.18-.52.17.06Z"/>
    <path class="cls-2" d="M40.86,53.2l-.17-.06-.18-.7-.19.57-.17-.06.28-.84.17.06.18.7.2-.57.17.06-.28.84Z"/>
    <path class="cls-2" d="M42,52.66l-.28.83-.17-.06.12-.36-.36-.12-.12.36-.17-.06.28-.83.17.06-.12.34.36.12.12-.34.17.06Z"/>
    <path class="cls-2" d="M42.45,53.56l-.33-.11-.11.14-.18-.06.58-.73.19.07.02.94-.18-.06v-.18ZM42.45,53.41v-.39s-.24.31-.24.31l.24.08Z"/>
    <path class="cls-2" d="M42.88,53.86s-.07-.08-.08-.12c-.01-.05-.01-.1,0-.15l.18.06s0,.07,0,.09c.02.03.04.05.08.06s.07.01.1,0c.03-.01.05-.03.06-.06,0-.02,0-.05,0-.07,0-.02-.02-.04-.04-.06-.02-.02-.05-.04-.08-.06-.05-.03-.09-.07-.12-.09-.03-.03-.05-.06-.06-.1s-.01-.09,0-.14c.02-.05.04-.09.08-.12s.08-.04.13-.05c.05,0,.11,0,.16.02.09.03.15.07.19.13.04.06.05.13.03.21l-.18-.06s0-.06-.01-.08c-.02-.03-.04-.05-.08-.06-.03-.01-.06-.01-.09,0-.03.01-.04.03-.05.06,0,.02,0,.04,0,.06,0,.02.02.04.04.05s.05.04.08.06c.05.03.09.07.12.09.03.03.05.06.06.1.01.04.01.09,0,.14-.02.04-.04.08-.08.11-.04.03-.08.05-.13.06-.05,0-.11,0-.17-.02s-.11-.05-.15-.08Z"/>
  </g>
  <g>
    <path class="cls-2" d="M29.73,53.18c.21.07.28.24.2.46v.04s-.22-.07-.22-.07l.02-.06c.03-.1,0-.15-.06-.18s-.12,0-.16.1-.02.19.08.37c.13.22.15.36.09.52-.08.22-.23.31-.45.24s-.28-.24-.21-.46l.03-.09.21.07-.03.1c-.03.1,0,.15.07.18s.13,0,.16-.1.02-.19-.08-.37c-.13-.22-.15-.36-.09-.52.08-.22.23-.32.44-.24Z"/>
    <path class="cls-2" d="M30.39,53.42l-.37,1.08c-.03.1,0,.15.07.18s.13,0,.16-.1l.37-1.08.21.07-.36,1.07c-.08.22-.23.31-.45.24s-.28-.24-.21-.46l.36-1.07.22.07Z"/>
    <path class="cls-2" d="M31.51,54.19l-.06.18c-.08.22-.23.31-.45.23l-.1-.04-.18.53-.22-.07.48-1.4.32.11c.22.07.29.23.21.46ZM31.13,53.89l-.16.47.1.04c.07.02.12,0,.15-.1l.07-.21c.03-.1,0-.15-.06-.17l-.1-.04Z"/>
    <path class="cls-2" d="M31.73,53.87l.22.07-.41,1.2.36.12-.07.2-.58-.2.48-1.4Z"/>
    <path class="cls-2" d="M32.43,54.77l.3.1-.07.2-.3-.1-.14.41.38.13-.07.2-.6-.2.48-1.4.6.2-.07.2-.38-.13-.13.39Z"/>
    <path class="cls-2" d="M33.27,55.51h0s.49-.94.49-.94l.31.1-.48,1.4-.21-.07.34-1.01h0s-.49.95-.49.95l-.21-.07.18-1.05h0s-.34.99-.34.99l-.19-.07.48-1.4.31.1-.18,1.05Z"/>
    <path class="cls-2" d="M34.25,55.39l.3.1-.07.2-.3-.1-.14.41.38.13-.07.2-.6-.2.48-1.4.6.2-.07.2-.38-.13-.13.39Z"/>
    <path class="cls-2" d="M35.03,55.43h0s-.35,1.01-.35,1.01l-.2-.07.48-1.4.28.09-.06.91h0s.29-.84.29-.84l.2.07-.48,1.4-.23-.08.07-1.11Z"/>
    <path class="cls-2" d="M35.76,55.24l.68.23-.07.2-.23-.08-.41,1.2-.22-.07.41-1.2-.23-.08.07-.2Z"/>
    <path class="cls-2" d="M36.4,55.84c.08-.22.24-.31.45-.24s.29.24.21.47l-.25.73c-.08.22-.24.31-.45.24s-.29-.24-.21-.47l.25-.73ZM36.37,56.66c-.03.1,0,.15.07.18s.13,0,.16-.1l.26-.76c.03-.1,0-.15-.07-.18s-.13,0-.16.1l-.26.76Z"/>
    <path class="cls-2" d="M37.87,57.53l-.22-.08.05-.27-.27-.09-.12.24-.2-.07.7-1.33.32.11-.25,1.48ZM37.52,56.91l.21.07.14-.74h0s-.35.67-.35.67Z"/>
    <path class="cls-2" d="M38.45,56.16l.22.07-.41,1.2.36.12-.07.2-.58-.2.48-1.4Z"/>
    <path class="cls-2" d="M39.13,56.39l.22.07-.48,1.4-.22-.07.48-1.4Z"/>
    <path class="cls-2" d="M39.64,57.67h0s.49-.94.49-.94l.31.1-.48,1.4-.21-.07.34-1.01h0s-.49.95-.49.95l-.21-.07.18-1.05h0s-.34.99-.34.99l-.19-.07.48-1.4.31.1-.18,1.05Z"/>
    <path class="cls-2" d="M40.61,57.56l.3.1-.07.2-.3-.1-.14.41.38.13-.07.2-.6-.2.48-1.4.6.2-.07.2-.38-.13-.13.39Z"/>
    <path class="cls-2" d="M41.4,57.6h0s-.35,1.01-.35,1.01l-.2-.07.48-1.4.28.09-.06.91h0s.29-.84.29-.84l.2.07-.48,1.4-.23-.08.07-1.11Z"/>
    <path class="cls-2" d="M42.12,57.41l.68.23-.07.2-.23-.08-.41,1.2-.22-.07.41-1.2-.23-.08.07-.2Z"/>
    <path class="cls-2" d="M43.06,59.29l-.22-.08.05-.27-.27-.09-.12.24-.2-.07.7-1.33.32.11-.25,1.48ZM42.71,58.68l.21.07.14-.74h0s-.35.67-.35.67Z"/>
    <path class="cls-2" d="M43.62,59.48s0-.06.04-.18l.07-.22c.04-.13.02-.19-.08-.23l-.08-.03-.19.57-.22-.07.48-1.4.33.11c.23.08.29.22.22.43l-.04.11c-.05.14-.13.22-.24.23h0c.09.09.1.2.05.35l-.07.22c-.02.07-.04.12-.03.18l-.22-.08ZM43.79,58.2l-.15.43.09.03c.08.03.14,0,.18-.1l.05-.14c.03-.1.01-.16-.06-.18l-.11-.04Z"/>
    <path class="cls-2" d="M29.57,55.87l.3.1-.07.2-.3-.1-.14.41.38.13-.07.2-.6-.2.48-1.4.6.2-.07.2-.38-.13-.13.39Z"/>
    <path class="cls-2" d="M30.41,56.61h0s.49-.94.49-.94l.31.1-.48,1.4-.21-.07.34-1.01h0s-.49.95-.49.95l-.21-.07.18-1.05h0s-.34.99-.34.99l-.19-.07.48-1.4.31.1-.18,1.05Z"/>
    <path class="cls-2" d="M32.21,56.5l-.06.18c-.08.22-.23.31-.45.23l-.1-.04-.18.53-.22-.07.48-1.4.32.11c.22.07.29.23.21.46ZM31.83,56.21l-.16.47.1.04c.07.02.12,0,.15-.1l.07-.21c.03-.1,0-.15-.06-.17l-.1-.04Z"/>
    <path class="cls-2" d="M32.64,57.82l-.22-.08.05-.27-.27-.09-.12.24-.2-.07.7-1.33.32.11-.25,1.48ZM32.29,57.21l.21.07.14-.74h0s-.35.67-.35.67Z"/>
    <path class="cls-2" d="M33.52,56.54c.21.07.28.24.2.46v.04s-.22-.07-.22-.07l.02-.06c.03-.1,0-.15-.06-.18s-.12,0-.16.1-.02.19.08.37c.13.22.15.36.09.52-.08.22-.23.31-.45.24s-.28-.24-.21-.46l.03-.09.21.07-.03.1c-.03.1,0,.15.07.18s.13,0,.16-.1.02-.19-.08-.37c-.13-.22-.15-.36-.09-.52.08-.22.23-.32.44-.24Z"/>
    <path class="cls-2" d="M33.91,56.69l.68.23-.07.2-.23-.08-.41,1.2-.22-.07.41-1.2-.23-.08.07-.2Z"/>
    <path class="cls-2" d="M34.68,56.95l.22.07-.48,1.4-.22-.07.48-1.4Z"/>
    <path class="cls-2" d="M35.06,57.08l.22.07-.41,1.2.36.12-.07.2-.58-.2.48-1.4Z"/>
    <path class="cls-2" d="M35.49,58.79l-.22-.07.48-1.4.22.07-.2.6.25.09.2-.6.22.08-.48,1.4-.22-.08.2-.6-.25-.09-.2.6Z"/>
    <path class="cls-2" d="M36.83,59.25l-.22-.08.05-.27-.27-.09-.12.24-.2-.07.7-1.33.32.11-.25,1.48ZM36.48,58.63l.21.07.14-.74h0s-.35.67-.35.67Z"/>
    <path class="cls-2" d="M37.72,57.99l.35.12c.22.07.29.23.21.46l-.24.71c-.08.22-.23.31-.45.23l-.35-.12.48-1.4ZM37.87,58.26l-.34,1,.12.04c.07.02.12,0,.16-.1l.25-.73c.03-.1,0-.15-.07-.17l-.12-.04Z"/>
    <path class="cls-2" d="M38.56,58.93l.3.1-.07.2-.3-.1-.14.41.38.13-.07.2-.6-.2.48-1.4.6.2-.07.2-.38-.13-.13.39Z"/>
    <path class="cls-2" d="M39.71,59.36l.31.1-.15.44c-.08.22-.23.31-.45.24s-.28-.24-.21-.46l.25-.73c.08-.22.23-.31.45-.24s.28.24.21.46l-.05.14-.21-.07.05-.15c.03-.1,0-.15-.07-.18s-.13,0-.16.1l-.26.76c-.03.1,0,.15.07.18s.13,0,.16-.1l.09-.26-.1-.03.07-.2Z"/>
    <path class="cls-2" d="M40.24,59.22c.08-.22.24-.31.45-.24s.29.24.21.47l-.25.73c-.08.22-.24.31-.45.24s-.29-.24-.21-.47l.25-.73ZM40.2,60.04c-.03.1,0,.15.07.18s.13,0,.16-.1l.26-.76c.03-.1,0-.15-.07-.18s-.13,0-.16.1l-.26.76Z"/>
    <path class="cls-2" d="M41.29,60.31h0s.49-.94.49-.94l.31.1-.48,1.4-.21-.07.34-1.01h0s-.49.95-.49.95l-.21-.07.18-1.05h0s-.34.99-.34.99l-.19-.07.48-1.4.31.1-.18,1.05Z"/>
    <path class="cls-2" d="M42.48,61.17l-.22-.08.05-.27-.27-.09-.12.24-.2-.07.7-1.33.32.11-.25,1.48ZM42.13,60.55l.21.07.14-.74h0s-.35.67-.35.67Z"/>
  </g>
  <path class="cls-3" d="M46.73,66.21l-.9,2.64c-1.03-.25-2.35-.61-4.03-1.12l.97-2.86c.37-1.09,1.56-1.67,2.65-1.3s1.67,1.56,1.3,2.65Z"/>
  <g>
    <path class="cls-2" d="M44.98,65.63s-.04-.04-.08-.05c-.06-.02-.1-.01-.14.03-.04.04-.08.1-.11.2.03-.03.07-.04.11-.05.04,0,.09,0,.13.01.05.02.09.04.13.08.03.04.05.08.06.13,0,.05,0,.11-.02.16-.02.06-.05.1-.09.14-.04.04-.08.06-.13.07-.05,0-.11,0-.17-.02-.08-.03-.14-.07-.18-.12-.04-.05-.05-.12-.05-.19,0-.07.02-.16.05-.25.05-.15.11-.25.19-.3.08-.06.17-.07.28-.03.08.03.14.07.17.13.03.06.04.13.02.2l-.16-.05s0-.07-.02-.09ZM44.68,65.9s-.06.05-.08.09-.02.09,0,.12c.02.04.05.06.1.08.04.01.08.01.12,0,.03-.02.06-.05.07-.09s.02-.09,0-.12-.05-.06-.09-.08c-.04-.01-.08-.01-.12,0Z"/>
    <path class="cls-2" d="M45.43,65.73c.08-.06.17-.07.29-.03s.19.11.21.2c.02.1.01.21-.04.35s-.11.24-.19.3c-.08.06-.17.07-.29.03s-.18-.11-.21-.2c-.02-.1-.01-.21.04-.35s.11-.24.18-.3ZM45.76,66.04s0-.08-.01-.11c-.01-.03-.04-.06-.09-.07s-.08-.01-.11,0c-.03.02-.06.05-.08.08-.02.04-.04.09-.06.15s-.03.11-.04.16c0,.04,0,.08.01.11.01.03.04.06.09.07s.08.01.11,0c.03-.02.06-.05.08-.08.02-.04.04-.09.06-.15s.03-.11.04-.15Z"/>
  </g>
  <g>
    <path class="cls-2" d="M43.2,66.34l-.08.23s0,.05,0,.06c0,.02.02.03.05.04s.04,0,.06,0c.02,0,.03-.03.04-.05l.08-.23.07.03-.08.23s-.03.06-.05.07c-.02.02-.04.03-.07.03-.03,0-.05,0-.08,0s-.05-.02-.07-.04c-.02-.02-.03-.04-.04-.07,0-.03,0-.05,0-.09l.08-.23.07.02Z"/>
    <path class="cls-2" d="M43.68,66.91l-.07-.02-.08-.31-.09.25-.07-.02.12-.37.07.02.08.31.09-.25.07.02-.12.37Z"/>
    <path class="cls-2" d="M43.95,66.59l-.12.37-.07-.02.12-.37.07.02Z"/>
    <path class="cls-2" d="M44.25,66.72s.04.05.05.09c0,.03,0,.07,0,.1s-.03.07-.06.09-.06.04-.09.04c-.03,0-.07,0-.11-.01l-.13-.04.12-.37.13.04s.07.03.09.06ZM44.15,66.96s.05-.04.06-.08.01-.07,0-.1c-.01-.03-.04-.05-.08-.06l-.05-.02-.08.24.05.02s.07.01.1,0Z"/>
    <path class="cls-2" d="M44.53,67.12l-.15-.05-.05.06-.08-.03.26-.32.09.03v.41s-.07-.03-.07-.03v-.08ZM44.53,67.05v-.17s-.11.14-.11.14l.11.04Z"/>
    <path class="cls-2" d="M45,66.98s.04.05.05.09c0,.03,0,.07,0,.1s-.03.07-.06.09-.06.04-.09.04c-.03,0-.07,0-.11-.01l-.13-.04.12-.37.13.04s.07.03.09.06ZM44.9,67.22s.05-.04.06-.08.01-.07,0-.1c-.01-.03-.04-.05-.08-.06l-.05-.02-.08.24.05.02s.07.01.1,0Z"/>
    <path class="cls-2" d="M45.21,67.09l-.03.09.12.04-.02.06-.12-.04-.03.1.14.05-.02.06-.21-.07.12-.37.21.07-.02.06-.14-.05Z"/>
    <path class="cls-2" d="M45.37,67.47s-.03-.03-.04-.05c0-.02,0-.04,0-.06l.08.03s0,.03,0,.04c0,.01.02.02.04.03s.03,0,.04,0c.01,0,.02-.01.03-.03,0-.01,0-.02,0-.03,0,0-.01-.02-.02-.02,0,0-.02-.02-.04-.03-.02-.02-.04-.03-.05-.04s-.02-.03-.03-.04c0-.02,0-.04,0-.06,0-.02.02-.04.04-.05.02-.01.04-.02.06-.02.02,0,.05,0,.07.01.04.01.07.03.08.06s.02.06.01.09l-.08-.03s0-.03,0-.04c0-.01-.02-.02-.04-.03-.01,0-.03,0-.04,0-.01,0-.02.01-.02.03,0,0,0,.02,0,.03,0,0,.01.02.02.02,0,0,.02.02.04.03.02.02.04.03.05.04.01.01.02.03.03.04s0,.04,0,.06c0,.02-.02.04-.03.05-.02.01-.04.02-.06.02-.02,0-.05,0-.07,0s-.05-.02-.06-.04Z"/>
  </g>
  <path class="cls-2" d="M43.94,65.37c-.17-.47-.66-.14-.44.26.19.34.22.39.22.39,0,0,.05-.02.41-.18.42-.19.23-.74-.19-.47Z"/>
</svg>