<?xml version="1.0" encoding="UTF-8"?>
<svg id="Camada_1" xmlns="http://www.w3.org/2000/svg" viewBox="0 0 85.04 85.04">
  <defs>
    <style>
      .cls-1 {
        fill: #3a2c57;
      }

      .cls-2 {
        fill: #fff;
      }

      .cls-3 {
        fill: #dfe491;
      }

      .cls-4 {
        fill: #e75195;
      }

      .cls-5 {
        fill: #f29dc3;
      }
    </style>
  </defs>
  <path class="cls-2" d="M72.5,46.81c.18-1.34.14-2.84-.13-4.6-.12-.82-.35-1.58-.67-2.27-.01-.82-.09-1.68-.23-2.62-.11-.72-.3-1.4-.56-2.02,0-.9-.07-1.87-.23-2.92-.22-1.47-.77-2.75-1.62-3.79-.52-.64-1.13-1.18-1.8-1.63-.01-.2-.03-.4-.06-.6-.2-1.31-.68-2.48-1.44-3.49-.68-.9-1.52-1.64-2.5-2.2-.9-.51-1.89-.86-2.94-1.04-1.02-.18-2.06-.19-3.11-.03-1.81.27-3.46,1.04-4.89,2.26-.42.36-.81.76-1.18,1.18-.43-.33-.87-.62-1.31-.86-1.32-.71-2.75-.98-4.12-.77-1.6.24-2.99,1.05-3.97,2.31-.46-.29-.94-.54-1.45-.73-1.12-.43-2.3-.55-3.51-.37-1.79.27-3.32,1.22-4.43,2.75-.23.32-.44.67-.64,1.03-.8-.49-1.64-.89-2.51-1.19-1.68-.58-3.37-.75-5-.5-1.77.27-3.39,1.04-4.82,2.3-1.17,1.03-2.17,2.29-2.97,3.74-.78,1.41-1.34,2.96-1.67,4.61-.35,1.71-.39,3.43-.14,5.1.14.94.36,1.83.64,2.65-.01.78.04,1.55.15,2.3.16,1.04.41,2.01.74,2.91,0,.68.06,1.34.15,1.98.28,1.82.82,3.41,1.61,4.74.87,1.45,2,2.61,3.37,3.44.97.59,2.05,1.02,3.21,1.28.38.09.78.15,1.18.2,1.4.17,2.91.14,4.49-.1,1.75-.27,3.31-.77,4.65-1.51.49-.27.94-.58,1.37-.91.19.08.37.17.57.24.24.08.48.15.73.2,1.05.24,2.22.25,3.56.05,1.14-.17,2.18-.57,3.11-1.2.85-.57,1.56-1.28,2.13-2.11.02-.03.04-.05.05-.08,1.22,1.12,3.29,2.22,6.49,1.74,1.39-.21,2.58-.73,3.6-1.5.23.07.45.13.69.19,1.68.38,3.61.4,5.76.08,1.62-.24,2.98-.6,4.17-1.09,1.54-.64,2.8-1.58,3.74-2.8.94-1.22,1.52-2.68,1.75-4.35"/>
  <path class="cls-4" d="M26.51,38.84c.96-.14,1.96-.04,2.99.32,1.04.36,2,.91,2.9,1.65s1.68,1.65,2.34,2.72c.66,1.07,1.09,2.23,1.28,3.5.18,1.17.17,2.25-.01,3.24-.19.99-.55,1.86-1.1,2.62-.55.76-1.27,1.39-2.17,1.88-.9.49-1.98.84-3.24,1.03-1.2.18-2.32.21-3.34.08-1.02-.12-1.93-.42-2.71-.9-.78-.47-1.43-1.14-1.94-2-.51-.86-.86-1.93-1.06-3.2-.18-1.19-.14-2.4.1-3.64.25-1.24.66-2.37,1.23-3.4.57-1.03,1.26-1.9,2.07-2.61.81-.71,1.7-1.14,2.66-1.29M26.17,47.37c.1.68.33,1.15.68,1.4s.9.32,1.64.21c.75-.11,1.27-.39,1.57-.84.3-.45.4-.99.3-1.63-.05-.32-.16-.64-.33-.96-.17-.32-.38-.6-.63-.84-.25-.24-.51-.43-.8-.56-.28-.13-.56-.17-.84-.13-.27.04-.52.18-.74.41-.22.23-.41.51-.55.83-.15.33-.24.68-.3,1.05-.05.37-.05.73,0,1.06"/>
  <path class="cls-1" d="M27.93,56.23c-.63.02-1.24,0-1.81-.07-1.06-.13-2.01-.45-2.82-.94-.82-.5-1.5-1.2-2.03-2.09-.53-.88-.9-2-1.09-3.31-.18-1.22-.15-2.47.11-3.74.25-1.26.68-2.43,1.26-3.48.58-1.05,1.3-1.96,2.13-2.69.85-.75,1.79-1.21,2.8-1.36,1-.15,2.05-.04,3.13.33,1.06.37,2.07.94,2.99,1.7.92.76,1.73,1.7,2.4,2.79.68,1.1,1.12,2.31,1.32,3.61.18,1.2.18,2.32-.01,3.33-.19,1.02-.58,1.94-1.15,2.73-.57.79-1.33,1.45-2.26,1.96-.93.51-2.05.87-3.34,1.06-.55.08-1.09.13-1.6.15M26.55,39.13c-.9.14-1.74.55-2.51,1.22-.78.69-1.46,1.54-2.01,2.54-.55,1-.95,2.11-1.2,3.32-.24,1.2-.28,2.39-.1,3.54.19,1.24.53,2.28,1.02,3.1.48.81,1.1,1.45,1.84,1.9.74.45,1.61.74,2.59.86.99.12,2.09.09,3.26-.08,1.22-.19,2.28-.52,3.15-1,.86-.47,1.55-1.08,2.07-1.8.52-.72.87-1.56,1.05-2.5.18-.95.18-2.01.01-3.14-.18-1.22-.6-2.36-1.24-3.39-.64-1.04-1.41-1.93-2.28-2.65-.87-.72-1.82-1.26-2.81-1.6-.99-.34-1.95-.44-2.85-.31M27.99,49.32c-.56.02-.99-.08-1.31-.31-.41-.3-.68-.83-.8-1.59-.06-.36-.05-.75,0-1.15.06-.4.16-.78.32-1.13.16-.35.36-.66.61-.91.27-.27.57-.44.91-.49.33-.05.66,0,1,.15.31.14.61.35.88.61.27.26.49.57.68.91.19.35.31.7.36,1.05.11.71,0,1.33-.35,1.84-.34.52-.94.85-1.76.97-.19.03-.37.05-.54.05M26.45,47.33c.09.6.28,1.01.56,1.21.28.2.77.26,1.43.16.66-.1,1.12-.34,1.37-.72.26-.39.34-.86.26-1.43-.04-.28-.14-.57-.3-.86-.16-.29-.35-.55-.58-.77-.22-.22-.46-.39-.71-.5-.23-.11-.46-.14-.68-.11-.21.03-.4.14-.58.32-.2.2-.36.46-.5.75-.13.3-.23.63-.27.97-.05.34-.05.67,0,.98"/>
  <path class="cls-4" d="M47.86,35.43c.47-.07.97.03,1.48.31.52.28,1.03.68,1.54,1.2.51.52,1,1.15,1.49,1.89s.92,1.52,1.31,2.36c.39.84.73,1.7,1.02,2.59.29.89.5,1.76.63,2.61.07.46.08.99.03,1.6-.05.61-.19,1.2-.43,1.77-.24.57-.6,1.08-1.07,1.52-.47.44-1.09.71-1.87.83-1.36.21-2.39-.06-3.11-.78-.72-.72-1.18-1.77-1.39-3.14-.05-.32-.07-.76-.07-1.32,0-.56,0-1.15.01-1.78,0-.62.02-1.22.03-1.78.02-.56.01-1.01,0-1.33-.06.21-.12.53-.17.95-.05.42-.11.89-.17,1.4s-.14,1.04-.23,1.58c-.09.54-.2,1.03-.32,1.49-.13.46-.28.84-.47,1.15-.19.31-.41.48-.67.52-.21.03-.46-.06-.73-.27-.27-.22-.55-.51-.83-.88-.28-.37-.56-.78-.83-1.23-.27-.45-.53-.89-.76-1.33-.24-.44-.44-.84-.6-1.21-.16-.36-.28-.63-.36-.81.1.36.25.82.44,1.38.19.56.39,1.14.59,1.73.2.59.38,1.17.55,1.73.17.56.28,1.02.34,1.39.07.46.05.92-.07,1.39-.12.47-.31.9-.58,1.29-.27.39-.6.72-1.01.99-.4.27-.86.45-1.38.52-.96.15-1.72.12-2.29-.07-.57-.19-1.01-.5-1.33-.91-.32-.41-.54-.89-.68-1.45-.13-.56-.24-1.12-.32-1.68-.04-.27-.08-.77-.11-1.5-.03-.73-.04-1.56-.01-2.49s.09-1.9.21-2.92c.12-1.01.31-1.96.56-2.83.26-.87.61-1.61,1.04-2.21.44-.6.98-.95,1.64-1.05.49-.07.94-.03,1.36.13.42.16.81.4,1.17.71.36.31.69.68,1.01,1.1.31.42.59.86.84,1.32.25.46.47.92.66,1.37.19.45.36.86.51,1.23.02.03.04.08.07.15.03.07.07.11.13.1.06,0,.1-.05.12-.12.02-.07.04-.13.05-.16.16-.62.29-1.31.4-2.09s.26-1.52.45-2.23c.19-.71.45-1.31.78-1.82.33-.51.79-.81,1.38-.9"/>
  <path class="cls-1" d="M39.34,54.13c-.59.02-1.09-.04-1.51-.18-.62-.21-1.11-.55-1.46-1-.34-.44-.59-.97-.73-1.56-.13-.56-.24-1.13-.33-1.7-.04-.29-.08-.8-.11-1.53-.03-.73-.04-1.57-.01-2.51.02-.94.1-1.93.21-2.94.12-1.03.31-2,.58-2.88.26-.9.63-1.67,1.09-2.3.48-.66,1.1-1.06,1.83-1.17.54-.08,1.04-.03,1.51.15.45.17.87.43,1.26.76.37.32.73.71,1.05,1.14.32.43.61.89.87,1.36.25.47.48.94.67,1.4.15.35.28.67.41.97.12-.53.23-1.13.32-1.79.11-.79.26-1.55.45-2.26.19-.73.47-1.37.81-1.9.37-.58.91-.92,1.58-1.03.53-.08,1.09.04,1.66.34.54.29,1.08.72,1.61,1.26.52.53,1.03,1.18,1.52,1.93.49.75.94,1.55,1.33,2.4.4.84.74,1.73,1.04,2.62.29.9.51,1.8.64,2.66.07.48.08,1.03.03,1.66-.05.63-.2,1.26-.45,1.86-.26.61-.64,1.15-1.14,1.62-.51.48-1.19.78-2.02.91-1.44.22-2.57-.07-3.36-.86-.76-.77-1.25-1.88-1.47-3.3-.05-.34-.07-.78-.07-1.36,0-.23,0-.46,0-.69-.08.46-.18.9-.29,1.3-.13.48-.3.89-.5,1.22-.23.38-.53.6-.87.66-.29.05-.61-.07-.95-.33-.29-.23-.59-.54-.88-.93-.29-.38-.57-.8-.85-1.26-.01-.02-.02-.03-.03-.05.15.45.29.89.42,1.31.17.57.29,1.05.35,1.43.07.49.05,1-.08,1.5-.12.5-.33.97-.62,1.38-.29.42-.65.78-1.08,1.07-.44.29-.94.49-1.5.57-.33.05-.63.08-.92.09M39.28,36.89c-.1,0-.2.01-.3.03-.58.09-1.06.4-1.45.94-.42.58-.75,1.29-1,2.13-.25.85-.44,1.79-.56,2.78-.12,1-.19,1.97-.21,2.89-.02.92-.02,1.75.01,2.47.03.71.07,1.2.11,1.47.08.55.19,1.11.32,1.66.12.51.33.96.62,1.34.28.36.68.64,1.2.81.52.18,1.24.2,2.15.06.47-.07.9-.23,1.26-.48.37-.25.68-.56.93-.92.25-.36.43-.76.53-1.2.11-.43.13-.86.07-1.28-.05-.35-.16-.8-.33-1.34-.17-.55-.35-1.13-.55-1.72-.2-.59-.39-1.17-.59-1.73-.19-.56-.34-1.03-.45-1.4l.54-.19c.07.17.19.44.35.8.16.36.36.76.59,1.19.24.44.49.88.76,1.32.26.44.54.84.81,1.2.26.35.53.63.78.83.2.16.38.24.51.22.17-.03.32-.15.47-.39.17-.28.32-.64.44-1.07.12-.44.23-.93.32-1.46.09-.53.17-1.05.23-1.56.06-.52.12-.99.17-1.41.06-.44.11-.76.18-.99l.47-1.63.09,1.69c.02.33.02.79,0,1.35-.02.54-.03,1.12-.03,1.78,0,.62-.01,1.21-.01,1.77,0,.54.02.97.07,1.28.2,1.3.64,2.31,1.31,2.98.65.66,1.59.89,2.86.7.71-.11,1.29-.36,1.72-.76.44-.41.77-.88,1-1.42.23-.54.37-1.11.41-1.68.05-.58.04-1.1-.03-1.53-.13-.83-.33-1.69-.62-2.57-.28-.87-.62-1.73-1.01-2.56-.38-.82-.82-1.6-1.29-2.32-.47-.72-.96-1.34-1.45-1.85-.49-.5-.98-.89-1.47-1.15-.46-.25-.9-.34-1.3-.28-.51.08-.9.33-1.18.77-.31.48-.56,1.07-.74,1.74-.19.69-.33,1.43-.44,2.19-.11.79-.24,1.5-.4,2.12-.02.05-.03.1-.05.17-.05.18-.18.3-.35.33-.2.03-.37-.08-.45-.28-.01-.04-.03-.07-.04-.09l-.03-.05c-.15-.36-.32-.77-.51-1.23-.19-.44-.41-.9-.65-1.35-.24-.45-.52-.88-.82-1.29-.3-.4-.62-.75-.97-1.05-.33-.29-.7-.51-1.08-.66-.28-.11-.59-.16-.91-.15"/>
  <path class="cls-4" d="M64.71,36.71c.08.55-.04,1-.38,1.37-.33.36-.76.58-1.28.66-.26.04-.48.02-.68-.06-.19-.08-.37-.17-.53-.27-.16-.1-.34-.19-.52-.27-.18-.08-.4-.1-.64-.07-.4.06-.7.23-.91.5-.21.27-.35.61-.43,1-.08.39-.11.82-.09,1.27.02.46.06.89.13,1.3.13.88.39,1.45.76,1.7.37.25.9.32,1.59.21.17-.03.34-.07.51-.12.17-.06.33-.13.47-.22.14-.09.25-.2.34-.32.08-.12.11-.26.09-.41-.03-.17-.07-.27-.14-.32-.07-.04-.16-.06-.29-.04-.14.02-.29.07-.47.14-.18.07-.36.12-.56.15-.26.04-.49.02-.69-.06-.2-.08-.33-.35-.41-.83-.12-.78.02-1.35.42-1.71.4-.36,1.03-.61,1.9-.74.55-.08,1.11-.1,1.69-.04.58.05,1.11.2,1.61.43.5.24.92.58,1.29,1.02s.6,1.02.71,1.74c.2,1.34.24,2.47.12,3.4s-.43,1.71-.91,2.33c-.48.63-1.15,1.12-2.01,1.47-.86.36-1.92.63-3.18.82-2.66.4-4.68.14-6.05-.79-1.37-.93-2.24-2.59-2.6-4.98-.2-1.34-.2-2.67.02-3.97.21-1.31.59-2.5,1.13-3.56.54-1.06,1.22-1.95,2.05-2.66.83-.71,1.75-1.14,2.77-1.29.59-.09,1.18-.09,1.75.01.58.1,1.1.29,1.58.56.48.27.88.63,1.21,1.07.33.44.54.96.63,1.57"/>
  <path class="cls-1" d="M60.47,51.21c-1.88.07-3.38-.27-4.48-1.01-1.43-.97-2.35-2.71-2.72-5.17-.21-1.36-.2-2.73.02-4.06.22-1.33.61-2.56,1.16-3.64.56-1.09,1.27-2.02,2.12-2.75.86-.74,1.85-1.2,2.91-1.36.62-.09,1.24-.09,1.85.02.61.1,1.17.3,1.67.59.51.29.95.67,1.3,1.14.36.48.59,1.05.69,1.7.1.64-.06,1.18-.45,1.6-.38.41-.86.66-1.45.75-.31.05-.59.02-.83-.08-.2-.09-.4-.18-.57-.29-.15-.09-.31-.18-.49-.25-.13-.06-.29-.07-.48-.05-.32.05-.56.18-.72.39-.18.24-.31.53-.38.88-.08.37-.1.77-.08,1.2.02.44.06.87.12,1.27.12.78.34,1.3.63,1.5.31.21.78.26,1.38.17.15-.02.31-.06.46-.11.15-.05.28-.11.4-.19.11-.07.19-.15.26-.24.04-.06.05-.12.04-.21,0-.06-.02-.1-.03-.12-.01,0-.04,0-.07,0-.11.02-.25.06-.4.12-.2.08-.41.14-.63.17-.31.05-.59.02-.84-.08-.3-.12-.49-.46-.58-1.05-.13-.87.04-1.53.51-1.97.44-.41,1.11-.67,2.05-.81.57-.09,1.16-.1,1.76-.05.61.06,1.18.21,1.7.46.53.25,1,.62,1.39,1.1.39.48.65,1.11.77,1.88.21,1.36.25,2.53.12,3.49-.13.98-.46,1.81-.97,2.47-.51.66-1.23,1.19-2.13,1.56-.88.36-1.97.65-3.25.84-.63.09-1.22.15-1.78.17M60.17,33.73c-.2,0-.4.03-.59.06-.96.14-1.85.56-2.63,1.23-.79.68-1.46,1.55-1.98,2.57-.52,1.03-.9,2.2-1.1,3.47-.21,1.27-.22,2.58-.02,3.89.35,2.3,1.18,3.91,2.48,4.78,1.3.88,3.27,1.13,5.85.74,1.23-.19,2.28-.46,3.11-.8.81-.33,1.44-.8,1.89-1.38.45-.58.73-1.32.85-2.2.12-.9.08-2.02-.12-3.32-.1-.66-.32-1.2-.64-1.6-.33-.41-.73-.73-1.19-.94-.46-.22-.97-.36-1.51-.41-.55-.05-1.1-.04-1.62.04-.81.12-1.39.35-1.74.67-.32.3-.43.77-.33,1.46.08.54.22.6.23.6.15.06.33.07.54.04.17-.03.34-.07.49-.14.2-.08.38-.14.54-.16.19-.03.35,0,.48.08.14.09.23.26.27.52.03.23-.01.43-.14.62-.1.15-.24.29-.42.4-.16.11-.34.19-.53.25-.18.06-.37.11-.55.13-.75.11-1.36.03-1.79-.26-.45-.3-.74-.92-.88-1.89-.06-.42-.11-.87-.13-1.33-.02-.48,0-.93.09-1.35.09-.43.25-.81.49-1.12.25-.33.62-.54,1.09-.61.3-.05.57-.02.8.09.2.09.38.19.55.29.15.09.32.18.49.25.14.06.32.07.52.04.46-.07.82-.26,1.11-.57.28-.3.37-.67.31-1.13-.09-.56-.28-1.04-.58-1.44-.31-.41-.68-.74-1.12-.99-.45-.25-.95-.43-1.49-.52-.35-.06-.71-.08-1.07-.07"/>
  <path class="cls-5" d="M25.62,33.95c.96-.14,1.96-.04,2.99.32,1.04.36,2,.91,2.9,1.65s1.68,1.65,2.34,2.72c.66,1.07,1.09,2.23,1.28,3.5.18,1.17.17,2.25-.01,3.24-.19.99-.55,1.86-1.1,2.62-.55.76-1.27,1.39-2.17,1.88-.9.49-1.98.84-3.24,1.03-1.2.18-2.32.21-3.34.08-1.02-.12-1.93-.42-2.71-.9-.78-.47-1.43-1.14-1.94-2-.51-.86-.86-1.93-1.06-3.2-.18-1.19-.14-2.4.1-3.64.25-1.24.66-2.37,1.23-3.4.57-1.03,1.26-1.9,2.07-2.61.81-.71,1.7-1.14,2.66-1.29M25.27,42.48c.1.68.33,1.15.68,1.4s.9.32,1.64.21c.75-.11,1.27-.39,1.57-.84.3-.45.4-.99.3-1.63-.05-.32-.16-.64-.33-.96-.17-.32-.38-.6-.63-.84-.25-.24-.51-.43-.8-.56-.28-.13-.56-.17-.84-.13-.27.04-.52.18-.74.4-.22.23-.41.51-.55.83-.15.33-.24.68-.3,1.05-.05.37-.05.73,0,1.06"/>
  <path class="cls-1" d="M27.04,51.34c-.63.02-1.24,0-1.81-.07-1.06-.13-2.01-.45-2.82-.94-.82-.5-1.5-1.2-2.04-2.09-.53-.88-.9-2-1.09-3.31-.18-1.22-.15-2.47.11-3.74.25-1.26.68-2.43,1.26-3.48.58-1.05,1.3-1.96,2.13-2.69.85-.75,1.79-1.21,2.8-1.36,1-.15,2.05-.04,3.13.33,1.06.37,2.07.94,2.99,1.7.92.76,1.73,1.7,2.4,2.79.68,1.1,1.12,2.31,1.32,3.61.18,1.2.18,2.32-.01,3.33-.19,1.02-.58,1.94-1.15,2.73-.57.79-1.33,1.45-2.26,1.97-.93.51-2.05.86-3.34,1.06-.55.08-1.09.13-1.6.15M25.66,34.24c-.9.14-1.74.55-2.51,1.22-.78.69-1.46,1.54-2.01,2.54-.55,1-.95,2.11-1.2,3.31-.24,1.2-.28,2.39-.1,3.54.19,1.24.53,2.28,1.02,3.1.48.81,1.1,1.45,1.84,1.9.74.45,1.61.74,2.59.86.99.12,2.09.09,3.26-.08,1.22-.19,2.28-.52,3.15-1,.86-.47,1.55-1.08,2.07-1.8.52-.72.87-1.56,1.05-2.5.18-.95.18-2.01.01-3.14-.18-1.22-.6-2.36-1.24-3.39-.64-1.04-1.41-1.93-2.28-2.65-.87-.72-1.82-1.26-2.81-1.6-.99-.34-1.95-.44-2.85-.31M27.09,44.43c-.56.02-.99-.08-1.31-.31-.41-.3-.68-.83-.8-1.59-.06-.36-.05-.75,0-1.15.06-.4.16-.78.32-1.13.16-.35.36-.66.61-.92.27-.27.57-.44.91-.49.33-.05.66,0,1,.15.31.14.61.35.88.61.27.26.49.57.68.91.19.35.31.7.36,1.05.11.71,0,1.33-.35,1.84-.34.52-.94.85-1.76.97-.19.03-.37.05-.54.05M25.55,42.44c.09.6.28,1.01.56,1.21.28.2.77.26,1.43.16.66-.1,1.12-.34,1.37-.72.26-.39.34-.86.26-1.43-.04-.29-.14-.58-.3-.86-.16-.29-.35-.55-.58-.77-.22-.22-.46-.39-.71-.5-.24-.11-.46-.14-.68-.11-.21.03-.4.14-.58.32-.2.2-.36.46-.5.75-.13.3-.23.63-.27.97-.05.34-.05.67,0,.98"/>
  <path class="cls-5" d="M46.96,30.54c.47-.07.97.03,1.48.31.52.28,1.03.68,1.54,1.2.51.52,1,1.15,1.49,1.89s.92,1.52,1.31,2.36c.39.84.73,1.7,1.02,2.59.29.89.5,1.76.63,2.61.07.46.08.99.03,1.6-.05.61-.19,1.2-.43,1.77-.24.57-.6,1.08-1.07,1.52-.47.44-1.09.71-1.87.83-1.36.2-2.39-.06-3.11-.78-.72-.72-1.18-1.77-1.39-3.14-.05-.32-.07-.76-.07-1.32,0-.56,0-1.15.01-1.78,0-.62.02-1.22.03-1.78.02-.56.01-1.01,0-1.33-.06.21-.12.53-.17.95-.05.42-.11.89-.17,1.4s-.14,1.04-.23,1.58c-.09.54-.2,1.03-.32,1.49-.13.46-.28.84-.47,1.15-.19.31-.41.48-.67.52-.21.03-.46-.06-.73-.27-.27-.22-.55-.51-.83-.88-.28-.37-.56-.78-.83-1.23-.27-.45-.53-.89-.76-1.33-.24-.44-.44-.84-.6-1.21-.16-.36-.28-.63-.36-.81.1.36.25.82.44,1.38.19.56.39,1.14.59,1.73.2.59.38,1.17.55,1.73.17.56.28,1.02.34,1.39.07.46.05.92-.07,1.39-.12.47-.31.9-.58,1.29-.27.39-.6.72-1.01.99-.4.27-.86.45-1.38.52-.96.14-1.72.12-2.29-.07-.57-.19-1.01-.5-1.33-.91-.32-.41-.54-.89-.68-1.45-.13-.56-.24-1.12-.32-1.68-.04-.27-.08-.77-.11-1.5-.03-.73-.04-1.56-.01-2.49s.09-1.9.21-2.92c.12-1.01.31-1.96.56-2.83.26-.87.61-1.61,1.04-2.21.44-.6.98-.95,1.64-1.05.49-.07.94-.03,1.36.13.42.16.81.4,1.17.71.36.31.69.68,1.01,1.1.31.42.59.86.84,1.32.25.46.47.92.66,1.37.19.45.36.86.51,1.23.02.03.04.08.07.15.03.07.07.11.13.1.06,0,.1-.05.12-.12.02-.07.04-.13.05-.16.16-.62.29-1.31.4-2.09.11-.78.26-1.52.45-2.23.19-.71.45-1.31.78-1.82.33-.51.79-.81,1.38-.9"/>
  <path class="cls-1" d="M38.44,49.24c-.59.02-1.1-.04-1.51-.18-.62-.21-1.11-.55-1.46-1-.34-.44-.59-.97-.73-1.56-.13-.56-.24-1.13-.33-1.7-.04-.29-.08-.8-.11-1.53-.03-.74-.04-1.58-.01-2.51.02-.94.1-1.93.21-2.94.12-1.03.31-1.99.57-2.88.27-.9.63-1.67,1.09-2.3.48-.66,1.1-1.06,1.83-1.17.53-.08,1.04-.03,1.51.15.45.17.87.43,1.26.76.37.32.73.71,1.05,1.14.32.43.61.89.87,1.36.25.47.48.94.67,1.4.15.35.28.67.41.97.12-.53.23-1.13.32-1.79.11-.79.26-1.55.45-2.26.19-.73.47-1.37.81-1.9.37-.58.91-.92,1.58-1.03.53-.08,1.09.04,1.66.34.54.29,1.08.72,1.61,1.26.52.53,1.03,1.18,1.52,1.93.49.75.94,1.55,1.33,2.4.4.84.74,1.73,1.04,2.62.3.91.51,1.8.64,2.66.07.48.08,1.03.03,1.66-.05.64-.2,1.26-.46,1.86-.26.61-.64,1.15-1.14,1.62-.51.48-1.19.78-2.02.91-1.44.22-2.57-.07-3.36-.86-.76-.77-1.25-1.88-1.47-3.3-.05-.34-.08-.78-.07-1.36,0-.23,0-.46,0-.7-.08.46-.18.9-.29,1.3-.13.48-.3.89-.5,1.22-.23.38-.53.6-.87.66-.29.05-.61-.07-.95-.33-.29-.23-.59-.54-.88-.93-.29-.38-.57-.8-.85-1.26-.01-.02-.02-.03-.03-.05.15.45.29.89.42,1.31.17.57.29,1.05.35,1.43.07.49.05,1-.08,1.5-.12.5-.33.97-.62,1.38-.29.42-.65.78-1.08,1.07-.44.29-.94.49-1.5.57-.33.05-.63.08-.92.09M38.38,32c-.1,0-.2.01-.3.03-.58.09-1.06.39-1.45.94-.42.57-.75,1.29-1,2.13-.25.85-.44,1.79-.56,2.78-.12,1-.19,1.97-.21,2.89-.02.92-.02,1.74.01,2.47.03.71.07,1.2.11,1.47.08.56.19,1.11.32,1.66.12.51.33.96.62,1.34.28.36.68.64,1.19.81.52.18,1.24.2,2.15.06.47-.07.9-.23,1.26-.48.37-.25.68-.56.93-.92.25-.36.43-.76.53-1.2.11-.43.13-.86.06-1.28-.05-.35-.16-.8-.33-1.34-.17-.55-.35-1.13-.55-1.72-.2-.59-.39-1.17-.59-1.73-.19-.56-.34-1.03-.45-1.4l.54-.19c.07.17.19.44.35.8.16.36.36.76.59,1.19.24.44.49.88.76,1.32.26.44.53.84.81,1.2.26.35.53.63.78.83.2.16.38.24.51.22.17-.03.32-.15.47-.39.17-.28.32-.64.44-1.07.12-.44.23-.93.32-1.46.09-.53.17-1.06.23-1.56.06-.52.12-.99.17-1.41.06-.44.11-.76.18-.99l.47-1.63.09,1.69c.02.33.02.79,0,1.35-.02.55-.03,1.13-.03,1.77,0,.62-.01,1.21-.01,1.77,0,.54.02.97.07,1.28.2,1.3.64,2.31,1.31,2.98.65.66,1.59.89,2.86.7.71-.11,1.29-.36,1.72-.76.44-.41.77-.88,1-1.42.23-.54.37-1.11.41-1.68.05-.58.04-1.1-.03-1.53-.12-.83-.33-1.69-.62-2.57-.28-.87-.62-1.73-1.01-2.56-.38-.82-.82-1.6-1.29-2.32-.47-.72-.96-1.34-1.45-1.85-.49-.5-.98-.89-1.47-1.15-.46-.25-.9-.34-1.3-.28-.51.08-.9.33-1.19.77-.31.48-.56,1.07-.74,1.74-.19.69-.33,1.43-.44,2.19-.11.79-.24,1.5-.4,2.12-.02.05-.03.1-.05.17-.05.18-.18.3-.35.33-.19.02-.37-.08-.45-.28-.01-.04-.03-.07-.04-.09l-.03-.05c-.15-.37-.32-.77-.51-1.23-.19-.44-.41-.9-.65-1.35-.24-.45-.52-.88-.82-1.29-.3-.4-.62-.76-.97-1.05-.33-.29-.7-.51-1.08-.66-.28-.11-.59-.16-.91-.15"/>
  <path class="cls-5" d="M63.81,31.82c.08.55-.04,1-.38,1.37-.33.36-.76.58-1.28.66-.26.04-.48.02-.68-.06-.19-.08-.37-.17-.53-.27-.16-.1-.34-.19-.52-.27-.18-.08-.4-.1-.64-.07-.4.06-.7.23-.91.5-.21.27-.35.61-.43,1-.08.39-.11.82-.09,1.27.02.46.06.89.13,1.3.13.88.39,1.45.76,1.7.37.25.9.32,1.59.22.17-.03.34-.07.51-.12.17-.06.33-.13.47-.22.14-.09.25-.2.34-.32.08-.12.11-.26.09-.41-.03-.17-.07-.27-.14-.32-.07-.04-.16-.06-.29-.04-.14.02-.29.07-.47.14-.18.07-.36.12-.56.15-.26.04-.49.02-.69-.06-.2-.08-.33-.35-.41-.83-.12-.78.02-1.35.42-1.71.4-.36,1.03-.61,1.9-.74.55-.08,1.11-.1,1.69-.04.58.05,1.11.2,1.61.43.5.24.92.58,1.29,1.02.36.44.6,1.02.71,1.74.2,1.34.24,2.47.12,3.4s-.43,1.71-.91,2.33c-.48.63-1.15,1.12-2.01,1.47-.86.35-1.92.63-3.18.82-2.66.4-4.68.14-6.05-.79-1.37-.93-2.24-2.59-2.6-4.98-.2-1.34-.2-2.66.02-3.97.21-1.31.59-2.5,1.13-3.56.54-1.06,1.22-1.95,2.05-2.66.83-.71,1.75-1.14,2.77-1.29.59-.09,1.18-.09,1.75.01.58.1,1.1.29,1.58.56.48.27.88.63,1.21,1.07.33.44.54.97.63,1.57"/>
  <path class="cls-1" d="M59.57,46.32c-1.88.07-3.38-.27-4.48-1.01-1.43-.97-2.35-2.71-2.72-5.17-.21-1.36-.2-2.73.02-4.06.22-1.33.61-2.56,1.16-3.64.56-1.09,1.27-2.02,2.12-2.75.86-.74,1.85-1.2,2.91-1.36.62-.09,1.24-.09,1.85.02.61.1,1.17.3,1.67.59.51.29.95.67,1.3,1.14.36.48.59,1.05.69,1.7.1.64-.06,1.18-.45,1.6-.38.41-.86.66-1.45.75-.31.05-.59.02-.83-.08-.2-.09-.4-.18-.57-.29-.15-.09-.31-.18-.49-.25-.13-.06-.29-.07-.48-.04-.32.05-.56.18-.72.39-.18.24-.31.53-.38.88-.08.37-.1.77-.08,1.2.02.44.06.87.12,1.27.12.78.34,1.3.63,1.5.31.21.78.26,1.38.17.15-.02.31-.06.46-.11.15-.05.28-.11.4-.19.11-.07.19-.15.26-.24.04-.06.05-.12.04-.21,0-.06-.02-.1-.03-.12-.01,0-.04,0-.07,0-.11.02-.25.06-.4.12-.2.08-.41.14-.63.17-.31.05-.59.02-.84-.08-.3-.12-.49-.46-.58-1.05-.13-.87.04-1.53.51-1.97.44-.41,1.11-.67,2.05-.81.57-.09,1.16-.1,1.76-.05.61.06,1.18.21,1.7.46.53.25,1,.62,1.39,1.1.39.48.65,1.11.77,1.88.21,1.36.25,2.53.12,3.49-.13.98-.46,1.81-.97,2.47-.51.66-1.23,1.19-2.13,1.56-.88.36-1.97.65-3.25.84-.63.09-1.22.15-1.78.17M59.27,28.84c-.2,0-.4.03-.6.06-.96.14-1.84.56-2.63,1.23-.79.68-1.46,1.55-1.98,2.57-.52,1.03-.9,2.2-1.1,3.47-.21,1.27-.22,2.58-.02,3.89.35,2.3,1.18,3.91,2.48,4.78,1.3.88,3.27,1.13,5.85.74,1.23-.19,2.28-.46,3.11-.8.81-.33,1.44-.8,1.89-1.38.45-.58.73-1.32.85-2.2.12-.9.08-2.02-.12-3.32-.1-.66-.32-1.2-.64-1.6-.33-.41-.73-.73-1.19-.94-.46-.22-.97-.36-1.51-.41-.55-.05-1.1-.04-1.62.04-.81.12-1.39.35-1.75.67-.32.3-.43.77-.33,1.46.08.54.22.6.23.6.15.06.33.07.54.04.17-.03.34-.07.49-.14.2-.08.38-.14.54-.16.19-.03.35,0,.48.08.14.09.23.26.27.52.03.23-.01.43-.14.62-.1.15-.24.29-.42.4-.16.11-.34.19-.53.25-.18.06-.37.11-.55.13-.76.11-1.36.03-1.79-.26-.45-.3-.74-.92-.88-1.89-.06-.42-.11-.87-.13-1.33-.02-.48,0-.93.09-1.35.09-.44.25-.81.49-1.12.25-.33.62-.54,1.09-.61.3-.05.57-.02.8.09.2.09.38.18.55.29.15.09.32.18.49.25.14.06.32.07.52.04.46-.07.82-.26,1.11-.57.28-.3.37-.67.31-1.13-.09-.56-.28-1.04-.58-1.44-.31-.41-.68-.74-1.13-.99-.45-.25-.95-.43-1.49-.52-.35-.06-.71-.08-1.07-.07"/>
  <path class="cls-3" d="M24.82,29.01c.96-.14,1.96-.04,2.99.32,1.04.36,2,.91,2.9,1.65s1.68,1.65,2.34,2.72c.66,1.07,1.09,2.23,1.28,3.5.18,1.17.17,2.25-.01,3.24-.19.99-.55,1.86-1.1,2.62-.55.76-1.27,1.39-2.17,1.88-.9.49-1.98.84-3.24,1.03-1.2.18-2.32.21-3.34.08-1.02-.12-1.93-.42-2.71-.9-.78-.47-1.43-1.14-1.94-2-.51-.86-.86-1.93-1.06-3.2-.18-1.19-.14-2.4.1-3.64.25-1.24.66-2.37,1.23-3.4.57-1.03,1.26-1.9,2.07-2.61.81-.71,1.7-1.14,2.66-1.29M24.48,37.54c.1.68.33,1.15.68,1.4s.9.32,1.64.21c.75-.11,1.27-.39,1.57-.84.3-.45.4-.99.3-1.63-.05-.32-.16-.64-.33-.96-.17-.32-.38-.6-.63-.84-.25-.24-.51-.43-.8-.56-.28-.13-.56-.17-.84-.13-.27.04-.52.18-.74.4-.22.23-.41.51-.55.83-.15.33-.24.68-.3,1.05-.05.37-.05.73,0,1.06"/>
  <path class="cls-1" d="M26.24,46.4c-.63.02-1.24,0-1.81-.07-1.06-.13-2.01-.45-2.82-.94-.82-.5-1.5-1.2-2.03-2.09-.53-.88-.9-2-1.09-3.31-.18-1.22-.15-2.47.11-3.74.25-1.26.68-2.43,1.26-3.48.58-1.05,1.3-1.96,2.13-2.69.85-.75,1.79-1.21,2.8-1.36h0c1-.15,2.05-.04,3.13.33,1.06.37,2.07.94,2.99,1.7.92.76,1.73,1.7,2.4,2.79.68,1.1,1.12,2.31,1.32,3.61.18,1.2.18,2.32-.01,3.33-.19,1.02-.58,1.94-1.15,2.73-.57.79-1.33,1.45-2.26,1.96-.93.51-2.05.87-3.34,1.06-.55.08-1.09.13-1.6.15M24.86,29.29h0c-.9.14-1.74.55-2.51,1.22-.78.69-1.46,1.54-2.01,2.54-.55,1-.95,2.11-1.2,3.31-.24,1.2-.28,2.39-.1,3.54.19,1.24.53,2.28,1.02,3.1.48.81,1.1,1.45,1.84,1.9.74.45,1.61.74,2.59.86.99.12,2.09.09,3.26-.08,1.22-.19,2.28-.52,3.15-1,.86-.47,1.55-1.08,2.07-1.8.52-.72.87-1.56,1.05-2.5.18-.95.18-2.01.01-3.14-.18-1.22-.6-2.36-1.24-3.39-.64-1.04-1.41-1.93-2.28-2.65-.87-.72-1.82-1.26-2.81-1.6-.99-.34-1.95-.44-2.85-.31M26.3,39.49c-.56.02-.99-.08-1.31-.31-.41-.3-.68-.83-.8-1.59-.06-.36-.05-.75,0-1.15.06-.4.16-.78.32-1.13.16-.35.36-.66.61-.91.27-.27.57-.44.91-.49.33-.05.66,0,1,.15.32.14.61.35.88.61.27.26.49.57.68.91.19.35.31.7.36,1.05.11.71,0,1.33-.35,1.84-.34.52-.94.84-1.76.97-.19.03-.37.05-.54.05M24.76,37.5c.09.6.28,1.01.56,1.21.28.2.77.26,1.43.16.66-.1,1.12-.34,1.37-.72.26-.39.34-.86.26-1.43-.04-.28-.14-.57-.3-.86-.16-.29-.35-.55-.58-.77-.22-.22-.46-.39-.71-.5-.23-.11-.46-.14-.68-.11-.21.03-.4.14-.58.32-.2.2-.36.46-.5.75-.13.3-.23.63-.27.97-.05.34-.05.67,0,.98"/>
  <path class="cls-3" d="M46.17,25.59c.47-.07.97.03,1.48.31.52.28,1.03.68,1.54,1.2.51.52,1,1.15,1.49,1.89s.92,1.52,1.31,2.36c.39.84.73,1.7,1.02,2.59.29.89.5,1.76.63,2.61.07.46.08.99.03,1.6-.05.61-.19,1.2-.43,1.77-.24.57-.6,1.08-1.07,1.52-.47.44-1.09.71-1.87.83-1.36.2-2.39-.06-3.11-.78-.72-.72-1.18-1.77-1.39-3.14-.05-.32-.07-.76-.07-1.32,0-.56,0-1.15.01-1.78,0-.62.02-1.22.03-1.78.02-.56.01-1.01,0-1.33-.06.21-.12.53-.17.95-.05.42-.11.89-.17,1.4s-.14,1.04-.23,1.58c-.09.54-.2,1.03-.32,1.49-.13.46-.28.84-.47,1.15-.19.31-.41.48-.67.52-.21.03-.46-.06-.73-.27-.27-.22-.55-.51-.83-.88-.28-.37-.56-.78-.83-1.23-.27-.45-.53-.89-.76-1.33-.24-.44-.44-.84-.6-1.21-.16-.36-.28-.63-.36-.81.1.36.25.82.44,1.38.19.56.39,1.14.59,1.73.2.59.38,1.17.55,1.73.17.56.28,1.02.34,1.39.07.46.05.92-.07,1.39-.12.47-.31.9-.58,1.29-.27.39-.6.72-1.01.99-.4.27-.86.45-1.38.52-.96.14-1.72.12-2.29-.07-.57-.19-1.01-.5-1.33-.91-.32-.41-.54-.89-.68-1.45-.13-.56-.24-1.12-.32-1.68-.04-.27-.08-.77-.11-1.5-.03-.73-.04-1.56-.01-2.49s.09-1.9.21-2.92c.12-1.01.31-1.96.56-2.83.26-.87.61-1.61,1.04-2.21.44-.6.98-.95,1.64-1.05.49-.07.94-.03,1.36.13.42.16.81.4,1.17.71.36.31.69.68,1.01,1.1.31.42.59.86.84,1.32.25.46.47.92.66,1.37.19.45.36.86.51,1.23.02.03.04.08.07.15.03.07.07.11.13.1.06,0,.1-.05.12-.12.02-.07.04-.13.05-.16.16-.62.29-1.31.4-2.09.11-.78.26-1.52.45-2.23.19-.71.45-1.31.78-1.82.33-.51.79-.81,1.38-.9"/>
  <path class="cls-1" d="M37.63,44.3c-.59.02-1.08-.04-1.49-.18-.62-.21-1.11-.55-1.46-1-.34-.44-.59-.97-.73-1.56-.13-.56-.24-1.13-.33-1.7-.04-.29-.08-.8-.11-1.53-.03-.73-.04-1.58-.01-2.51.02-.94.09-1.93.21-2.94.12-1.03.31-1.99.57-2.88.27-.9.63-1.67,1.09-2.3.48-.66,1.1-1.06,1.83-1.17.54-.08,1.04-.03,1.51.15.45.17.87.43,1.26.76.37.32.73.71,1.05,1.14.32.43.61.89.86,1.36.25.47.48.94.67,1.4.15.35.28.67.41.97.12-.53.23-1.13.32-1.79.11-.79.26-1.55.45-2.26.19-.73.47-1.37.81-1.9.37-.58.91-.92,1.58-1.03.53-.08,1.09.04,1.66.34.54.29,1.08.72,1.61,1.26.52.53,1.03,1.18,1.52,1.93.49.74.94,1.55,1.33,2.4.4.84.74,1.73,1.04,2.62.29.91.51,1.8.64,2.66.07.48.08,1.03.03,1.66-.05.64-.2,1.26-.45,1.86-.26.61-.64,1.15-1.14,1.62-.51.48-1.19.78-2.02.91-1.44.22-2.57-.07-3.36-.86-.76-.77-1.25-1.88-1.47-3.3-.05-.34-.07-.78-.07-1.36,0-.23,0-.46,0-.69-.08.46-.18.9-.29,1.3-.13.48-.3.89-.5,1.22-.23.38-.53.6-.87.66-.29.05-.61-.07-.95-.33-.29-.23-.59-.54-.88-.93-.29-.38-.57-.8-.85-1.26-.01-.02-.02-.03-.03-.05.15.45.29.89.42,1.31.17.57.29,1.05.35,1.43.07.49.05,1-.07,1.5-.12.5-.33.97-.62,1.38-.29.42-.65.78-1.08,1.07-.44.29-.94.49-1.5.57-.33.05-.64.08-.93.09M37.59,27.06c-.1,0-.2.01-.3.03-.58.09-1.06.39-1.45.94-.42.57-.75,1.29-1,2.13-.25.85-.44,1.79-.56,2.78-.12,1-.19,1.97-.21,2.89-.02.92-.02,1.74.01,2.47.03.71.07,1.2.11,1.47.08.55.19,1.11.32,1.66.12.51.33.96.62,1.34.28.36.68.64,1.2.81.52.18,1.24.2,2.15.06.47-.07.9-.23,1.26-.48.37-.25.68-.56.93-.92.25-.36.43-.76.53-1.2.11-.43.13-.86.07-1.28-.05-.35-.16-.8-.33-1.34-.17-.55-.35-1.13-.55-1.72-.2-.59-.39-1.17-.59-1.73-.19-.56-.34-1.03-.45-1.4l.54-.19c.07.17.19.44.35.8.16.36.36.76.59,1.19.23.43.49.88.76,1.32.26.44.54.84.81,1.2.27.35.53.63.78.83.2.16.38.24.51.22.17-.03.32-.15.47-.39.17-.28.32-.64.44-1.07.12-.44.23-.93.32-1.46.09-.53.17-1.05.23-1.56.06-.52.12-.98.17-1.41.06-.44.11-.76.18-.99l.47-1.63.09,1.69c.02.33.02.79,0,1.36-.02.54-.03,1.12-.03,1.78,0,.62-.01,1.21-.01,1.77,0,.54.02.97.07,1.28.2,1.3.64,2.31,1.31,2.98.65.66,1.59.89,2.86.7.71-.11,1.29-.36,1.72-.76.44-.41.77-.88,1-1.42.23-.54.37-1.11.41-1.68.05-.58.04-1.1-.03-1.53-.13-.83-.33-1.69-.62-2.57-.28-.87-.62-1.73-1.01-2.56-.38-.82-.82-1.6-1.29-2.32-.47-.72-.96-1.34-1.45-1.85-.49-.5-.98-.89-1.47-1.15-.46-.25-.9-.34-1.3-.28-.51.08-.9.33-1.18.77-.31.48-.56,1.07-.74,1.74-.19.69-.33,1.43-.44,2.19-.11.79-.24,1.5-.4,2.12-.02.05-.03.1-.05.17-.05.18-.18.3-.36.33-.2.03-.37-.08-.44-.28-.01-.04-.03-.07-.04-.09l-.03-.05c-.15-.36-.32-.77-.51-1.23-.19-.44-.41-.9-.65-1.35-.24-.45-.52-.88-.82-1.29-.3-.4-.62-.75-.97-1.05-.33-.29-.7-.51-1.08-.66-.28-.11-.59-.16-.91-.15"/>
  <path class="cls-3" d="M63.02,26.88c.08.55-.04,1-.38,1.37-.33.36-.76.58-1.28.66-.26.04-.48.02-.68-.06-.19-.08-.37-.17-.53-.27-.16-.1-.34-.19-.52-.27-.18-.08-.4-.1-.64-.07-.4.06-.7.23-.91.5-.21.27-.35.61-.43,1-.08.39-.11.82-.09,1.27.02.46.06.89.13,1.3.13.88.39,1.45.76,1.7.37.25.9.32,1.59.22.17-.03.34-.07.51-.12.17-.06.33-.13.47-.22.14-.09.25-.2.34-.32.08-.12.11-.26.09-.41-.03-.17-.07-.27-.14-.32-.07-.04-.16-.06-.29-.04-.14.02-.29.07-.47.14-.18.07-.36.12-.56.15-.26.04-.49.02-.69-.06-.2-.08-.33-.35-.41-.83-.12-.78.02-1.35.42-1.71.4-.36,1.03-.61,1.9-.74.55-.08,1.11-.1,1.69-.04.58.05,1.11.2,1.61.43.5.24.92.58,1.29,1.02.36.44.6,1.02.71,1.74.2,1.34.24,2.47.12,3.4s-.43,1.71-.91,2.33c-.48.63-1.15,1.12-2.01,1.47-.86.35-1.92.63-3.18.82-2.66.4-4.68.14-6.05-.79-1.37-.93-2.24-2.59-2.6-4.98-.2-1.34-.2-2.66.02-3.97.21-1.31.59-2.5,1.13-3.56.54-1.06,1.22-1.95,2.05-2.66.83-.71,1.75-1.14,2.77-1.29.59-.09,1.18-.09,1.75.01.58.1,1.1.29,1.58.56.48.27.88.63,1.21,1.07.33.44.54.97.63,1.57"/>
  <path class="cls-1" d="M58.78,41.38c-1.88.07-3.38-.27-4.48-1.01-1.43-.97-2.35-2.71-2.72-5.17-.21-1.36-.2-2.73.02-4.06.22-1.33.61-2.56,1.16-3.64.55-1.09,1.27-2.02,2.12-2.75.86-.74,1.85-1.2,2.91-1.36.62-.09,1.24-.09,1.85.02.6.1,1.17.3,1.67.59.51.29.95.67,1.3,1.14.36.48.59,1.05.69,1.7.1.64-.06,1.18-.45,1.6-.38.41-.86.66-1.45.75-.31.05-.59.02-.83-.08-.2-.09-.39-.18-.57-.29-.15-.09-.31-.18-.49-.25-.13-.06-.29-.07-.48-.04-.32.05-.56.18-.72.39-.18.24-.31.53-.38.88-.08.37-.1.77-.08,1.2.02.44.06.87.12,1.27.12.78.34,1.3.63,1.5.31.21.77.26,1.38.17.15-.02.31-.06.46-.11.15-.05.28-.11.4-.19.11-.07.19-.15.26-.24.04-.06.05-.12.04-.2,0-.06-.02-.1-.03-.12-.01,0-.04,0-.07,0-.11.02-.25.06-.4.12-.2.08-.41.14-.63.17-.31.05-.59.02-.84-.08-.3-.12-.49-.46-.58-1.05-.13-.87.04-1.53.51-1.97.44-.41,1.11-.67,2.05-.82.57-.09,1.16-.1,1.76-.05.61.06,1.18.21,1.7.46.53.25,1,.62,1.39,1.1.39.48.65,1.11.77,1.88.21,1.36.25,2.53.12,3.49-.13.98-.46,1.81-.97,2.47-.51.66-1.23,1.19-2.13,1.56-.88.36-1.97.64-3.25.84-.63.09-1.22.15-1.78.17M58.48,23.89c-.2,0-.4.03-.59.06-.96.15-1.85.56-2.63,1.23-.79.68-1.46,1.55-1.98,2.57-.52,1.03-.9,2.2-1.1,3.47-.21,1.27-.21,2.58-.02,3.88.35,2.3,1.18,3.91,2.48,4.79,1.3.88,3.27,1.13,5.85.74,1.23-.19,2.28-.46,3.11-.8.81-.33,1.44-.8,1.89-1.38.45-.58.73-1.32.85-2.2.12-.9.08-2.02-.12-3.32-.1-.66-.32-1.2-.64-1.6-.33-.41-.73-.73-1.19-.94-.46-.22-.97-.36-1.51-.41-.55-.05-1.1-.04-1.62.04-.81.12-1.39.35-1.75.67-.32.3-.43.77-.33,1.46.08.54.22.6.23.6.15.06.33.07.54.04.17-.03.34-.07.49-.14.2-.08.38-.14.54-.16.19-.03.35,0,.48.08.14.09.23.26.27.52.03.23-.01.43-.14.62-.11.15-.25.29-.42.4-.16.11-.34.19-.53.25-.18.06-.37.11-.56.14-.75.11-1.36.03-1.79-.26-.45-.3-.74-.92-.88-1.89-.06-.42-.11-.87-.13-1.33-.02-.48,0-.93.09-1.35.09-.43.25-.81.49-1.12.25-.33.62-.54,1.09-.61.3-.04.56-.02.8.09.2.09.38.19.55.29.15.09.32.18.49.25.14.06.32.07.52.04.46-.07.82-.26,1.11-.57.27-.3.37-.67.3-1.13-.08-.56-.28-1.04-.58-1.44-.31-.41-.68-.74-1.12-.99-.45-.25-.95-.43-1.49-.52-.35-.06-.71-.08-1.07-.07"/>
</svg>