<?xml version="1.0" encoding="UTF-8"?>
<svg id="Camada_1" xmlns="http://www.w3.org/2000/svg" viewBox="0 0 85.04 85.04">
  <defs>
    <style>
      .cls-1 {
        fill: #fff;
      }

      .cls-2 {
        fill: #e75195;
      }

      .cls-3 {
        fill: #f29dc3;
      }
    </style>
  </defs>
  <path class="cls-1" d="M52.67,61.83c-1.78,1.09-4.09,1.4-5.94.58l-8.98-4-7.08,2.58c-5.21,1.9-11-.8-12.9-6.01l-5.7-15.65c-.92-2.52-.8-5.26.33-7.69,1.13-2.44,3.15-4.28,5.68-5.21l35.64-12.98c5.21-1.9,11,.8,12.9,6.01l5.7,15.65c.92,2.53.8,5.26-.34,7.69-1.13,2.44-3.15,4.28-5.68,5.2l-7.08,2.58-4.3,8.83c-.48.99-1.29,1.81-2.26,2.4M20.03,33.46c-.47.29-.85.71-1.09,1.23-.32.69-.36,1.47-.09,2.18l5.7,15.65c.54,1.48,2.18,2.24,3.66,1.71l9.82-3.58,10.81,4.81,5.18-10.64,9.82-3.58c.72-.26,1.29-.78,1.61-1.48.32-.69.36-1.47.1-2.19l-5.7-15.65c-.54-1.48-2.18-2.25-3.66-1.71l-35.64,12.98c-.18.07-.36.15-.52.25"/>
  <path class="cls-3" d="M54.95,16.84l-35.64,12.98c-3.35,1.22-5.08,4.93-3.86,8.28l5.7,15.65c1.22,3.35,4.93,5.08,8.28,3.86l8.45-3.08,4.8,2.14,5.5,2.45c1.05.47,2.98-.24,3.49-1.27l2.64-5.42,2.3-4.73,8.45-3.08c3.35-1.22,5.08-4.93,3.86-8.28l-5.7-15.65c-1.22-3.35-4.93-5.08-8.28-3.86"/>
  <path class="cls-2" d="M46.65,27.47c-2.71-.39-5.59,1.07-6.87,3.45-2.51-1.01-5.64-.29-7.48,1.75-1.6,1.77-2.1,4.22-1.31,6.41.23.62.56,1.21.98,1.74,2.45,3.78,10.67,7.04,13.57,5.99,2.91-1.06,7.13-8.83,6.58-13.38-.01-.6-.13-1.26-.36-1.88-.79-2.18-2.75-3.75-5.11-4.08"/>
</svg>