<?xml version="1.0" encoding="UTF-8"?>
<svg id="Camada_1" xmlns="http://www.w3.org/2000/svg" viewBox="0 0 152.92 85.04">
  <defs>
    <style>
      .cls-1 {
        fill: #f29ec4;
      }

      .cls-2 {
        fill: #fff;
      }

      .cls-3 {
        fill: #e6007b;
      }
    </style>
  </defs>
  <g>
    <g>
      <path class="cls-2" d="M58.97,66.07c.06-.01.13-.12.19-.26.51-1.67-.12-7.77-.65-9.54-.64-2.17-2.55-2.38-3-3.92-.28-.93-.17-1.79,1.02-2.13.82-.23,2.08-.44,2.95-.71.85-.26,1.31-.57,2.13-.83.78-.25,1.4.27,1.72,1.33.55,1.83-.8,2.49-.48,6.93.41,5.89.29,7.81-.44,10.09-.27.87-.86,1.81-1.34,2.25-.92.85-2.92,1.6-3.57,1.78-1.08.31-1.7.23-2.34-.19-.08-.06-.82-.61-1.55-1.35-3.23-3.19-5.54-7.02-7.95-10.83-.42-.66-1.1-1.57-2.22-2.49-.47-.38-1.23-.88-1.39-1.43-.26-.96.42-1.36,1.95-1.63,1-.18,1.98-.23,3.75-.6,1.77-.37,3.06-.81,4.16-1.09,1.07-.27,1.83.29,2.15,1.39.46,1.56-1.03,2.46-.34,4.83.36,1.22,4.1,7.74,4.94,8.3.12.08.23.12.3.11Z"/>
      <path class="cls-2" d="M59.41,76.88c-.1.03-.18.05-.22.07-2.74.79-5.23.46-7.39-.96l-.2-.13-.19-.14c-.95-.72-1.68-1.4-2.13-1.86-3.47-3.44-5.91-7.31-8.26-11.04l-.53-.85c-.23-.36-.53-.7-.92-1.02-.04-.03-.08-.06-.13-.1-.85-.66-2.63-2.02-3.29-4.47-.55-2.01-.26-4.04.81-5.72,1.79-2.81,4.84-3.35,5.99-3.55.49-.09.94-.15,1.37-.2.66-.09,1.28-.17,2.19-.36.92-.19,1.7-.42,2.46-.63.48-.14.97-.28,1.47-.4.78-.19,1.55-.27,2.3-.25.64-.4,1.35-.72,2.11-.93.56-.16,1.14-.29,1.7-.41.4-.09.91-.2,1.14-.27.08-.03.19-.07.44-.18.39-.17.92-.4,1.61-.62.02,0,.04-.01.05-.02,1.86-.58,3.82-.4,5.52.49,1.3.68,3.02,2.09,3.87,4.93.73,2.43.26,4.33-.01,5.46-.18.74-.33,1.33-.22,2.77.41,5.87.4,8.89-.7,12.37-.57,1.85-1.74,3.73-3.04,4.92-1.96,1.81-4.92,2.82-5.81,3.1Z"/>
    </g>
    <g>
      <path class="cls-2" d="M74.39,60.54c.27.92.4,1.34.62,2.09.3,1.01.57,1.14,1.11,1.28.54.13,1.1-.02,1.24.45.11.36-.2.7-1.23,1.04-1.01.33-2.3.73-3.19,1-1.23.37-2.36.73-3.72,1.14-.8.24-1.14.21-1.18.03-.06-.25.53-.63.77-.86.65-.66.57-1.2.44-1.64-.24-.87-.39-1.38-.74-2.58-.27-.93-.98-1.38-1.42-1.57-.42-.19-.89-.32-1.09-1-.38-1.28.85-1.95,2.09-3.42,1.27-1.49,2.38-3.19,2.94-3.54.69-.44,1.21-.26,1.5.69.42,1.38,1.02,4.02,1.87,6.89ZM66.79,43.15c1.47-.48,3.12.71,3.79,2.94.92,3.02-.48,6.47-2.63,7.35-1.56.64-2.67-.32-3.24-2.23-.92-3.07-.04-7.37,2.09-8.06Z"/>
      <path class="cls-2" d="M75.87,71.91c-.43.13-.84.26-1.18.36-.5.15-.99.3-1.48.45-.72.22-1.46.45-2.27.69-.83.25-3.37,1-5.87-.42-1.48-.84-2.56-2.26-2.98-3.9-.23-.92-.38-2.35.27-3.92-1.07-.92-1.82-2.09-2.24-3.5-.63-2.13-.28-3.92.37-5.32-.64-.87-1.22-1.98-1.64-3.38-.75-2.51-.82-5.46-.19-8.1.91-3.79,3.18-6.53,6.24-7.53h0c2.14-.7,4.44-.5,6.48.57,2.39,1.24,4.19,3.52,5.07,6.41.48,1.58.63,3.23.49,4.82.57.7,1.09,1.6,1.44,2.76.21.7.44,1.57.7,2.57.34,1.3.72,2.78,1.18,4.33h0v.03c2.02,1.18,2.76,3.08,2.97,3.81.89,3.01-.36,6.98-5.18,8.58-.69.23-1.46.47-2.17.69ZM64.94,48.18c.27.29.75.62,1.36.81.44-.46.91-.86,1.47-1.21.09-.05.17-.11.26-.16-.82-.2-1.68-.15-2.4.14-.31.13-.53.28-.69.41Z"/>
    </g>
    <g>
      <path class="cls-2" d="M74.98,49.34c-.34-1.13-1.15-1.37-1.51-1.48-.4-.13-.74-.27-.95-.97-.36-1.19.71-2.12,1.95-3.54,1.65-1.89,2.21-2.81,3.04-3.11.56-.2,1.25-.14,1.51.74.32,1.03.63,3.41,1.71,6.91.02.06.03.09.05.15.17.56.31.57.42.48.27-.21.7-2.99,3.1-4.68,3.35-2.36,5.75-.83,7.29,3.71,1.56,4.61,1.57,12.38-3.92,14.25-1.38.47-2.9.63-3.78.93-.85.29-1.47.59-1.92.86-.65.39-1.04.67-1.53.82-.65.19-1.05.07-1.15-.24-.18-.59-.06-.89-.78-3.28-1.16-3.85-2.33-7.7-3.5-11.55ZM82.94,54.5c1.44,4.67,2.11,4.65,2.83,4.27.81-.42,1.52-2.36.35-6.1-1.13-3.61-2.12-3.92-3-3.21-.75.6-.99,2.4-.17,5.04Z"/>
      <path class="cls-2" d="M82.27,70.24s-.08.03-.12.04c-3.31.97-7.5-.22-8.74-4.36-.17-.57-.25-1.03-.3-1.33-.05-.3-.12-.71-.48-1.93-1-3.3-2-6.61-3.01-9.91-1.73-1.14-2.56-2.76-2.96-4.07-1.32-4.32,1.42-7.37,2.73-8.83.15-.16.3-.34.46-.52.39-.45.72-.84,1-1.18,1.18-1.42,2.4-2.88,4.58-3.67,1.94-.7,3.99-.6,5.77.29,1.11.56,2.05,1.39,2.73,2.42,2.48-.86,4.58-.6,6.07-.11,3.35,1.09,5.83,3.96,7.37,8.53,1.21,3.57,1.54,7.65.91,11.18-.95,5.33-4.1,9.27-8.67,10.82-1.13.39-2.19.6-3.04.77-.27.05-.63.13-.78.17-.46.16-.68.28-.73.31-.12.07-.22.14-.32.2-.59.36-1.38.85-2.48,1.19ZM85.85,68.52s0,0,0,0c0,0,0,0,0,0ZM83.17,55.23c1.06.13,2.16-.06,3.06-.53.06-.37.1-.79.12-1.25l-3.4,1.05c.07.24.15.49.22.73ZM82.95,54.5l3.4-1.05c0-.17,0-.35,0-.53-.26-.05-.52-.09-.79-.11-.19.19-.4.38-.63.56-.61.47-1.31.82-2.01,1.04,0,.03.02.06.03.09ZM69.12,51.12h0s0,0,0,0h0Z"/>
    </g>
    <g>
      <path class="cls-2" d="M100.35,45.26c-.29.15-.38.28-.28.59.37,1.17,1.86,2.64,4.01,2.01,1.87-.55,2.55-2.09,3.12-2.92.17-.29.38-.48.57-.52.38-.08.78.39,1.11,1.46,1.19,3.88-.07,9.27-4.22,10.74-5.22,1.84-10.14-4.47-11.5-8.72-1.6-5.02,0-10.24,5.29-12.12,4.7-1.66,6.75-.22,7.54,2.17.53,1.62.17,2.77-.58,3.66-1.31,1.55-3.94,3.05-5.06,3.66ZM98.51,38.02c-1.09.47-1.41,1.63-.97,2.99.27.84.67,1.26,1.17,1.03.56-.25,1.46-1.3,1.56-2.54.02-.35,0-.65-.09-.89-.22-.67-.88-.93-1.67-.59Z"/>
      <path class="cls-2" d="M106.25,62.52c-3,.93-6.15.64-9.14-.85-4.91-2.44-8.45-7.75-9.78-11.93-2.74-8.6,1.08-16.91,9.08-19.74,3.99-1.42,7.46-1.42,10.31-.02,1.69.83,3.95,2.56,5.09,6.05.45,1.37.62,2.72.54,4.02.29.26.55.55.8.86.68.86,1.2,1.9,1.59,3.16,2.06,6.72-.43,15.62-8.04,18.3-.15.05-.29.1-.44.15Z"/>
    </g>
    <g>
      <path class="cls-2" d="M118.89,34.21c1.26.97,1.86,2.14,2.3,3.39.31.89-.21,1.21-.98.98-.66-.19-1.43-.9-2.15-1.47-1.22-.94-2.57-1.98-4.2-2.09-.88-.06-1.14.25-1.01.61.22.63,1.25.7,4.23,2.26,2.9,1.52,6.23,3.7,7.45,7.24,1.07,3.1-.78,6.19-5.18,7.43-1.52.43-4.25.56-6.01-.69-.84-.61-2.04-2.64-2.9-5.3-.4-1.23-.26-2.24.64-2.37.38-.06.9.3,1.45.75,1.32,1.06,3.07,2.99,4.94,2.75.74-.1.92-.69.68-1.41-.46-1.39-2.49-1.58-5.02-2.99-2.01-1.12-4.26-2.46-5.47-6.15-1.32-4.01,1.73-4.19,5.67-4.22,1.79-.02,4.45.41,5.58,1.27Z"/>
      <path class="cls-2" d="M121.46,58.32c-.16.05-.31.09-.47.14-2.97.83-7.68.91-11.21-1.6l-.04-.03c-2.74-1.99-4.39-6.09-5.13-8.36-.53-1.62-.64-3.22-.35-4.66-.93-1.25-1.79-2.8-2.42-4.74-1.34-4.06-.25-6.82.9-8.42,2.7-3.76,7.41-3.8,10.53-3.83,1,0,6.15.07,9.36,2.54h0c2.67,2.06,3.76,4.55,4.35,6.24.29.84.43,1.69.43,2.52,1.2,1.4,2.22,3.06,2.9,5.02,1.02,2.95.8,6.06-.62,8.77-1.56,2.98-4.47,5.24-8.22,6.41Z"/>
    </g>
  </g>
  <g>
    <path class="cls-2" d="M52.02,47.65c-.33.1-.68.18-1.04.23-.94.14-1.77.05-2.41-.08-1.04.42-2.7,1-4.92.97-6.81-.1-12.89-5.38-14.44-12.56h0c-.73-3.4.02-6.7,2.13-9.3,2.25-2.79,5.9-4.44,9.75-4.44,1,0,1.76.07,2.31.13.38-.13.88-.27,1.46-.34,2.37-.31,4.57.58,6.04,2.42.78.98,1.17,2.01,1.45,2.76.04.11.09.23.13.35.28.71.47,1.14.61,1.45.07.16.15.34.22.52,1.03.88,1.77,2.11,2.06,3.58.29,1.49.06,2.62-.06,3.16v.03c0,.09.02.29.09.63.1.52.23.92.37,1.38.16.5.34,1.06.47,1.73.47,2.37-.28,4.06-.99,5.06-.78,1.11-1.91,1.91-3.23,2.32Z"/>
    <path class="cls-2" d="M58.82,46.4c-.12.04-.25.07-.38.11-3.34.89-5.73.03-7.14-.85-1.45-.9-3.33-2.73-4.04-6.32-.18-.89-.29-1.87-.38-2.71-1.01-.91-1.66-2.06-1.94-3.46-.52-2.64.71-6.05,4.65-7.3,1.18-.38,1.74-.65,2.18-.88.42-.21.95-.47,1.63-.67.87-.25,1.74-.32,2.58-.21.89-.42,1.58-.81,2.1-1.11.55-.31.99-.56,1.53-.77,1.75-.66,3.58-.56,5.15.3.92.5,2.55,1.73,3.09,4.3.15.7.19,1.28.23,1.74.04.46.07.86.22,1.61l.15.73c1.12.86,1.92,2.12,2.23,3.58.9,4.22-1.61,8.52-5.82,10.01-1.11.39-2.23.56-3.3.52-.75.54-1.66,1.03-2.76,1.38Z"/>
    <path class="cls-2" d="M68.59,42.94c-1.6.5-3.3.35-4.73-.42-1.57-.84-2.69-2.36-3.07-4.16-.39-1.81.07-3.29.42-4.14l-.26-1.23c-.95-.84-1.61-1.97-1.88-3.27-.77-3.63,1.82-5.92,2.68-6.68.18-.16.35-.31.48-.44.41-.41.63-.67.83-.89.46-.52,1.23-1.4,2.58-1.99.71-.31,1.42-.49,2.13-.54.6-.51,1.31-.98,2.15-1.36,1.2-.54,2.3-.78,3.28-.84.75-.72,1.7-1.43,2.89-1.96h0c3.23-1.45,5.7-.86,7.21-.11,2.28,1.13,3.79,3.27,4.51,6.36.24,1.05.41,2.18.55,3.18h0c1.25,1.04,1.81,2.35,2.06,3.41.73,3.13-.95,6.24-4.09,7.55-.44.18-.87.34-1.26.49-.29.11-.58.22-.75.29-.28.12-.43.19-.67.31-.3.15-.68.34-1.28.6-.39.17-.79.3-1.2.39-.38.25-.78.48-1.22.67-.49.21-.92.38-1.26.51-.23.09-.43.16-.57.23-.27.12-.42.2-.65.31-.31.16-.7.36-1.34.63-.38.17-.78.29-1.17.38-.36.24-.76.45-1.18.63-.5.21-.96.38-1.37.53-.23.08-.46.17-.67.25-.31.13-.62.27-.94.41-.51.23-1.09.49-1.74.74-.15.06-.31.11-.46.16Z"/>
    <path class="cls-2" d="M106.05,29.45c-.37.11-.75.2-1.14.26-.34.05-.71.09-1.07.14-.33.04-.71.08-.89.12-.29.06-.41.09-.69.16-.27.07-.64.17-1.19.3-.39.09-.78.14-1.16.16-.37.17-.75.31-1.16.42-.43.12-.82.2-1.13.27-.26.06-.48.11-.63.15-.29.09-.42.13-.68.23-.27.1-.65.25-1.21.43-.37.12-.74.21-1.11.26-.35.19-.72.36-1.11.5-.42.15-.82.27-1.17.38-.29.09-.57.18-.75.25-.35.13-.73.3-1.18.49-.42.18-.86.37-1.32.55-1.71.68-3.59.61-5.16-.21-1.57-.82-2.71-2.31-3.13-4.1-.42-1.81,0-3.31.34-4.17l-.32-1.37c-.97-.83-1.65-1.94-1.95-3.24-.86-3.68,1.77-6.04,2.63-6.81.17-.16.34-.3.47-.43.38-.39.61-.64.81-.87.5-.56,1.33-1.5,2.81-2.07.77-.3,1.55-.45,2.3-.46.67-.48,1.46-.92,2.38-1.22,1.21-.4,2.42-.55,3.58-.45.87-.62,1.97-1.17,3.31-1.48,3.96-.89,9.21.49,10.93,7.34.27,1.06.46,2.24.62,3.19.02.11.04.23.06.35.8.65,1.74,1.73,2.17,3.44.43,1.71.13,3.51-.83,4.95-.81,1.21-2.01,2.08-3.46,2.53Z"/>
    <path class="cls-2" d="M112.07,33.95c-.81.25-1.55.35-2.15.38-4.21.23-7.85-2.39-8.85-6.36-.56-2.22-.19-4.49,1.01-6.25-.96-1.33-1.94-2.63-2.38-3.11-.79-.63-2.23-1.86-2.8-4.08-.45-1.76-.13-3.61.86-5.06,1.02-1.49,2.61-2.43,4.48-2.67.7-.09,1.26-.11,1.75-.14.23-.01.46-.02.72-.04.23-.02.46-.04.69-.06.61-.06,1.31-.13,2.09-.15.66-.01,1.3.06,1.9.21.57-.13,1.18-.19,1.79-.15.61.03,1.2.11,1.72.17.2.03.4.05.58.07.2.02.35.03.49.03.29.01.69.03,1.17.1,2.76.38,4.92,2.25,5.62,4.9.48,1.81.22,3.51-.77,5.07-.17,1.5-.42,3.31-.58,4.19-.06.34-.11.68-.17,1.02-.37,2.24-.75,4.55-1.61,6.57-1.42,3.33-3.67,4.75-5.57,5.35ZM99.89,18.77h0s0,0,0,0Z"/>
  </g>
  <g>
    <path class="cls-3" d="M51.1,44.64c-.17.05-.36.1-.57.13-.86.12-1.61-.1-2.02-.23l-.11-.03s-.03,0-.04-.01c-.18.06-.41.16-.57.22l-.04.02c-.87.37-2.18.92-4.07.9-5.28-.08-10.18-4.41-11.41-10.08h0c-.53-2.45,0-4.81,1.5-6.66,1.66-2.05,4.39-3.28,7.3-3.27.96,0,1.66.08,2.17.13.21.02.46.05.59.05.04-.02.08-.03.12-.05.28-.12.71-.3,1.29-.37,2.81-.37,3.75,2.12,4.15,3.18.05.13.1.26.15.39.31.78.51,1.24.66,1.58.19.43.35.78.43,1.22,0,0,0,0,0,0,.83.41,1.44,1.19,1.64,2.2.17.86.04,1.49-.05,1.91-.07.36-.15.72.08,1.91.14.7.3,1.22.46,1.72.14.44.28.89.38,1.39.2,1.03.04,1.91-.47,2.64-.28.4-.77.88-1.59,1.13ZM47.56,39.92c.15-.03.31-.06.48-.08-.1-.35-.19-.74-.28-1.19-.19-.97-.25-1.7-.24-2.29-.19.03-.37.06-.56.09.21.45.39.99.52,1.64.11.57.19,1.21.09,1.83ZM36.81,34.57h0c.37,1.71,1.37,3.46,2.78,4.71-.96-1.25-1.71-2.84-2.05-4.66-.2-1.07-.18-2.11.03-3.04-.07.07-.13.14-.19.21-.61.76-.81,1.69-.57,2.77ZM42.18,32.37s0,0-.01,0c0,0,0,0,0,0,.01,0,.03-.01.04-.02-.01,0-.02,0-.03,0Z"/>
    <path class="cls-3" d="M57.88,43.4c-.08.03-.17.05-.25.07-1.81.48-3.38.32-4.67-.48-1.34-.83-2.22-2.27-2.62-4.27-.2-.98-.31-2.13-.4-3.05-.03-.27-.06-.58-.08-.79-.5-.25-1.54-.82-1.84-2.32-.26-1.32.26-2.98,2.52-3.69,1.42-.45,2.13-.81,2.64-1.07.35-.18.69-.34,1.09-.46.73-.21,1.47-.18,2.11.09.19-.12.4-.23.63-.34,1.15-.52,2-1.01,2.62-1.36.47-.27.78-.44,1.1-.56.87-.34,1.77-.29,2.53.12.55.3,1.26.92,1.52,2.19.11.5.14.92.17,1.33.04.5.08,1.07.28,2.02l.45,2.15c.19.05.37.12.54.22.7.38,1.2,1.09,1.39,1.95.57,2.68-1.06,5.42-3.79,6.39-1.32.46-2.38.43-3.22.18-.63.63-1.52,1.3-2.74,1.68ZM62.05,37.34s0,0,0,0c0,0,0,0,0,0ZM61.97,37.25c.07,0,.18-.03.33-.09.06-.02.12-.05.18-.08-.29-.25-.53-.56-.71-.91.02.31,0,.59-.04.87.08.06.16.13.24.2ZM54.79,37.3c.03.18.06.35.09.51.16.83.41,1.17.52,1.24.05.03.19.06.41.05-.5-.52-.81-1.16-1.02-1.8ZM57.14,36.42h0ZM60.44,30.58c.03.05.06.11.09.16-.01-.06-.02-.13-.03-.19-.02,0-.04.02-.06.03ZM53.94,32.55s0,.02.01.03c0-.01,0-.02,0-.03,0,0,0,0-.01,0Z"/>
    <path class="cls-3" d="M67.64,39.94c-.8.25-1.61.18-2.3-.19-.76-.41-1.29-1.14-1.49-2.05-.26-1.21.2-2.19.42-2.65.01-.03.03-.06.04-.09.14-.4.12-.69.04-1.04l-.6-2.8c-1.13-.53-1.5-1.48-1.62-2.06-.39-1.84.91-2.98,1.68-3.67.21-.19.43-.38.63-.59.47-.48.76-.8.96-1.04.38-.43.76-.87,1.47-1.18.72-.32,1.44-.38,2.08-.23.56-.63,1.29-1.27,2.23-1.7,1.17-.53,2.28-.7,3.31-.5.63-.79,1.55-1.71,2.85-2.3,1.69-.76,3.21-.82,4.53-.17,1.41.7,2.34,2.09,2.85,4.26.21.92.37,1.98.5,2.92.08.57.17,1.16.23,1.46.54.22,1.54.78,1.88,2.21.32,1.36-.25,3.11-2.24,3.94-.38.16-.77.3-1.14.44-.34.12-.65.24-.89.35-.37.16-.57.26-.83.39-.28.14-.6.3-1.13.53-.4.17-.81.27-1.22.28-.34.31-.74.58-1.21.79-.41.18-.78.32-1.11.44-.27.1-.5.19-.72.29-.35.15-.56.26-.81.38-.29.15-.62.31-1.17.55-.39.17-.79.26-1.18.28-.32.29-.7.54-1.15.73-.43.18-.85.34-1.22.47-.27.1-.54.2-.79.3-.34.14-.68.29-1.02.45-.51.23-1.03.46-1.61.69-.08.03-.17.06-.25.09ZM69.05,34.28s0,.02,0,.04h.01s-.01-.03-.02-.04ZM75.27,31.56s0,.05,0,.08c0,0,.02,0,.03-.01-.01-.02-.02-.04-.03-.07ZM64.31,34.98s0,.01,0,.02c0,0,0-.01,0-.02ZM81.49,28.79s0,.09.01.13c.02,0,.03-.01.05-.02-.02-.04-.04-.07-.06-.11ZM69.96,28.3,67.58,28.24s.06.09.09.13c0-.07,0-.14,0-.21-.03.03-.05.05-.08.08ZM73.08,24.91c.32.26.58.57.8.9-.03-.33-.04-.64,0-.94-.05-.03-.1-.06-.15-.09-.02-.01-.05-.03-.08-.05-.06,0-.24.03-.53.16-.01,0-.02.01-.04.02ZM79.25,22.11c.48.38.83.88,1.08,1.41-.03-.18-.07-.34-.11-.5-.15-.65-.31-.97-.39-1.11-.11.02-.29.07-.57.19h0s0,0-.01,0Z"/>
    <path class="cls-3" d="M105.12,26.45c-.21.06-.43.12-.68.15-.32.05-.65.09-.98.13-.42.05-.81.1-1.09.15-.42.08-.63.14-.93.22-.26.07-.58.16-1.05.26-.41.09-.82.11-1.2.05-.34.23-.76.42-1.25.55-.36.1-.69.17-1,.24-.31.07-.58.13-.83.2-.4.12-.61.2-.89.31-.27.1-.58.22-1.07.38-.39.13-.78.18-1.16.16-.32.26-.7.47-1.14.62-.35.13-.71.24-1.05.35-.34.11-.66.21-.92.3-.42.16-.86.35-1.32.55-.4.17-.81.35-1.24.52-.87.35-1.77.32-2.54-.08-.77-.4-1.31-1.12-1.52-2.02-.28-1.21.15-2.2.36-2.67.01-.03.03-.06.04-.09.13-.42.11-.71.02-1.09l-.68-2.9c-1.15-.52-1.54-1.47-1.67-2.04-.44-1.87.88-3.05,1.67-3.75.2-.18.41-.37.6-.56.44-.45.72-.76.93-.99.4-.46.82-.93,1.59-1.22.76-.29,1.5-.33,2.16-.12.59-.59,1.36-1.18,2.38-1.51,1.22-.4,2.4-.43,3.48-.08.7-.69,1.72-1.45,3.12-1.77h0c1.68-.38,5.76-.65,7.19,5.04.23.93.41,1.99.56,2.93.1.59.2,1.2.27,1.49.03.13.08.22.1.27.04.02.08.05.12.07.47.27,1.43.82,1.79,2.23.22.86.08,1.73-.39,2.43-.3.44-.83.98-1.77,1.27ZM101.15,22.4s.02,0,.02,0c0-.02-.02-.04-.03-.06,0,.02,0,.04,0,.06ZM88.38,26.02s0,.08,0,.11c.02,0,.03-.01.05-.02-.02-.03-.03-.07-.05-.1ZM94.71,23.99s.02,0,.03,0c-.01-.03-.03-.06-.04-.09,0,.04,0,.07,0,.1ZM83.65,26.75s0,.01,0,.02c0,0,0-.01,0-.02ZM97.89,17.74h0ZM99.03,15.19c.29.31.53.66.72,1.02-.23-.65-.46-.93-.72-1.02ZM86.74,19.8c.06.08.12.17.17.25,0-.14,0-.28,0-.42,0,0-.01.01-.02.02-.05.05-.1.1-.14.14ZM92.42,16.87c.34.3.62.66.84,1.04,0-.22,0-.42.02-.63-.16-.1-.29-.19-.37-.25-.04-.03-.08-.06-.13-.1-.06-.04-.14-.09-.36-.06Z"/>
    <path class="cls-3" d="M111.17,30.95c-.43.13-.91.22-1.43.25-2.69.15-5-1.5-5.64-3.99-.35-1.37-.13-2.74.61-3.76.4-.55.93-.97,1.53-1.24-.1-.14-.2-.28-.3-.43-1.47-2.13-3.58-4.98-4.13-5.48l-.06-.05c-.59-.47-1.49-1.18-1.82-2.48-.23-.9-.08-1.79.41-2.51.5-.73,1.31-1.2,2.27-1.32.58-.07,1.05-.09,1.51-.12.25-.01.52-.02.81-.05.25-.02.5-.04.76-.07.56-.05,1.19-.12,1.86-.13.69-.02,1.3.12,1.82.4.48-.26,1.04-.38,1.63-.35.49.03,1.02.09,1.48.15.23.03.46.06.67.08.27.03.47.04.66.04.27.01.55.03.89.07,1.5.2,2.63,1.17,3,2.59.41,1.55-.29,2.49-.6,2.89-.11.14-.17.23-.22.7-.18,1.64-.45,3.55-.59,4.32-.06.35-.12.7-.17,1.05-.62,3.74-1.37,8.3-4.98,9.42ZM110.9,20.72s.01.02.02.03c.2.27.38.51.54.75.04-.23.08-.47.12-.72-.08,0-.15,0-.21,0-.17,0-.33-.03-.48-.06ZM106.22,14.3c.05.06.09.12.14.18,0-.06-.01-.13-.02-.19-.04,0-.08,0-.12.01Z"/>
  </g>
  <g>
    <path class="cls-1" d="M34.02,33.74c-.94-4.19,2.53-7.14,6.53-7.13,1.6,0,2.35.24,3.03.17.57-.06.88-.36,1.44-.43,1.12-.15,1.36.88,1.84,2.12.66,1.67.9,2.03.98,2.4.11.59-.19.9-.58.96-.74.11-1.27-.67-2.04-1.42-1.28-1.23-2.53-1.74-3.54-1.69-2.09.1-2.79,2.08-2.4,4.16.68,3.63,3.43,5.89,4.88,5.82.28-.01.45-.13.54-.33.12-.24.04-.79-.03-1.16-.31-1.6-.97-1.92-1.43-2.25-.52-.37-.92-.44-1.04-1.05-.09-.5.22-.83,1.02-.87.78-.04,1.62-.05,2.3-.12.93-.1,1.96-.3,2.97-.47.61-.1.9.2.98.64.21,1.04-.49,1.14.03,3.81.29,1.46.68,2.26.85,3.11.13.65-.03,1.06-.68,1.16-.32.05-.67-.05-1.01-.15-.32-.1-.65-.21-.88-.18-.46.05-.9.22-1.41.44-.76.32-1.73.7-3.17.73-4.49.09-8.27-4.24-9.18-8.26Z"/>
    <path class="cls-1" d="M63.21,33.53c.07.35.35.77.85.58.15-.06.27-.15.42-.21.17-.07.31.16.37.41.34,1.59-.71,3.16-2.3,3.72-1.33.47-2.14.14-2.65-.37-.09-.09-.21-.21-.38-.16-.07.02-.16.14-.3.35-.42.57-1.2,1.66-2.71,2.06-2.75.74-3.97-.72-4.42-2.97-.28-1.42-.39-3.46-.5-4.03-.12-.61-.38-.96-.82-1.23-.5-.3-.87-.32-.99-.91-.09-.48.22-.8.95-1.04,2.42-.77,3.1-1.34,3.67-1.51.7-.2.95.25,1.04.67.36,1.77.29,2.91.82,5.49.35,1.71.89,2.32,1.86,2.03.42-.13,1.04-.61.76-1.94-.23-1.1-.34-1.66-.57-2.76-.22-1.07-.36-1.42-.78-1.76-.42-.33-.82-.3-.96-.93-.1-.48.18-.83.89-1.15,1.97-.9,3.18-1.71,3.59-1.87.66-.25.88.21.97.63.18.86.06,1.5.45,3.35.3,1.42.45,2.13.75,3.54Z"/>
    <path class="cls-1" d="M77.79,18.67c2.51-1.13,3.63.2,4.17,2.5.34,1.45.54,3.53.74,4.4.15.63.46,1.18.89,1.4.48.24.84.19.99.79.11.49-.15.97-.88,1.27-.69.29-1.47.55-2.05.79-.86.37-1.03.52-1.98.93-.53.23-.83-.03-.93-.45-.14-.6-.07-1.14-.04-1.5.07-.72-.21-2.78-.57-4.34-.4-1.74-.97-2.3-1.77-1.93-.28.12-.95.75-.64,2.1.33,1.45.49,2.18.82,3.63.14.62.3,1.22.7,1.45.43.25.73.22.87.82.11.49-.16.97-.88,1.29-.68.3-1.26.48-1.83.73-.86.38-1.03.53-1.97.94-.53.23-.83-.03-.92-.45-.13-.6-.06-1.14-.03-1.5.08-.71-.19-2.76-.53-4.32-.38-1.73-.97-2.27-1.77-1.92-.28.12-.94.7-.64,2.05.28,1.29.42,1.94.71,3.23.24,1.09.34,1.45.74,1.77.4.31.78.25.92.89.11.49-.08.93-.78,1.23-.69.29-1.39.51-1.99.76-.84.35-1.66.75-2.59,1.12-.54.21-.83-.06-.92-.48-.13-.6.25-1.12.37-1.46.35-.98.25-1.75.13-2.33-.28-1.31-.42-1.97-.7-3.29-.17-.79-.65-.96-.89-1.03-.2-.06-.53-.1-.62-.54-.15-.71.75-1.18,1.7-2.14,1.22-1.23,1.31-1.55,1.71-1.72.53-.23.87-.14,1.23.53.12.24.25.42.4.36.28-.12,1.05-2.07,2.72-2.82,1.14-.52,1.94-.44,2.58-.09.32.17.45.34.6.27.27-.12,1.12-2.13,2.98-2.97Z"/>
    <path class="cls-1" d="M97.23,11.65c2.63-.59,3.85,1,4.44,3.35.37,1.48.61,3.53.83,4.42.16.64.5,1.25.96,1.56.51.35.9.4,1.06,1.01.13.5-.15.88-.93,1-.73.11-1.56.18-2.17.29-.9.17-1.09.28-2.07.5-.56.13-.87-.18-.98-.61-.15-.61-.09-1.13-.06-1.48.07-.69-.26-2.75-.65-4.34-.44-1.77-1.05-2.42-1.88-2.21-.29.07-.98.58-.64,1.96.36,1.48.54,2.21.91,3.69.16.63.33,1.24.75,1.54.45.31.77.33.92.94.12.5-.15.92-.9,1.13-.71.19-1.3.29-1.89.46-.88.26-1.06.39-2.02.7-.55.18-.85-.11-.96-.54-.15-.61-.09-1.14-.05-1.49.07-.7-.25-2.77-.63-4.35-.43-1.76-1.04-2.36-1.86-2.07-.28.1-.95.64-.62,2.01.31,1.31.47,1.97.79,3.29.26,1.1.38,1.48.79,1.82.41.34.8.3.96.96.12.5-.06.92-.78,1.18-.7.25-1.41.44-2.01.66-.84.32-1.67.71-2.6,1.09-.54.22-.84-.05-.94-.48-.14-.6.23-1.15.33-1.49.33-.99.22-1.78.08-2.36-.31-1.34-.47-2-.79-3.34-.19-.81-.68-.97-.92-1.05-.2-.06-.54-.1-.64-.54-.17-.72.73-1.21,1.66-2.16,1.2-1.22,1.3-1.52,1.7-1.68.53-.21.89-.09,1.26.6.13.25.27.44.42.38.28-.1,1.04-2.01,2.74-2.57,1.17-.39,2.01-.2,2.67.24.33.22.47.4.62.35.28-.08,1.14-1.94,3.08-2.38Z"/>
    <path class="cls-1" d="M113.52,18.76c-.36,2.88-.78,8.45-4.42,8.8-1.45.14-2.89-.74-3.27-2.25-.33-1.3.26-2.36,1.32-2.44.52-.04.93.17,1.27.41.51.35.89.79,1.31.78.29,0,.56-.24.45-.68-.2-.78-1.63-2.48-2.84-4.25-.86-1.25-3.73-5.3-4.58-5.97-.51-.41-.94-.72-1.09-1.29-.13-.5.1-.89.72-.97.8-.1,1.39-.09,2.22-.15.8-.06,1.62-.17,2.49-.19.64-.01,1.03.2,1.23.98.13.48-.34.83-.16,1.52.11.41.58,1.19,1.31,2.2.66.92,1.27,1.88,1.46,1.88.32.01.32-1.64.36-2.67.02-.33,0-.59-.05-.77-.3-1.15-1.32-1.59-1.51-2.3-.14-.53.16-.82.64-.79.65.03,1.43.16,2.04.22.67.07,1.01.04,1.47.11.68.09.97.48,1.08.89.26,1-.65.68-.88,2.75-.17,1.59-.44,3.46-.56,4.17Z"/>
  </g>
  <g>
    <g>
      <path class="cls-3" d="M58.97,66.07c.06-.01.13-.12.19-.26.51-1.67-.12-7.77-.65-9.54-.64-2.17-2.55-2.38-3-3.92-.28-.93-.17-1.79,1.02-2.13.82-.23,2.08-.44,2.95-.71.85-.26,1.31-.57,2.13-.83.78-.25,1.4.27,1.72,1.33.55,1.83-.8,2.49-.48,6.93.41,5.89.29,7.81-.44,10.09-.27.87-.86,1.81-1.34,2.25-.92.85-2.92,1.6-3.57,1.78-1.08.31-1.7.23-2.34-.19-.08-.06-.82-.61-1.55-1.35-3.23-3.19-5.54-7.02-7.95-10.83-.42-.66-1.1-1.57-2.22-2.49-.47-.38-1.23-.88-1.39-1.43-.26-.96.42-1.36,1.95-1.63,1-.18,1.98-.23,3.75-.6,1.77-.37,3.06-.81,4.16-1.09,1.07-.27,1.83.29,2.15,1.39.46,1.56-1.03,2.46-.34,4.83.36,1.22,4.1,7.74,4.94,8.3.12.08.23.12.3.11Z"/>
      <path class="cls-3" d="M58.38,73.73c-.07.02-.11.03-.11.03-1.14.33-2.87.63-4.66-.54l-.18-.13c-.83-.63-1.44-1.21-1.81-1.58-3.21-3.18-5.55-6.88-7.8-10.47l-.54-.85c-.42-.66-.97-1.28-1.63-1.82-.05-.04-.12-.09-.19-.15-.69-.53-1.75-1.34-2.12-2.71-.3-1.1-.15-2.19.41-3.08.88-1.39,2.4-1.83,3.77-2.07.42-.07.82-.13,1.24-.18.69-.09,1.4-.19,2.43-.4,1.04-.22,1.92-.47,2.7-.69.47-.13.91-.26,1.35-.37.85-.21,1.67-.19,2.42.03.45-.48,1.12-.96,2.1-1.23.46-.13.99-.25,1.5-.36s1.04-.23,1.4-.34c.28-.08.51-.19.8-.31.34-.15.76-.33,1.29-.5,1.02-.33,2.1-.24,3.02.25.74.39,1.72,1.22,2.24,2.95.47,1.57.18,2.77-.06,3.73-.21.86-.45,1.84-.31,3.8.43,6.12.31,8.41-.56,11.15-.39,1.28-1.23,2.66-2.12,3.47-1.46,1.36-4.02,2.2-4.58,2.38ZM56.57,68.4s.1-.02.16-.04c.1-.03.21-.06.33-.11-1.84-1.36-5.65-8.55-6.02-9.8-.47-1.62-.3-2.9-.05-3.82-.74.21-1.62.45-2.65.66-.57.12-1.07.21-1.5.28.45.51.86,1.05,1.22,1.62l.54.86c2.19,3.47,4.25,6.75,7.01,9.48l.02.02c.2.2.52.51.95.85ZM59.35,52.45c.26.25.53.54.79.89.06-.44.14-.82.22-1.15-.02,0-.04.01-.06.02-.3.09-.62.17-.95.25Z"/>
    </g>
    <g>
      <path class="cls-3" d="M74.39,60.54c.27.92.4,1.34.62,2.09.3,1.01.57,1.14,1.11,1.28.54.13,1.1-.02,1.24.45.11.36-.2.7-1.23,1.04-1.01.33-2.3.73-3.19,1-1.23.37-2.36.73-3.72,1.14-.8.24-1.14.21-1.18.03-.06-.25.53-.63.77-.86.65-.66.57-1.2.44-1.64-.24-.87-.39-1.38-.74-2.58-.27-.93-.98-1.38-1.42-1.57-.42-.19-.89-.32-1.09-1-.38-1.28.85-1.95,2.09-3.42,1.27-1.49,2.38-3.19,2.94-3.54.69-.44,1.21-.26,1.5.69.42,1.38,1.02,4.02,1.87,6.89ZM66.79,43.15c1.47-.48,3.12.71,3.79,2.94.92,3.02-.48,6.47-2.63,7.35-1.56.64-2.67-.32-3.24-2.23-.92-3.07-.04-7.37,2.09-8.06Z"/>
      <path class="cls-3" d="M74.9,68.75c-.42.13-.82.25-1.15.35-.51.15-1,.31-1.5.46-.71.22-1.43.44-2.23.68-1,.3-2.17.51-3.3-.13-.71-.4-1.21-1.06-1.41-1.84-.38-1.49.42-2.55,1.03-3.14-.14-.49-.27-.95-.48-1.68h0c-.55-.24-2-.86-2.55-2.73-.67-2.27.56-3.84,1.52-4.85-.95-.52-2.13-1.61-2.8-3.86-1.17-3.9-.25-10.18,3.91-11.54,1.29-.42,2.68-.29,3.93.36,1.59.83,2.81,2.4,3.43,4.44.52,1.7.53,3.5.14,5.14.67.39,1.39,1.11,1.79,2.44.19.63.41,1.47.66,2.44.33,1.27.73,2.84,1.21,4.45h0c.2.67.32,1.08.46,1.54,1.69.39,2.3,1.57,2.51,2.29.16.53.75,3.25-3.05,4.51-.66.22-1.42.46-2.11.67ZM71.8,63.81c.1-.03.21-.06.32-.1.08-.02.17-.05.26-.08-.02-.07-.04-.14-.06-.21-.22-.75-.35-1.17-.62-2.08-.38-1.27-.71-2.5-.99-3.59-.15.19-.31.38-.47.57-.25.3-.5.57-.73.8.82.67,1.41,1.55,1.71,2.58.28.96.43,1.48.6,2.1ZM67.58,46.19c-.37.88-.63,2.65-.19,4.16.49-.71.93-2.06.51-3.45-.09-.31-.21-.54-.31-.71ZM67.87,45.72"/>
    </g>
    <g>
      <path class="cls-3" d="M74.98,49.34c-.34-1.13-1.15-1.37-1.51-1.48-.4-.13-.74-.27-.95-.97-.36-1.19.71-2.12,1.95-3.54,1.65-1.89,2.21-2.81,3.04-3.11.56-.2,1.25-.14,1.51.74.32,1.03.63,3.41,1.71,6.91.02.06.03.09.05.15.17.56.31.57.42.48.27-.21.7-2.99,3.1-4.68,3.35-2.36,5.75-.83,7.29,3.71,1.56,4.61,1.57,12.38-3.92,14.25-1.38.47-2.9.63-3.78.93-.85.29-1.47.59-1.92.86-.65.39-1.04.67-1.53.82-.65.19-1.05.07-1.15-.24-.18-.59-.06-.89-.78-3.28-1.16-3.85-2.33-7.7-3.5-11.55ZM82.94,54.5c1.44,4.67,2.11,4.65,2.83,4.27.81-.42,1.52-2.36.35-6.1-1.13-3.61-2.12-3.92-3-3.21-.75.6-.99,2.4-.17,5.04Z"/>
      <path class="cls-3" d="M81.29,67.08s-.05.02-.08.02c-2.41.71-4.16-.54-4.64-2.14-.11-.36-.16-.66-.2-.92-.06-.37-.15-.93-.58-2.35-1.08-3.6-2.18-7.19-3.27-10.78l-.14-.46c-.68-.24-1.98-.87-2.55-2.75-.77-2.53.85-4.34,2.03-5.65.16-.18.32-.36.49-.55.41-.47.75-.88,1.04-1.23,1.06-1.27,1.83-2.19,3.16-2.67,1.09-.39,2.21-.34,3.17.13.94.47,1.65,1.33,1.99,2.42.15.48.27,1.07.43,1.81.17-.14.35-.28.54-.41,2.72-1.91,4.93-1.78,6.3-1.33,2.34.76,4.06,2.87,5.27,6.44,1.02,3.02,1.31,6.59.79,9.55-.74,4.16-3.04,7.1-6.47,8.26-.93.32-1.88.51-2.63.66-.45.09-.92.19-1.15.26-.57.19-1.04.4-1.4.61-.13.08-.26.15-.37.22-.5.31-1.03.63-1.73.85ZM75.9,45.96c1.02.75,1.52,1.74,1.77,2.55l.23.76c1.1,3.6,2.19,7.19,3.28,10.79.07.23.13.44.19.64.33-.16.68-.31,1.05-.45-.83-1.04-1.45-2.65-2.16-4.94h0c-.5-1.61-.7-3.08-.61-4.35-.72-.41-1.24-1.12-1.55-2.12l-.05-.16c-.47-1.53-.81-2.87-1.06-3.97-.12.15-.25.3-.39.46-.19.22-.37.42-.55.62-.04.05-.09.1-.14.15ZM85.33,46.66c1.89.83,2.81,3.06,3.48,5.18.35,1.11.6,2.3.69,3.46.42-2.31.02-5.08-.57-6.83-.73-2.16-1.46-2.82-1.68-2.9-.09-.03-.52.02-1.32.58-.22.15-.41.33-.58.51Z"/>
    </g>
    <g>
      <path class="cls-3" d="M100.35,45.26c-.29.15-.38.28-.28.59.37,1.17,1.86,2.64,4.01,2.01,1.87-.55,2.55-2.09,3.12-2.92.17-.29.38-.48.57-.52.38-.08.78.39,1.11,1.46,1.19,3.88-.07,9.27-4.22,10.74-5.22,1.84-10.14-4.47-11.5-8.72-1.6-5.02,0-10.24,5.29-12.12,4.7-1.66,6.75-.22,7.54,2.17.53,1.62.17,2.77-.58,3.66-1.31,1.55-3.94,3.05-5.06,3.66ZM98.51,38.02c-1.09.47-1.41,1.63-.97,2.99.27.84.67,1.26,1.17,1.03.56-.25,1.46-1.3,1.56-2.54.02-.35,0-.65-.09-.89-.22-.67-.88-.93-1.67-.59Z"/>
      <path class="cls-3" d="M105.28,59.36c-2.18.68-4.48.45-6.69-.65-4.02-2-7.02-6.57-8.1-9.98-2.21-6.95.68-13.37,7.03-15.62,3.16-1.12,5.69-1.17,7.74-.17,1.12.55,2.62,1.71,3.41,4.11.54,1.65.52,3.21-.05,4.61,1.01.23,2.24,1.04,2.95,3.37.78,2.55.73,5.46-.13,8-1.03,3.04-3.11,5.24-5.84,6.21-.1.04-.21.07-.31.1ZM95.44,43.15c-.17,1.11-.07,2.4.4,3.88.75,2.36,2.92,5.49,5.25,6.65.95.47,1.81.57,2.63.27,1.53-.54,2.45-2.21,2.7-4.06-.45.27-.97.5-1.56.67-3.57,1.04-6.6-1.14-7.48-3.85-.22-.68-.22-1.36-.04-1.97-.09-.03-.17-.06-.26-.1-.68-.3-1.23-.8-1.66-1.49ZM102.96,38.14c.11.48.15.99.12,1.54v.07c-.01.09-.02.19-.04.28.08-.08.15-.16.22-.24.15-.18.27-.32.06-.97-.12-.37-.25-.57-.36-.68ZM97.51,39.51c.15.44.51.83.96,1.03.48.21.91.17,1.15.07l-.5-1.17-1.23-.07c-.11.03-.22.07-.33.12-.01,0-.03.01-.04.02ZM99.12,39.44l.5,1.17c.25-.11.44-.36.51-.56-.18-.23-.48-.45-.85-.6h-.16ZM100.25,40.24h0s0,0,0,0ZM99.11,39.41h.09s-.07-.01-.1-.03v.03ZM98.06,39.33l1.04.09v-.03c-.32-.09-.68-.13-1.04-.06Z"/>
    </g>
    <g>
      <path class="cls-3" d="M118.89,34.21c1.26.97,1.86,2.14,2.3,3.39.31.89-.21,1.21-.98.98-.66-.19-1.43-.9-2.15-1.47-1.22-.94-2.57-1.98-4.2-2.09-.88-.06-1.14.25-1.01.61.22.63,1.25.7,4.23,2.26,2.9,1.52,6.23,3.7,7.45,7.24,1.07,3.1-.78,6.19-5.18,7.43-1.52.43-4.25.56-6.01-.69-.84-.61-2.04-2.64-2.9-5.3-.4-1.23-.26-2.24.64-2.37.38-.06.9.3,1.45.75,1.32,1.06,3.07,2.99,4.94,2.75.74-.1.92-.69.68-1.41-.46-1.39-2.49-1.58-5.02-2.99-2.01-1.12-4.26-2.46-5.47-6.15-1.32-4.01,1.73-4.19,5.67-4.22,1.79-.02,4.45.41,5.58,1.27Z"/>
      <path class="cls-3" d="M120.48,55.16c-.13.04-.25.08-.38.11-2.26.64-5.82.73-8.4-1.11-2.14-1.55-3.56-5.53-3.95-6.72-.69-2.11-.24-3.5.25-4.3,0,0,0-.02.01-.02-1.18-1.17-2.29-2.77-3.05-5.09-.72-2.2-.57-4.04.44-5.46,1.72-2.4,4.99-2.42,7.87-2.45,1.8-.02,5.37.36,7.32,1.86h0c1.95,1.5,2.75,3.3,3.24,4.7.36,1.05.28,1.91.05,2.54,1.38,1.34,2.58,2.98,3.27,4.99.72,2.08.57,4.27-.42,6.16-1.15,2.19-3.37,3.88-6.27,4.78ZM111.07,37.94c.91,1.51,2.14,2.19,3.42,2.9.75.42,1.46.72,2.15,1,1.62.68,3.46,1.44,4.16,3.56.41,1.23.3,2.45-.31,3.42-.08.13-.17.26-.27.38.73-.4,1.27-.89,1.55-1.43.28-.53.3-1.09.09-1.71-.93-2.68-3.74-4.44-6.1-5.67-1.14-.6-1.97-.96-2.58-1.23-.75-.32-1.51-.66-2.11-1.22ZM117.14,44.91h0Z"/>
    </g>
  </g>
  <g>
    <path class="cls-1" d="M58.35,64.21c.06-.01.13-.12.19-.26.92-2.86.08-6.78-.65-9.54-.56-2.13-2.55-2.38-3-3.92-.28-.93-.16-1.79,1.02-2.13.82-.23,2.08-.44,2.95-.71.85-.26,1.31-.57,2.13-.83.78-.25,1.4.27,1.72,1.33.55,1.83-.8,2.5-.48,6.93.18,3.18.72,6.95-.44,10.09-.27.87-.86,1.81-1.34,2.25-.92.85-2.92,1.6-3.57,1.78-1.08.31-1.7.23-2.34-.19-.08-.06-.82-.61-1.55-1.35-3.19-3.26-5.52-7-7.95-10.83-.42-.66-1.1-1.57-2.22-2.49-.47-.38-1.23-.88-1.39-1.43-.26-.96.42-1.36,1.95-1.63,1-.18,1.98-.23,3.75-.6s3.06-.81,4.16-1.09c1.07-.27,1.83.29,2.15,1.39.46,1.56-1.11,2.63-.34,4.83.96,2.74,2.62,6.2,4.94,8.3.12.08.23.12.29.11Z"/>
    <path class="cls-1" d="M73.77,58.68c.27.92.4,1.34.62,2.09.3,1.01.57,1.14,1.11,1.28.54.13,1.1-.02,1.24.45.11.36-.2.7-1.23,1.04-1.01.33-2.3.73-3.19,1-1.23.37-2.37.73-3.72,1.14-.8.24-1.14.21-1.18.03-.06-.25.53-.63.77-.86.65-.66.57-1.2.44-1.64-.24-.87-.39-1.38-.74-2.58-.27-.93-.98-1.38-1.42-1.57-.42-.19-.89-.32-1.09-1-.38-1.28.85-1.95,2.09-3.42,1.27-1.49,2.38-3.19,2.94-3.54.69-.44,1.21-.26,1.5.69.42,1.38,1.02,4.02,1.87,6.89ZM66.17,41.29c1.47-.48,3.12.71,3.79,2.94.92,3.02-.48,6.47-2.63,7.35-1.56.64-2.67-.32-3.25-2.23-.92-3.07-.04-7.37,2.09-8.06Z"/>
    <path class="cls-1" d="M74.36,47.48c-.34-1.13-1.15-1.37-1.51-1.48-.4-.13-.74-.27-.95-.97-.36-1.19.71-2.12,1.96-3.54,1.65-1.89,2.21-2.81,3.04-3.11.56-.2,1.25-.14,1.52.74.32,1.03.63,3.41,1.71,6.91.02.06.03.09.05.15.17.56.31.57.42.48.27-.21.83-2.97,3.1-4.68,3.31-2.49,6.43.49,7.29,3.71,1.21,4.57,1.76,12.34-3.93,14.25-1.39.46-2.9.63-3.78.93-.85.29-1.47.59-1.92.86-.65.39-1.04.67-1.53.82-.65.19-1.05.07-1.15-.24-.18-.59-.07-.89-.78-3.28-1.16-3.85-2.33-7.7-3.5-11.55ZM82.32,52.64c1.44,4.67,2.11,4.65,2.83,4.27.81-.42,1.52-2.36.35-6.1-1.13-3.61-2.12-3.92-3-3.21-.75.6-.99,2.4-.17,5.04Z"/>
    <path class="cls-1" d="M99.73,43.4c-.29.15-.38.28-.28.59.37,1.17,1.86,2.64,4.01,2.01,1.87-.55,2.55-2.09,3.12-2.92.17-.29.38-.48.57-.52.38-.08.8.39,1.11,1.46,1.13,3.84-.18,9.38-4.22,10.74-4.98,1.67-10.17-4.13-11.5-8.72-1.38-4.76.13-10.51,5.29-12.12,4.57-1.43,6.75-.22,7.54,2.17.53,1.62.17,2.77-.58,3.66-1.31,1.55-3.95,3.05-5.06,3.66ZM97.88,36.17c-1.09.47-1.41,1.63-.97,2.99.27.84.67,1.26,1.17,1.03.56-.25,1.46-1.3,1.56-2.54.02-.35,0-.65-.09-.89-.22-.67-.88-.93-1.67-.59Z"/>
    <path class="cls-1" d="M118.27,32.35c1.26.97,1.86,2.14,2.3,3.39.31.88-.21,1.21-.98.98-.66-.19-1.43-.9-2.15-1.47-1.22-.94-2.57-1.98-4.2-2.09-.88-.06-1.14.25-1.02.61.22.63,1.26.74,4.23,2.26,3.08,1.59,6.26,3.91,7.45,7.24,1.23,3.44-2.07,6.55-5.18,7.43-1.51.43-4.25.56-6.01-.69-.84-.61-2.04-2.64-2.91-5.3-.4-1.23-.26-2.24.64-2.37.38-.06.9.3,1.45.75,1.32,1.06,3.07,2.99,4.94,2.75.74-.1.92-.69.68-1.41-.46-1.39-2.49-1.58-5.02-2.99-2.01-1.12-4.26-2.46-5.47-6.15-1.32-4.01,1.73-4.19,5.67-4.22,1.79-.02,4.45.41,5.58,1.27Z"/>
  </g>
</svg>