<?xml version="1.0" encoding="UTF-8"?>
<svg id="Camada_1" xmlns="http://www.w3.org/2000/svg" viewBox="0 0 85.04 85.04">
  <defs>
    <style>
      .cls-1 {
        fill: #dfe590;
      }

      .cls-2 {
        fill: #fff;
      }

      .cls-3 {
        fill: #e75195;
      }
    </style>
  </defs>
  <path class="cls-2" d="M31.99,64.8c-2.03-.47-3.9-1.88-4.63-3.75l-3.58-9.15-6.85-3.14c-5.04-2.31-7.27-8.3-4.96-13.34l6.94-15.15c1.12-2.44,3.12-4.3,5.64-5.24,2.52-.94,5.25-.83,7.7.28l34.48,15.79c5.04,2.31,7.27,8.29,4.96,13.34l-6.94,15.15c-1.12,2.44-3.12,4.3-5.64,5.24-2.52.94-5.25.84-7.7-.28l-6.85-3.14-9.27,3.27c-1.04.37-2.19.38-3.29.12M28.69,21.68c-.54-.13-1.11-.09-1.64.11-.72.27-1.28.79-1.6,1.49l-6.94,15.15c-.66,1.43-.02,3.13,1.41,3.79l9.5,4.35,4.31,11.02,11.16-3.93,9.5,4.35c.69.32,1.47.35,2.18.08.72-.27,1.28-.79,1.6-1.49l6.94-15.15c.66-1.43.03-3.13-1.41-3.79l-34.48-15.79c-.18-.08-.36-.14-.54-.19"/>
  <path class="cls-1" d="M65.22,34.39l-34.48-15.79c-3.24-1.49-7.08-.06-8.56,3.18l-6.94,15.15c-1.49,3.24-.06,7.08,3.18,8.56l8.18,3.75,1.92,4.89,2.2,5.61c.42,1.07,2.29,1.93,3.37,1.55l5.68-2,4.96-1.75,8.18,3.75c3.24,1.49,7.08.06,8.56-3.18l6.94-15.15c1.49-3.24.06-7.08-3.18-8.56"/>
  <path class="cls-3" d="M51.84,36.12c-1.65-2.18-4.73-3.17-7.32-2.37-1.07-2.48-3.81-4.17-6.56-4.01-2.38.13-4.46,1.53-5.43,3.64-.28.6-.45,1.25-.53,1.93-.91,4.41,2.65,12.5,5.46,13.8,2.82,1.29,11.28-1.28,14.08-4.9.41-.44.79-.99,1.07-1.59.97-2.11.67-4.6-.78-6.49"/>
</svg>