<?xml version="1.0" encoding="UTF-8"?>
<svg id="Camada_1" xmlns="http://www.w3.org/2000/svg" viewBox="0 0 85.04 85.04">
  <defs>
    <style>
      .cls-1 {
        fill: #eb6aa3;
      }

      .cls-2 {
        fill: #fff;
      }

      .cls-3 {
        fill: #e85196;
      }

      .cls-4 {
        fill: #f29dc3;
      }
    </style>
  </defs>
  <path class="cls-2" d="M68.45,24.55c-3.06-4.18-7.86-6.95-12.84-7.39-5.5-.49-11.27,1.74-15.97,6.12-6.03-2.21-12.24-2.01-17.09.57-4.41,2.35-7.76,6.76-8.96,11.8-1.11,4.7-.37,9.93,2.03,14.36,2.12,3.91,5.28,6.88,7.8,9.02,5.05,4.31,10.7,7.75,16.81,10.24,1.83.75,4.26,1.6,6.88,1.62l.26.14,1.24-.2c.22-.03.43-.08.6-.12l.24-.05c.14-.03.28-.06.42-.09l1.22-.3.19-.24c2.41-1.04,4.31-2.76,5.71-4.16,4.66-4.67,8.53-10.04,11.5-15.97,1.48-2.95,3.24-6.91,3.68-11.35.49-5.01-.87-10.12-3.72-14.02M54.96,24.44c2.92.26,5.75,1.92,7.59,4.43,1.8,2.46,2.65,5.74,2.34,8.99-.31,3.23-1.73,6.39-2.93,8.77-2.62,5.23-6.04,9.97-10.14,14.08-1.06,1.06-2.46,2.34-3.86,2.78l-.33.07c-1.44.15-3.24-.49-4.63-1.06-5.38-2.19-10.37-5.23-14.82-9.03-2.03-1.73-4.56-4.09-6.11-6.94-1.55-2.87-2.04-6.22-1.34-9.19.72-3.03,2.69-5.66,5.27-7.03,1.54-.82,3.39-1.23,5.37-1.23s4.25.44,6.4,1.31c2.2.89,4.7.39,6.47-1.38,3.21-3.17,7.22-4.88,10.72-4.57"/>
  <path class="cls-4" d="M65.5,26.71c-2.4-3.27-6.18-5.55-10.22-5.91-5.09-.46-10.1,2.09-13.72,5.7,0,0,0,0-.01.01-.63.64-1.59.83-2.42.49,0,0,0,0-.01,0-4.74-1.92-10.34-2.32-14.85.08-3.58,1.9-6.18,5.47-7.11,9.42-.93,3.95-.25,8.21,1.69,11.78,1.69,3.12,4.26,5.69,6.95,7.99,4.72,4.03,10.06,7.29,15.81,9.64,2.03.83,4.22,1.52,6.37,1.31.01,0,.03.02.05.03.17-.03.33-.06.49-.1.16-.03.33-.06.49-.1.01-.01.02-.03.03-.04,2.06-.64,3.81-2.13,5.36-3.68,4.39-4.39,8.04-9.48,10.82-15.03,1.59-3.16,2.96-6.53,3.3-10.06.39-4.03-.63-8.23-3.03-11.51"/>
  <path class="cls-3" d="M60.48,31.06c-1.83-2.5-4.73-4.25-7.82-4.52-3.9-.35-7.73,1.6-10.5,4.36,0,0,0,0,0,0-.48.48-1.22.63-1.85.37,0,0,0,0-.01,0-3.63-1.47-7.91-1.78-11.37.06-2.74,1.46-4.73,4.19-5.44,7.21-.72,3.02-.19,6.28,1.29,9.01,1.29,2.39,3.26,4.35,5.32,6.11,3.61,3.08,7.7,5.58,12.1,7.37,1.56.63,3.23,1.16,4.87,1,.01,0,.02.01.04.02.13-.02.25-.04.38-.07.13-.02.25-.05.38-.08,0-.01.01-.02.02-.03,1.57-.49,2.91-1.63,4.1-2.82,3.36-3.36,6.15-7.25,8.28-11.5,1.22-2.42,2.26-5,2.53-7.7.3-3.09-.48-6.3-2.32-8.81"/>
  <path class="cls-1" d="M55.21,35.63c-1.24-1.7-3.21-2.88-5.3-3.07-2.64-.24-5.24,1.08-7.12,2.96,0,0,0,0,0,0-.33.33-.83.43-1.26.25,0,0,0,0,0,0-2.46-1-5.37-1.21-7.71.04-1.86.99-3.21,2.84-3.69,4.89s-.13,4.26.88,6.11c.88,1.62,2.21,2.95,3.61,4.15,2.45,2.09,5.23,3.79,8.21,5,1.06.43,2.19.79,3.31.68,0,0,.02.01.02.01.09-.01.17-.03.26-.05.09-.01.17-.03.26-.05,0,0,.01-.01.02-.02,1.07-.33,1.98-1.11,2.78-1.91,2.28-2.28,4.17-4.92,5.62-7.8.83-1.64,1.54-3.39,1.72-5.22.2-2.09-.33-4.27-1.57-5.97"/>
  <path class="cls-4" d="M49.41,40.65c-.59-.81-1.53-1.38-2.54-1.47-1.27-.11-2.51.52-3.41,1.42,0,0,0,0,0,0-.16.16-.39.21-.6.12,0,0,0,0,0,0-1.18-.48-2.57-.58-3.69.02-.89.47-1.54,1.36-1.77,2.34-.23.98-.06,2.04.42,2.92.42.78,1.06,1.41,1.73,1.98,1.17,1,2.5,1.81,3.93,2.39.5.21,1.05.38,1.58.33,0,0,0,0,.01,0,.04,0,.08-.01.12-.02.04,0,.08-.02.12-.03,0,0,0,0,0-.01.51-.16.95-.53,1.33-.91,1.09-1.09,2-2.36,2.69-3.73.39-.79.73-1.62.82-2.5.1-1-.16-2.04-.75-2.86"/>
</svg>