<?xml version="1.0" encoding="UTF-8"?>
<svg id="Camada_1" xmlns="http://www.w3.org/2000/svg" viewBox="0 0 85.04 85.04">
  <defs>
    <style>
      .cls-1 {
        fill: #fff;
      }

      .cls-2 {
        fill: #dfe491;
      }

      .cls-3 {
        fill: #e75095;
      }
    </style>
  </defs>
  <path class="cls-1" d="M69.19,32.49c-4.85-5.21-12.57-8.22-19.05-5.48-3.43-6.13-11.44-8.51-18.5-7.37-6.11.97-11.13,5.13-13.09,10.84-.56,1.64-.84,3.35-.85,5.12-1.19,11.64,10.13,31.64,17.74,34.24,7.62,2.61,28.83-6.26,35.13-16.38.96-1.23,1.78-2.76,2.34-4.39,1.95-5.71.53-12.07-3.71-16.59"/>
  <path class="cls-3" d="M65.33,33.97c-4.13-4.43-11.11-5.91-16.63-3.58-2.92-5.22-9.32-8.32-15.33-7.35-5.2.83-9.47,4.37-11.13,9.22-.48,1.39-.71,2.85-.73,4.36-1.01,9.9,8.62,26.92,15.09,29.13,6.49,2.22,24.53-5.33,29.89-13.93.81-1.05,1.52-2.35,1.99-3.74,1.66-4.86.45-10.27-3.16-14.11"/>
  <g>
    <path class="cls-2" d="M37.96,37.53c.34-1.14,1.55-1.79,2.68-1.45,1.15.34,1.8,1.55,1.46,2.69-.35,1.15-1.55,1.79-2.7,1.44-1.14-.34-1.79-1.53-1.45-2.68"/>
    <path class="cls-2" d="M49.29,40.92c.34-1.14,1.55-1.79,2.68-1.45,1.15.34,1.8,1.55,1.46,2.69-.35,1.15-1.55,1.79-2.7,1.44-1.14-.34-1.79-1.53-1.45-2.68"/>
    <path class="cls-2" d="M41.26,54.45c-.1-.03-.2-.06-.3-.09-7.3-2.36-8.84-8.67-7.85-13.79.2-1.05,1.22-1.73,2.26-1.53,1.05.2,1.73,1.22,1.53,2.26-.42,2.17-.75,7.44,5.24,9.38.07.02.15.05.22.07,5.36,1.61,8.89-2.07,9.86-4.81.36-1.01,1.47-1.54,2.47-1.17,1.01.36,1.53,1.46,1.17,2.47-1.82,5.12-7.54,9.33-14.61,7.22"/>
  </g>
</svg>