<?xml version="1.0" encoding="UTF-8"?>
<svg id="Camada_1" xmlns="http://www.w3.org/2000/svg" viewBox="0 0 85.04 85.04">
  <defs>
    <style>
      .cls-1 {
        fill: #eb6aa3;
      }

      .cls-2 {
        fill: #fff;
      }

      .cls-3 {
        fill: #e85196;
      }

      .cls-4 {
        fill: #f29dc3;
      }
    </style>
  </defs>
  <path class="cls-2" d="M66.79,24.93c-2.98-4.07-7.65-6.76-12.5-7.2-5.35-.48-10.97,1.69-15.54,5.96-5.87-2.15-11.91-1.96-16.64.56-4.3,2.29-7.55,6.58-8.72,11.49-1.08,4.57-.36,9.67,1.98,13.98,2.06,3.81,5.14,6.7,7.59,8.78,4.91,4.19,10.42,7.55,16.36,9.97,1.78.73,4.15,1.56,6.7,1.57l.26.14,1.21-.2c.21-.03.42-.07.59-.11l.24-.04c.14-.03.27-.06.4-.09l1.19-.29.18-.23c2.34-1.01,4.19-2.69,5.55-4.05,4.53-4.54,8.3-9.77,11.2-15.55,1.44-2.88,3.15-6.73,3.58-11.05.47-4.88-.84-9.86-3.62-13.64M53.66,24.83c2.84.25,5.6,1.87,7.39,4.31,1.76,2.4,2.58,5.59,2.28,8.75-.31,3.14-1.69,6.22-2.85,8.54-2.55,5.09-5.87,9.71-9.87,13.71-1.03,1.04-2.4,2.28-3.76,2.7l-.32.07c-1.4.14-3.15-.48-4.51-1.03-5.23-2.13-10.09-5.09-14.43-8.79-1.98-1.69-4.44-3.98-5.95-6.76-1.51-2.8-1.99-6.06-1.31-8.95.7-2.95,2.62-5.51,5.13-6.84,1.5-.8,3.3-1.2,5.23-1.2s4.14.43,6.23,1.28c2.14.87,4.58.38,6.3-1.35,3.13-3.09,7.02-4.75,10.44-4.44"/>
  <path class="cls-4" d="M63.92,27.03c-2.33-3.18-6.01-5.4-9.94-5.75-4.96-.44-9.83,2.03-13.35,5.55,0,0,0,0-.01.01-.62.62-1.55.81-2.36.48,0,0,0,0-.01,0-4.61-1.87-10.06-2.26-14.46.08-3.48,1.85-6.02,5.33-6.92,9.17-.91,3.84-.24,7.99,1.64,11.46,1.65,3.04,4.15,5.54,6.77,7.77,4.6,3.92,9.8,7.1,15.39,9.38,1.98.81,4.11,1.48,6.2,1.28.01,0,.03.02.04.03.16-.03.32-.06.48-.09.16-.03.32-.06.48-.1.01-.01.02-.03.03-.04,2-.62,3.71-2.07,5.22-3.59,4.27-4.28,7.82-9.23,10.53-14.63,1.55-3.08,2.88-6.35,3.22-9.79.38-3.93-.61-8.01-2.95-11.2"/>
  <path class="cls-3" d="M59.03,31.27c-1.78-2.44-4.6-4.13-7.61-4.4-3.8-.34-7.52,1.55-10.22,4.25,0,0,0,0,0,0-.47.47-1.18.62-1.8.36,0,0,0,0-.01,0-3.53-1.43-7.7-1.73-11.07.06-2.67,1.42-4.6,4.08-5.3,7.02-.7,2.94-.18,6.12,1.26,8.77,1.26,2.33,3.17,4.24,5.18,5.95,3.52,3,7.5,5.43,11.78,7.18,1.51.62,3.15,1.13,4.74.98.01,0,.02.01.03.02.12-.02.25-.04.37-.07.12-.02.24-.05.37-.08,0-.01.01-.02.02-.03,1.53-.48,2.84-1.59,3.99-2.74,3.27-3.27,5.99-7.06,8.06-11.2,1.18-2.36,2.2-4.86,2.46-7.5.29-3.01-.47-6.13-2.25-8.57"/>
  <path class="cls-1" d="M53.9,35.72c-1.21-1.65-3.12-2.8-5.16-2.99-2.57-.23-5.1,1.05-6.93,2.88,0,0,0,0,0,0-.32.32-.8.42-1.22.25,0,0,0,0,0,0-2.39-.97-5.23-1.17-7.51.04-1.81.96-3.12,2.76-3.6,4.76s-.12,4.15.85,5.95c.85,1.58,2.15,2.87,3.51,4.04,2.39,2.04,5.09,3.69,7.99,4.87,1.03.42,2.13.77,3.22.66,0,0,.02.01.02.01.08-.01.17-.03.25-.05.08-.01.17-.03.25-.05,0,0,.01-.01.02-.02,1.04-.32,1.92-1.08,2.71-1.86,2.22-2.22,4.06-4.79,5.47-7.59.8-1.6,1.5-3.3,1.67-5.08.2-2.04-.32-4.16-1.53-5.81"/>
  <path class="cls-4" d="M48.26,40.6c-.58-.79-1.49-1.34-2.47-1.43-1.23-.11-2.44.51-3.32,1.38,0,0,0,0,0,0-.15.15-.38.2-.59.12,0,0,0,0,0,0-1.15-.46-2.5-.56-3.59.02-.87.46-1.5,1.32-1.72,2.28-.23.95-.06,1.98.41,2.85.41.76,1.03,1.38,1.68,1.93,1.14.97,2.43,1.76,3.82,2.33.49.2,1.02.37,1.54.32,0,0,0,0,.01,0,.04,0,.08-.01.12-.02.04,0,.08-.02.12-.02,0,0,0,0,0-.01.5-.15.92-.51,1.3-.89,1.06-1.06,1.94-2.29,2.62-3.63.38-.76.72-1.58.8-2.43.09-.98-.15-1.99-.73-2.78"/>
</svg>