<?xml version="1.0" encoding="UTF-8"?>
<svg width="200" height="200" viewBox="0 0 200 200" fill="none" xmlns="http://www.w3.org/2000/svg">
  <!-- Circle background -->
  <circle cx="100" cy="100" r="80" fill="#0EA5E9"/>
  
  <!-- People icons -->
  <path d="M80 90a20 20 0 1 1 40 0 20 20 0 0 1-40 0zm60 10a15 15 0 1 1-30 0 15 15 0 0 1 30 0zM90 140a30 30 0 0 0-60 0v20h60v-20zm50 20v-20a35 35 0 0 0-5-18 20 20 0 0 1 25 18v20h-20zM60 100a15 15 0 1 1-30 0 15 15 0 0 1 30 0zm-10 60v-20a20 20 0 0 0-20-20v40h20z" fill="white"/>
  
  <!-- Star -->
  <path d="M160 40l5 10 10 5-10 5-5 10-5-10-10-5 10-5 5-10z" fill="#FBBF24"/>
</svg>
