<svg width="1254" height="861" viewBox="0 0 1254 861" fill="none" xmlns="http://www.w3.org/2000/svg">
<mask id="mask0_1_319" style="mask-type:alpha" maskUnits="userSpaceOnUse" x="0" y="0" width="1254" height="861">
<rect width="1254" height="861" fill="#D9D9D9"/>
</mask>
<g mask="url(#mask0_1_319)">
<g clip-path="url(#clip0_1_319)">
<path d="M1209.7 285.667L1150.03 732.288C1148.28 745.352 1143.52 757.277 1136.54 767.452C1119.76 791.935 1090.13 806.298 1058.7 802.098L818.614 770.021C786.51 765.732 761.314 743.257 751.988 714.368C748.385 703.202 747.149 691.082 748.805 678.682L808.477 232.061C808.702 230.376 808.974 228.717 809.304 227.076C817.515 185.255 856.995 156.541 899.815 162.262L898.814 162.128L903.56 126.604L895.363 125.508C892.875 125.176 891.141 122.896 891.473 120.418C891.638 119.179 892.283 118.126 893.205 117.421C893.766 116.992 894.421 116.696 895.125 116.568C884.096 113.632 885.247 112.343 885.247 112.343C885.247 112.343 888.82 82.5032 891.72 63.6713C894.379 46.4115 906.451 48.6298 906.451 48.6298L918.187 50.1977C918.187 50.1977 975.056 58.4415 1034.76 66.7204C1094.53 74.4045 1151.57 81.3796 1151.57 81.3796L1163.32 82.9488C1163.32 82.9488 1175.54 83.9764 1173.58 101.329C1171.43 120.261 1167.05 149.994 1167.05 149.994C1167.05 149.994 1167.83 151.54 1156.4 151.477C1158.12 152.301 1159.19 154.16 1158.93 156.152C1158.76 157.391 1158.11 158.443 1157.18 159.148C1156.26 159.852 1155.07 160.206 1153.83 160.041L1145.63 158.946L1140.88 194.47L1139.9 194.339C1183.24 200.129 1214 239.056 1210.09 282.187C1209.99 283.345 1209.86 284.507 1209.7 285.667Z" fill="white" stroke="white" stroke-width="67" stroke-miterlimit="10"/>
<path d="M1206.84 285.284L1147.17 731.905C1145.42 744.969 1140.66 756.894 1133.68 767.069C1116.9 791.553 1087.27 805.915 1055.84 801.716L815.75 769.639C783.645 765.349 758.449 742.875 749.123 713.985C745.52 702.82 744.284 690.699 745.941 678.299L805.612 231.678C805.837 229.993 806.109 228.334 806.44 226.694C814.65 184.873 854.131 156.158 896.95 161.879L1137.04 193.956C1180.37 199.746 1211.14 238.673 1207.22 281.804C1207.13 282.962 1206.99 284.124 1206.84 285.284Z" fill="#9B0A0A"/>
<path d="M1142.76 158.563L900.695 126.221L895.95 161.735L1138.02 194.077L1142.76 158.563Z" fill="#9B0A0A"/>
<path d="M1164.19 149.611C1164.19 149.611 1168.19 157.652 1022.55 136.276C876.402 118.667 882.373 111.959 882.373 111.959C882.373 111.959 885.956 82.1205 888.855 63.2886C891.514 46.0287 903.577 48.2457 903.577 48.2457L915.313 49.8137C915.313 49.8137 972.182 58.0574 1031.88 66.3363C1091.66 74.0205 1148.7 80.9955 1148.7 80.9955L1160.43 82.5635C1160.43 82.5635 1172.67 83.5923 1170.69 100.944C1168.54 119.876 1164.17 149.608 1164.17 149.608L1164.19 149.611Z" fill="#EA0029"/>
<path d="M1152.17 150.679L893.698 116.145C891.218 115.814 888.939 117.556 888.608 120.036C888.277 122.515 890.018 124.794 892.498 125.126L1150.97 159.659C1153.45 159.991 1155.73 158.249 1156.06 155.769C1156.39 153.289 1154.65 151.01 1152.17 150.679Z" fill="#9B0A0A"/>
<path d="M890.827 228.323C851.432 163.899 788.489 226.182 832.897 279.896C870.861 325.808 876.842 331.49 877.02 331.665C877.248 331.544 884.51 327.631 933.186 293.295C990.128 253.122 945.744 176.499 890.827 228.323Z" fill="#FE8069"/>
<path d="M1009.45 226.194C954.58 174.32 910.118 250.897 967.022 291.117C1015.67 325.512 1022.92 329.427 1023.16 329.549C1023.34 329.372 1029.33 323.705 1067.34 277.824C1111.79 224.159 1048.92 161.813 1009.45 226.194Z" fill="#FE8069"/>
<path d="M1129.3 268.407C1110.78 195.2 1032.2 236.014 1058.68 300.478C1081.31 355.58 1085.34 362.777 1085.47 363.005C1085.71 362.958 1093.81 361.377 1150.48 343.02C1216.78 321.55 1197.11 235.205 1129.29 268.406L1129.3 268.407Z" fill="#FE8069"/>
<path d="M1207.71 285.401L1148.04 732.022C1146.29 745.086 1141.53 757.01 1134.55 767.186C1128.12 767.285 1120.06 767.176 1109.93 766.711C1095.88 766.084 1077.87 764.788 1054.78 762.481C1025.79 759.605 988.784 755.136 941.577 748.425C941.577 748.425 890.253 742.254 834.793 732.443C816.589 729.224 797.933 725.611 780.509 721.689C769.745 719.272 759.44 716.736 749.995 714.102C746.392 702.936 745.156 690.816 746.813 678.416L806.485 231.794C806.71 230.109 806.982 228.451 807.312 226.81C865.094 242.268 1056.5 289.603 1208.09 281.921C1208 283.079 1207.86 284.241 1207.71 285.401Z" fill="#EA0029"/>
<path d="M936.439 388.404L924.942 386.867C924.367 386.791 923.829 387.193 923.751 387.778L920.411 412.776C920.334 413.351 919.804 413.764 919.22 413.686L891.645 410.002C891.07 409.925 890.656 409.396 890.734 408.811L894.074 383.813C894.151 383.238 893.749 382.7 893.164 382.622L881.567 381.072C880.992 380.996 880.454 381.398 880.376 381.983L871.703 446.896C871.626 447.471 872.029 448.009 872.613 448.087L884.21 449.636C884.785 449.713 885.323 449.311 885.401 448.726L888.868 422.777C888.945 422.202 889.475 421.788 890.06 421.866L917.635 425.551C918.209 425.627 918.623 426.157 918.545 426.742L915.078 452.691C915.001 453.266 915.403 453.804 915.988 453.882L927.486 455.418C928.061 455.495 928.599 455.093 928.677 454.508L937.35 389.595C937.427 389.02 937.024 388.482 936.439 388.404Z" fill="white"/>
<path d="M981.446 395.728C981.091 394.611 980.28 393.656 979.175 393.246C977.484 392.606 975.642 393.258 974.702 394.706L935.655 454.986C935.235 455.636 935.634 456.507 936.407 456.61L948.806 458.267C949.223 458.322 949.633 458.125 949.853 457.761L956.513 446.726L985.416 450.587L988.935 462.983C989.052 463.392 989.396 463.69 989.812 463.745L1002.11 465.389C1002.89 465.492 1003.5 464.757 1003.26 464.019L981.446 395.728ZM981.516 430.998L972.369 437.989C972.212 438.109 972.013 438.163 971.825 438.138C971.637 438.113 971.449 438.007 971.339 437.851L964.348 428.705C963.288 427.504 962.74 425.867 962.969 424.152C963.389 421.01 966.278 418.793 969.43 419.214C971.482 419.488 973.13 420.818 973.913 422.587C975.131 421.095 977.072 420.235 979.124 420.509C982.266 420.929 984.483 423.818 984.062 426.97C983.832 428.685 982.865 430.109 981.536 431.001L981.516 430.998Z" fill="white"/>
<path d="M1019.54 399.507L1031.14 401.056C1031.71 401.133 1032.13 401.662 1032.05 402.247L1023.38 467.16C1023.3 467.735 1022.77 468.149 1022.18 468.07L1010.59 466.521C1010.01 466.444 1009.6 465.915 1009.68 465.33L1018.35 400.417C1018.43 399.842 1018.96 399.428 1019.54 399.507Z" fill="white"/>
<path d="M1088.22 475.289L1077.34 449.218C1077.08 448.598 1077.45 447.902 1078.11 447.779C1082.73 446.892 1086.35 445.116 1088.96 442.459C1091.82 439.562 1093.59 435.53 1094.28 430.356C1095.25 423.15 1093.53 417.442 1089.11 413.251C1084.7 409.06 1077.21 406.252 1066.61 404.837C1062.97 404.351 1059 403.951 1054.68 403.637C1050.7 403.346 1046.82 403.232 1043.07 403.305C1042.54 403.316 1042.11 403.713 1042.04 404.228L1033.45 468.527C1033.38 469.102 1033.78 469.64 1034.36 469.718L1045.96 471.267C1046.54 471.344 1047.07 470.942 1047.15 470.357L1050.3 446.767C1050.39 446.132 1051.01 445.721 1051.62 445.883C1053.68 446.44 1055.87 446.906 1058.23 447.27C1059.52 447.554 1060.8 447.766 1062.08 447.906C1062.46 447.957 1062.8 448.195 1062.95 448.557L1073.3 474.365C1073.45 474.718 1073.76 474.972 1074.14 475.022L1087.12 476.756C1087.93 476.864 1088.54 476.049 1088.23 475.3L1088.22 475.289ZM1075.16 436.71C1072.17 437.965 1067.83 438.212 1062.15 437.454C1058.63 436.983 1055.48 436.35 1052.69 435.554C1052.18 435.406 1051.88 434.921 1051.95 434.395L1054.3 416.762C1054.37 416.246 1054.81 415.851 1055.32 415.839C1058.22 415.803 1061.43 416.02 1064.95 416.49C1070.63 417.249 1074.75 418.647 1077.31 420.673C1079.86 422.699 1080.89 425.57 1080.4 429.268C1079.9 432.965 1078.16 435.446 1075.17 436.7L1075.16 436.71Z" fill="white"/>
<path d="M1086.82 356.185C1086.32 355.543 1085.63 355.169 1084.75 355.051C1083.87 354.933 1083.11 355.124 1082.46 355.602C1081.81 356.09 1081.43 356.756 1081.32 357.598L1079.66 369.998C1079.49 371.227 1079.14 372.239 1078.59 373.033C1078.04 373.827 1077.33 374.388 1076.46 374.715C1075.58 375.043 1074.56 375.128 1073.37 374.97C1071.65 374.739 1070.37 374.134 1069.51 373.152C1068.66 372.171 1068.38 370.629 1068.66 368.528L1070.31 356.128C1070.43 355.286 1070.23 354.553 1069.73 353.902C1069.23 353.26 1068.55 352.886 1067.66 352.768C1066.78 352.65 1066.02 352.841 1065.37 353.319C1064.72 353.807 1064.34 354.473 1064.23 355.315L1062.34 369.449C1062.1 371.253 1062.25 372.908 1062.81 374.416C1063.37 375.923 1064.27 377.152 1065.5 378.124C1066.73 379.096 1068.23 379.7 1070.03 379.94C1071.54 380.143 1072.93 380.146 1074.15 379.946C1075.38 379.747 1076.48 379.36 1077.43 378.78C1077.86 378.515 1078.27 378.206 1078.66 377.855L1078.59 378.37C1078.37 380.016 1077.94 381.28 1077.29 382.161C1076.63 383.042 1075.77 383.613 1074.69 383.882C1073.6 384.15 1072.28 384.175 1070.73 383.969C1069.58 383.815 1068.59 383.511 1067.75 383.056C1066.92 382.602 1066.25 382.26 1065.72 382.018C1065.01 381.661 1064.3 381.606 1063.58 381.853C1062.86 382.1 1062.28 382.668 1061.85 383.57C1061.52 384.252 1061.51 384.926 1061.81 385.612C1062.12 386.298 1062.75 386.908 1063.7 387.469C1064.43 387.899 1065.4 388.271 1066.6 388.593C1067.8 388.914 1068.94 389.147 1070.02 389.291C1072.46 389.617 1074.7 389.523 1076.76 389.012C1078.83 388.501 1080.56 387.44 1081.96 385.842C1083.37 384.234 1084.26 381.952 1084.65 378.978L1087.4 358.401C1087.51 357.559 1087.32 356.827 1086.82 356.175L1086.82 356.185Z" fill="white"/>
<path d="M902.829 338.069C904.191 327.88 913.276 320.892 923.406 322.245C928.927 322.983 933.377 325.998 936.002 329.911C936.483 330.54 936.632 331.387 936.543 332.051C936.326 333.677 934.832 334.819 933.156 334.595C932.393 334.493 931.592 333.922 930.934 333.108C929.121 330.444 926.288 328.461 922.641 327.974C915.95 327.08 909.89 331.89 908.955 338.888C908.02 345.886 912.612 352.068 919.302 352.962C924.575 353.667 929.546 350.82 931.815 345.766L923.152 344.608C921.576 344.398 920.53 343.017 920.732 341.5C920.935 339.984 922.324 338.878 923.89 339.087L936.508 340.773C938.024 340.976 939.081 342.358 938.85 344.083C937.475 352.414 928.916 360.138 918.529 358.751C908.141 357.363 901.466 348.269 902.828 338.079L902.829 338.069Z" fill="white"/>
<path d="M958.172 363.855C958.013 363.834 957.855 363.813 957.696 363.792C946.153 361.987 942.308 352.858 942.572 344.923C942.628 343.296 943.988 342.025 945.616 342.071C947.244 342.117 948.514 343.487 948.468 345.115C948.36 348.491 949.127 356.493 958.615 357.972C958.734 357.988 958.843 358.003 958.962 358.019C967.417 359.148 971.85 352.769 972.655 348.407C972.949 346.812 974.495 345.738 976.087 346.051C977.692 346.346 978.747 347.89 978.444 349.483C976.932 357.625 969.333 365.347 958.182 363.857L958.172 363.855Z" fill="white"/>
<path d="M983.007 344.474C983.235 342.769 984.731 341.617 986.446 341.846C987.823 342.03 988.857 343.127 988.981 344.313L988.989 344.708C990.411 343.274 992.47 342.59 995.007 342.929C997.822 343.305 1000.2 344.803 1001.63 347.97C1003.72 345.274 1006.86 344.513 1010.11 344.947C1015.95 345.727 1019.75 350.503 1018.83 357.392L1017.3 368.85C1017.07 370.555 1015.57 371.756 1013.86 371.527C1012.14 371.298 1011.01 369.744 1011.24 368.039L1012.77 356.522C1013.26 352.884 1011.45 350.847 1008.81 350.493C1006.16 350.14 1003.94 351.639 1003.46 355.277L1001.92 366.795C1001.69 368.499 1000.13 369.693 998.473 369.472C996.818 369.251 995.624 367.689 995.852 365.984L997.391 354.466C997.877 350.829 996.021 348.785 993.424 348.438C990.827 348.091 988.5 349.576 988.014 353.214L986.475 364.731C986.247 366.436 984.745 367.638 983.03 367.409C981.315 367.18 980.181 365.626 980.409 363.921L983.009 344.464L983.007 344.474Z" fill="white"/>
<path d="M1023.67 349.906C1023.89 348.201 1025.39 347.049 1027.1 347.278C1028.48 347.462 1029.52 348.559 1029.64 349.746L1029.65 350.14C1031.07 348.706 1033.13 348.022 1035.67 348.362C1038.48 348.738 1040.85 350.235 1042.29 353.403C1044.38 350.706 1047.52 349.945 1050.77 350.38C1056.61 351.16 1060.41 355.935 1059.49 362.824L1057.96 374.282C1057.73 375.987 1056.23 377.189 1054.51 376.96C1052.8 376.73 1051.67 375.177 1051.89 373.472L1053.43 361.954C1053.92 358.316 1052.11 356.279 1049.47 355.926C1046.82 355.572 1044.6 357.072 1044.12 360.709L1042.58 372.227C1042.35 373.932 1040.79 375.125 1039.13 374.904C1037.48 374.683 1036.28 373.121 1036.51 371.416L1038.05 359.899C1038.54 356.261 1036.68 354.217 1034.08 353.87C1031.49 353.523 1029.16 355.008 1028.67 358.646L1027.13 370.164C1026.91 371.868 1025.4 373.07 1023.69 372.841C1021.97 372.612 1020.84 371.058 1021.07 369.353L1023.67 349.896L1023.67 349.906Z" fill="white"/>
<path d="M949.15 339.183C949.389 337.389 951.042 336.117 952.846 336.358C954.65 336.599 955.933 338.253 955.691 340.057C955.45 341.861 953.799 343.124 951.975 342.88C950.151 342.636 948.906 341.007 949.15 339.183Z" fill="white"/>
<path d="M967.011 341.57C967.251 339.776 968.904 338.503 970.708 338.744C972.512 338.985 973.794 340.64 973.553 342.444C973.312 344.248 971.66 345.51 969.836 345.266C968.012 345.023 966.767 343.394 967.011 341.57Z" fill="white"/>
<path d="M1088.92 353.58C1089.36 350.29 1092.39 347.96 1095.75 348.409C1099.11 348.858 1101.48 351.908 1101.04 355.199C1100.6 358.489 1097.53 360.783 1094.16 360.333C1090.79 359.882 1088.48 356.921 1088.92 353.58ZM1099.39 354.979C1099.72 352.531 1098.03 350.287 1095.55 349.956C1093.07 349.625 1090.92 351.355 1090.59 353.803C1090.26 356.251 1091.93 358.462 1094.37 358.788C1096.81 359.114 1099.06 357.447 1099.39 354.979ZM1092.2 356.611L1092.91 351.338C1092.96 350.932 1093.38 350.625 1093.8 350.681L1095.95 350.968C1097.69 351.2 1098.45 352.381 1098.28 353.63C1098.15 354.631 1097.41 355.148 1096.77 355.223C1096.65 355.288 1096.49 355.267 1096.39 355.285L1097.27 356.844C1097.33 356.993 1097.36 357.189 1097.34 357.378C1097.29 357.735 1096.94 358.071 1096.47 358.009C1096.23 357.976 1096.01 357.806 1095.92 357.603L1094.66 355.245C1094.58 355.013 1094.49 354.859 1094.52 354.641C1094.58 354.205 1094.92 353.918 1095.42 353.984L1095.64 354.013C1096.12 354.078 1096.58 353.948 1096.66 353.403C1096.73 352.828 1096.32 352.581 1095.81 352.512L1094.45 352.331L1093.85 356.811C1093.79 357.277 1093.33 357.57 1092.93 357.515C1092.52 357.461 1092.16 357.05 1092.22 356.594L1092.2 356.611Z" fill="white"/>
<path d="M884.694 465.954L889.987 466.661L895.908 489.244L907.511 469.003L913.765 469.838L898.486 496.53L892.549 495.737L884.694 465.954Z" fill="white"/>
<path d="M914.205 498.64L917.977 470.411L923.27 471.118L919.498 499.347L914.205 498.64Z" fill="white"/>
<path d="M938.782 478.78L926.996 477.205L927.73 471.714L955.682 475.449L954.948 480.94L943.638 479.429L940.601 502.167L935.744 501.518L938.782 478.78Z" fill="white"/>
<path d="M965.139 476.702L971.076 477.495L978.812 507.262L972.558 506.426L970.675 499.153L958.8 497.566L955.034 504.085L949.741 503.378L965.139 476.702ZM969.124 493.316L966.676 483.848L961.829 492.341L969.124 493.316Z" fill="white"/>
<path d="M986.836 479.601L992.169 480.313L1002.31 504.278L1018.28 483.802L1024.06 484.574L1020.28 512.803L1015.39 512.149L1017.87 493.544L1004.48 510.692L998.834 509.937L991.153 491.689L988.893 508.609L983.074 507.831L986.846 479.602L986.836 479.601Z" fill="white"/>
<path d="M1027.01 513.712L1030.78 485.483L1036.08 486.19L1032.31 514.419L1027.01 513.712Z" fill="white"/>
<path d="M1042.86 487.086L1048.35 487.819L1062.28 510.372L1064.99 490.043L1070.77 490.815L1067 519.044L1060.94 518.235L1046.76 495.194L1043.98 515.969L1039.09 515.315L1042.86 487.086Z" fill="white"/>
<path d="M1055.52 555.697L882.362 532.562C870.374 530.96 859.357 539.38 857.755 551.369C856.153 563.357 864.573 574.374 876.562 575.976L1049.72 599.112C1061.71 600.713 1072.73 592.293 1074.33 580.305C1075.93 568.316 1067.51 557.299 1055.52 555.697Z" fill="#1CA7D9"/>
<path d="M860.296 604.463C863.27 604.86 864.559 606.838 864.143 609.951L864.061 610.565L861.177 610.18L861.284 609.377C861.47 607.989 860.985 607.39 860.013 607.26C859.042 607.13 858.417 607.582 858.231 608.969C858.046 610.357 858.516 611.519 860.274 613.54C862.531 616.132 863.119 617.845 862.822 620.065C862.406 623.177 860.613 624.744 857.62 624.344C854.626 623.944 853.307 621.962 853.723 618.849L853.882 617.66L856.766 618.045L856.581 619.433C856.396 620.82 856.944 621.398 857.915 621.528C858.887 621.658 859.567 621.244 859.753 619.857C859.938 618.469 859.468 617.306 857.71 615.286C855.454 612.694 854.865 610.981 855.162 608.761C855.578 605.649 857.341 604.078 860.315 604.476L860.296 604.463Z" fill="white"/>
<path d="M869.446 605.907L867.443 620.894C867.258 622.282 867.806 622.86 868.777 622.989C869.749 623.119 870.43 622.706 870.615 621.318L872.617 606.331L875.502 606.716L873.526 621.505C873.11 624.617 871.317 626.184 868.323 625.784C865.33 625.384 864.011 623.402 864.427 620.289L866.403 605.501L869.455 605.909L869.446 605.907Z" fill="white"/>
<path d="M885.991 613.011L885.653 615.539C885.237 618.651 883.515 620.136 880.462 619.728L879.015 619.535L878.04 626.83L874.988 626.422L877.583 606.995L882.083 607.596C885.136 608.004 886.406 609.899 885.992 613.001L885.991 613.011ZM880.265 610.178L879.386 616.759L880.833 616.953C881.804 617.082 882.389 616.707 882.575 615.319L882.964 612.405C883.15 611.017 882.684 610.501 881.712 610.371L880.265 610.178Z" fill="white"/>
<path d="M888.05 608.393L891.103 608.801L888.878 625.453L893.904 626.124L893.533 628.9L885.455 627.82L888.05 608.393Z" fill="white"/>
<path d="M899.416 618.245L903.608 618.805L903.238 621.58L899.045 621.02L898.285 626.71L903.558 627.414L903.187 630.19L894.861 629.077L897.457 609.65L905.783 610.762L905.412 613.538L900.139 612.833L899.416 618.245Z" fill="white"/>
<path d="M912.265 625.672L912.325 625.68L916.22 612.157L920.462 612.723L917.867 632.151L914.982 631.765L916.844 617.829L916.785 617.821L912.871 631.483L909.987 631.098L909.602 617.063L909.542 617.056L907.707 630.793L905.041 630.437L907.636 611.01L911.878 611.577L912.255 625.671L912.265 625.672Z" fill="white"/>
<path d="M924.641 621.615L928.834 622.175L928.463 624.951L924.271 624.391L923.511 630.08L928.784 630.785L928.413 633.56L920.087 632.447L922.682 613.02L931.009 614.133L930.638 616.908L925.365 616.203L924.641 621.615Z" fill="white"/>
<path d="M934.951 620.117L934.891 620.109L933.011 634.184L930.265 633.817L932.861 614.39L936.687 614.901L938.216 626.94L938.275 626.948L939.829 615.321L942.545 615.684L939.949 635.111L936.817 634.693L934.951 620.117Z" fill="white"/>
<path d="M943.854 615.849L953.29 617.11L952.92 619.885L949.728 619.458L947.503 636.11L944.45 635.703L946.675 619.051L943.484 618.624L943.854 615.849Z" fill="white"/>
<path d="M953.747 621.922C954.163 618.81 956.036 617.254 959.039 617.656C962.042 618.057 963.441 620.05 963.025 623.162L961.675 633.262C961.259 636.375 959.387 637.93 956.384 637.529C953.38 637.128 951.982 635.135 952.398 632.023L953.747 621.922ZM955.425 632.619C955.24 634.007 955.784 634.614 956.756 634.744C957.727 634.874 958.412 634.43 958.597 633.043L959.998 622.556C960.184 621.168 959.639 620.561 958.668 620.431C957.697 620.301 957.012 620.744 956.827 622.132L955.425 632.619Z" fill="white"/>
<path d="M977.199 640.078L974.117 639.666L974.063 636.067L970.316 635.567L969.319 639.025L966.514 638.65L972.222 619.639L976.693 620.236L977.209 640.079L977.199 640.078ZM971.054 632.992L973.998 633.385L973.863 623.369L973.803 623.361L971.044 632.991L971.054 632.992Z" fill="white"/>
<path d="M981.212 620.84L984.265 621.248L982.04 637.9L987.066 638.571L986.695 641.347L978.617 640.267L981.212 620.84Z" fill="white"/>
<path d="M990.619 622.097L993.672 622.505L991.076 641.932L988.023 641.524L990.619 622.097Z" fill="white"/>
<path d="M1000.49 637.46L1000.55 637.467L1004.45 623.944L1008.69 624.511L1006.09 643.938L1003.21 643.553L1005.07 629.617L1005.01 629.609L1001.1 643.271L998.213 642.886L997.828 628.851L997.768 628.843L995.933 642.581L993.267 642.225L995.862 622.797L1000.1 623.364L1000.48 637.458L1000.49 637.46Z" fill="white"/>
<path d="M1012.87 633.403L1017.06 633.963L1016.69 636.738L1012.5 636.178L1011.74 641.868L1017.01 642.572L1016.64 645.347L1008.31 644.235L1010.91 624.808L1019.23 625.92L1018.86 628.695L1013.59 627.991L1012.87 633.403Z" fill="white"/>
<path d="M1023.18 631.905L1023.12 631.897L1021.24 645.972L1018.49 645.605L1021.09 626.178L1024.91 626.689L1026.44 638.727L1026.5 638.735L1028.05 627.109L1030.77 627.471L1028.18 646.899L1025.04 646.48L1023.18 631.905Z" fill="white"/>
<path d="M1032.08 627.636L1041.52 628.897L1041.15 631.672L1037.95 631.246L1035.73 647.898L1032.68 647.49L1034.9 630.838L1031.71 630.412L1032.08 627.636Z" fill="white"/>
<path d="M1049.08 649.682L1046 649.27L1045.94 645.671L1042.2 645.171L1041.2 648.629L1038.4 648.254L1044.1 629.243L1048.57 629.84L1049.09 649.683L1049.08 649.682ZM1042.93 642.596L1045.88 642.989L1045.74 632.973L1045.68 632.965L1042.93 642.594L1042.93 642.596Z" fill="white"/>
<path d="M1056.88 650.724C1056.78 650.206 1056.71 649.884 1056.92 648.298L1057.33 645.245C1057.57 643.441 1057.05 642.695 1055.66 642.51L1054.61 642.369L1053.55 650.279L1050.5 649.871L1053.09 630.444L1057.7 631.06C1060.86 631.482 1062.03 633.131 1061.63 636.134L1061.42 637.66C1061.15 639.662 1060.35 640.846 1058.9 641.308L1058.89 641.367C1060.33 642.206 1060.63 643.719 1060.36 645.741L1059.96 648.735C1059.84 649.676 1059.77 650.374 1059.98 651.139L1056.87 650.723L1056.88 650.724ZM1055.78 633.627L1054.98 639.594L1056.17 639.753C1057.31 639.905 1058.07 639.502 1058.28 637.946L1058.53 636.033C1058.72 634.646 1058.32 633.967 1057.24 633.823L1055.78 633.627Z" fill="white"/>
<path d="M865.077 639.888L869.27 640.448L868.899 643.224L864.706 642.663L863.946 648.353L869.219 649.057L868.848 651.833L860.522 650.72L863.118 631.293L871.444 632.405L871.073 635.181L865.8 634.476L865.077 639.888Z" fill="white"/>
<path d="M877.927 647.315L877.986 647.323L881.881 633.8L886.124 634.367L883.528 653.794L880.644 653.409L882.506 639.472L882.446 639.465L878.532 653.127L875.648 652.741L875.263 638.707L875.204 638.699L873.368 652.437L870.702 652.08L873.298 632.653L877.54 633.22L877.917 647.314L877.927 647.315Z" fill="white"/>
<path d="M901.053 641.254L900.715 643.782C900.299 646.894 898.578 648.379 895.525 647.971L894.078 647.778L893.103 655.073L890.05 654.665L892.646 635.238L897.146 635.839C900.199 636.247 901.469 638.142 901.054 641.245L901.053 641.254ZM895.328 638.421L894.448 645.003L895.896 645.196C896.867 645.326 897.452 644.95 897.637 643.562L898.027 640.648C898.212 639.261 897.746 638.744 896.775 638.615L895.328 638.421Z" fill="white"/>
<path d="M910.032 657.335L906.95 656.923L906.896 653.325L903.149 652.824L902.152 656.282L899.347 655.908L905.055 636.896L909.526 637.493L910.042 657.337L910.032 657.335ZM903.897 650.25L906.84 650.644L906.706 640.627L906.646 640.62L903.887 650.249L903.897 650.25Z" fill="white"/>
<path d="M918.188 638.429C921.162 638.826 922.451 640.804 922.035 643.917L921.953 644.531L919.069 644.146L919.176 643.343C919.361 641.955 918.876 641.356 917.905 641.226C916.934 641.096 916.309 641.547 916.123 642.935C915.938 644.323 916.408 645.485 918.166 647.506C920.422 650.097 921.011 651.81 920.714 654.031C920.298 657.143 918.505 658.709 915.512 658.309C912.518 657.909 911.199 655.927 911.615 652.815L911.774 651.626L914.658 652.011L914.473 653.399C914.287 654.786 914.836 655.364 915.807 655.494C916.779 655.624 917.459 655.21 917.645 653.822C917.83 652.435 917.36 651.272 915.602 649.252C913.345 646.66 912.757 644.947 913.054 642.727C913.469 639.614 915.233 638.044 918.207 638.441L918.188 638.429Z" fill="white"/>
<path d="M923.541 639.366L932.977 640.627L932.606 643.402L929.415 642.976L927.19 659.628L924.137 659.22L926.362 642.568L923.17 642.141L923.541 639.366Z" fill="white"/>
<path d="M934.305 640.804L937.358 641.212L934.763 660.639L931.71 660.231L934.305 640.804Z" fill="white"/>
<path d="M939.579 641.509L942.631 641.916L940.407 658.569L945.432 659.24L945.061 662.015L936.983 660.936L939.579 641.509Z" fill="white"/>
<path d="M949.442 662.601L946.389 662.193L948.985 642.765L952.038 643.173L950.925 651.499L954.395 651.963L955.507 643.637L958.619 644.053L956.024 663.48L952.911 663.064L954.024 654.738L950.555 654.275L949.442 662.601Z" fill="white"/>
<path d="M968.126 665.097L965.044 664.685L964.99 661.086L961.243 660.586L960.246 664.044L957.441 663.669L963.149 644.658L967.619 645.255L968.136 665.098L968.126 665.097ZM961.981 658.011L964.924 658.404L964.79 648.388L964.73 648.38L961.971 658.009L961.981 658.011Z" fill="white"/>
<path d="M976.431 646.432L981.258 647.077C984.311 647.485 985.581 649.38 985.167 652.482L983.854 662.305C983.439 665.418 981.717 666.903 978.664 666.495L973.837 665.85L976.432 646.422L976.431 646.432ZM979.113 649.616L977.259 663.492L978.984 663.723C979.955 663.852 980.606 663.435 980.792 662.047L982.141 651.947C982.327 650.559 981.808 649.986 980.837 649.856L979.112 649.625L979.113 649.616Z" fill="white"/>
<path d="M989.719 656.541L993.912 657.101L993.541 659.877L989.349 659.316L988.589 665.006L993.862 665.71L993.491 668.486L985.165 667.373L987.76 647.946L996.086 649.058L995.716 651.834L990.443 651.129L989.719 656.541Z" fill="white"/>
<path d="M1005.7 659.1L1009.97 659.671L1009.15 665.836C1008.73 668.948 1006.94 670.515 1003.95 670.115C1000.95 669.715 999.635 667.733 1000.05 664.62L1001.4 654.52C1001.82 651.408 1003.61 649.841 1006.6 650.241C1009.6 650.641 1010.91 652.624 1010.5 655.736L1010.25 657.619L1007.36 657.234L1007.64 655.152C1007.83 653.765 1007.28 653.157 1006.31 653.027C1005.34 652.898 1004.65 653.341 1004.47 654.728L1003.07 665.215C1002.88 666.603 1003.43 667.181 1004.4 667.31C1005.37 667.44 1006.05 667.027 1006.24 665.639L1006.72 662.061L1005.33 661.875L1005.7 659.1Z" fill="white"/>
<path d="M1012.22 655.966C1012.64 652.854 1014.51 651.298 1017.52 651.699C1020.52 652.101 1021.92 654.094 1021.5 657.206L1020.15 667.306C1019.74 670.418 1017.86 671.974 1014.86 671.573C1011.86 671.172 1010.46 669.179 1010.87 666.067L1012.22 655.966ZM1013.9 666.663C1013.72 668.05 1014.26 668.658 1015.23 668.788C1016.2 668.917 1016.89 668.474 1017.07 667.087L1018.47 656.6C1018.66 655.212 1018.12 654.605 1017.14 654.475C1016.17 654.345 1015.49 654.788 1015.3 656.176L1013.9 666.663Z" fill="white"/>
<path d="M1028.69 667.458L1028.75 667.466L1032.64 653.942L1036.88 654.509L1034.29 673.937L1031.4 673.551L1033.27 659.615L1033.21 659.607L1029.29 673.269L1026.41 672.884L1026.02 658.849L1025.96 658.841L1024.13 672.579L1021.46 672.223L1024.06 652.796L1028.3 653.362L1028.68 667.456L1028.69 667.458Z" fill="white"/>
<path d="M1046.38 675.552L1043.3 675.14L1043.24 671.541L1039.5 671.041L1038.5 674.499L1035.7 674.125L1041.4 655.113L1045.87 655.71L1046.39 675.553L1046.38 675.552ZM1040.25 668.467L1043.19 668.861L1043.05 658.844L1042.99 658.837L1040.24 668.466L1040.25 668.467Z" fill="white"/>
<path d="M1114.48 730.132L1109.6 766.667C1095.55 766.041 1077.54 764.745 1054.46 762.437L1059.75 722.819C1061.77 707.703 1075.66 697.089 1090.77 699.108C1105.89 701.128 1116.5 715.016 1114.48 730.132Z" fill="#1CA7D9"/>
<path d="M1076.15 726.322C1072.72 720.718 1067.25 726.131 1071.11 730.814C1074.41 734.806 1074.93 735.299 1074.95 735.322C1074.97 735.314 1075.6 734.975 1079.83 731.979C1084.79 728.485 1080.93 721.815 1076.15 726.322Z" fill="white"/>
</g>
<path d="M451.214 244.492L510.858 691.117C512.602 704.181 511.138 716.937 507.074 728.587C497.309 756.617 472.484 778.253 441.053 782.45L200.965 814.512C168.86 818.8 138.648 803.726 122.067 778.297C115.659 768.469 111.286 757.098 109.63 744.698L49.986 298.073C49.761 296.388 49.5881 294.716 49.4761 293.046C46.4223 250.536 76.982 212.466 119.802 206.748L118.801 206.881L114.057 171.357L105.859 172.452C103.372 172.784 101.101 171.039 100.77 168.561C100.604 167.322 100.95 166.136 101.654 165.214C102.084 164.653 102.638 164.195 103.283 163.887C91.8708 163.948 92.643 162.403 92.643 162.403C92.643 162.403 88.2589 132.671 86.114 113.739C84.1497 96.3859 96.3813 95.3578 96.3813 95.3578L108.117 93.7905C108.117 93.7905 165.156 86.8191 224.936 79.1386C284.636 70.8634 341.505 62.6232 341.505 62.6232L353.251 61.0546C353.251 61.0546 365.314 58.8384 367.972 76.0985C370.87 94.9305 374.451 124.769 374.451 124.769C374.451 124.769 375.602 126.058 364.564 128.995C366.436 129.34 367.959 130.852 368.225 132.844C368.391 134.083 368.035 135.271 367.331 136.192C366.626 137.113 365.564 137.77 364.325 137.935L356.128 139.03L360.872 174.555L359.89 174.686C403.226 168.899 443.13 198.386 450.672 241.033C450.885 242.175 451.059 243.332 451.214 244.492Z" fill="white" stroke="white" stroke-width="67" stroke-miterlimit="10"/>
<path d="M449.859 243.563L509.503 690.188C511.247 703.252 509.783 716.008 505.719 727.658C495.954 755.688 471.129 777.324 439.698 781.521L199.61 813.584C167.505 817.871 137.294 802.797 120.712 777.369C114.304 767.54 109.931 756.169 108.275 743.769L48.6311 297.144C48.4061 295.459 48.2333 293.787 48.1213 292.117C45.0674 249.607 75.6271 211.537 118.447 205.819L358.536 173.757C401.871 167.97 441.775 197.457 449.317 240.104C449.53 241.246 449.704 242.403 449.859 243.563Z" fill="#E45487"/>
<path d="M354.774 138.111L112.703 170.438L117.446 205.953L359.517 173.626L354.774 138.111Z" fill="#E45487"/>
<path d="M373.096 123.84C373.096 123.84 379.067 130.549 232.921 148.149C87.2772 169.515 91.2782 161.475 91.2782 161.475C91.2782 161.475 86.904 131.742 84.7591 112.81C82.7949 95.457 95.0165 94.4303 95.0165 94.4303L106.752 92.863C106.752 92.863 163.791 85.8915 223.571 78.2111C283.271 69.9359 340.14 61.6957 340.14 61.6957L351.876 60.1285C351.876 60.1285 363.949 57.9109 366.597 75.1723C369.495 94.0043 373.077 123.843 373.077 123.843L373.096 123.84Z" fill="#FCA0C9"/>
<path d="M361.781 128.025L103.305 162.542C100.825 162.874 99.0836 165.152 99.4148 167.632C99.7459 170.112 102.025 171.854 104.505 171.523L362.98 137.005C365.46 136.674 367.202 134.395 366.87 131.915C366.539 129.436 364.261 127.694 361.781 128.025Z" fill="#E45487"/>
<path d="M129.978 271.541C75.0545 219.715 30.6659 296.335 87.6149 336.51C136.299 370.848 143.56 374.761 143.779 374.884C143.967 374.707 149.947 369.025 187.905 323.117C232.306 269.407 169.367 207.12 129.978 271.541Z" fill="#FF7BC0"/>
<path d="M243.887 238.351C177.322 202.698 154.517 288.26 219.983 312.134C275.949 332.556 283.977 334.43 284.237 334.486C284.369 334.266 288.655 327.227 313.291 272.979C342.106 209.526 265.069 165.869 243.887 238.351Z" fill="#FF7BC0"/>
<path d="M370.61 247.629C333.527 181.848 268.417 241.855 310.884 297.11C347.185 344.34 352.966 350.227 353.142 350.415C353.369 350.304 360.771 346.652 410.636 314.065C468.974 275.948 427.332 197.792 370.6 247.63L370.61 247.629Z" fill="#FF7BC0"/>
<path d="M450.731 243.446L510.375 690.071C512.12 703.135 510.655 715.892 506.592 727.542C500.413 729.325 492.601 731.337 482.706 733.546C468.984 736.63 451.268 740.106 428.384 743.938C399.651 748.774 362.771 754.173 315.458 760.088C315.458 760.088 264.313 767.604 208.223 772.694C189.812 774.365 170.862 775.776 153.02 776.565C141.998 777.058 131.388 777.315 121.584 777.252C115.177 767.424 110.803 756.053 109.147 743.653L49.5034 297.027C49.2783 295.342 49.1055 293.671 48.9935 292.001C108.807 291.751 305.927 287.189 450.189 239.988C450.402 241.13 450.577 242.287 450.731 243.446Z" fill="#FCA0C9"/>
<path d="M216.008 414.047L204.51 415.583C203.935 415.66 203.522 416.189 203.6 416.774L206.938 441.772C207.015 442.347 206.613 442.885 206.028 442.963L178.453 446.645C177.878 446.722 177.34 446.32 177.262 445.735L173.923 420.737C173.847 420.162 173.317 419.748 172.732 419.826L161.135 421.375C160.56 421.452 160.147 421.981 160.225 422.566L168.894 487.48C168.971 488.055 169.5 488.468 170.085 488.39L181.682 486.842C182.257 486.765 182.67 486.235 182.592 485.651L179.127 459.701C179.05 459.126 179.452 458.588 180.037 458.51L207.612 454.827C208.187 454.751 208.725 455.153 208.803 455.738L212.269 481.687C212.345 482.262 212.875 482.676 213.46 482.598L224.958 481.062C225.532 480.986 225.946 480.456 225.868 479.871L217.199 414.958C217.122 414.383 216.593 413.969 216.008 414.047Z" fill="white"/>
<path d="M261.358 409.293C260.722 408.308 259.689 407.599 258.515 407.493C256.716 407.32 255.109 408.432 254.582 410.076L232.726 478.491C232.491 479.229 233.104 479.964 233.877 479.861L246.277 478.205C246.693 478.15 247.037 477.852 247.154 477.442L250.684 465.046L279.587 461.186L286.237 472.223C286.457 472.587 286.867 472.785 287.283 472.729L299.584 471.086C300.357 470.983 300.755 470.113 300.335 469.463L261.358 409.293ZM270.684 443.318L263.693 452.463C263.573 452.621 263.395 452.725 263.207 452.75C263.018 452.775 262.809 452.723 262.662 452.601L253.516 445.61C252.178 444.73 251.219 443.294 250.99 441.579C250.571 438.437 252.777 435.539 255.929 435.119C257.98 434.845 259.92 435.695 261.14 437.197C261.924 435.438 263.571 434.098 265.623 433.824C268.765 433.404 271.662 435.61 272.083 438.762C272.312 440.477 271.753 442.105 270.704 443.315L270.684 443.318Z" fill="white"/>
<path d="M299.11 402.95L310.707 401.401C311.282 401.324 311.82 401.726 311.898 402.311L320.567 467.225C320.644 467.8 320.242 468.338 319.657 468.416L308.06 469.965C307.485 470.041 306.947 469.639 306.869 469.054L298.2 404.141C298.123 403.566 298.526 403.028 299.11 402.95Z" fill="white"/>
<path d="M385.271 458.04L367.926 435.739C367.512 435.209 367.692 434.439 368.299 434.146C372.522 432.079 375.546 429.415 377.372 426.165C379.37 422.619 380.02 418.265 379.329 413.09C378.366 405.884 375.209 400.828 369.85 397.942C364.491 395.056 356.523 394.314 345.927 395.729C342.289 396.215 338.351 396.872 334.104 397.701C330.181 398.467 326.407 399.375 322.806 400.431C322.301 400.579 321.994 401.074 322.062 401.589L330.649 465.889C330.726 466.464 331.255 466.877 331.84 466.799L343.437 465.25C344.012 465.174 344.426 464.644 344.347 464.059L341.197 440.469C341.112 439.834 341.603 439.275 342.238 439.27C344.366 439.269 346.609 439.141 348.975 438.875C350.298 438.81 351.591 438.677 352.856 438.478C353.243 438.426 353.635 438.566 353.868 438.878L370.632 461.064C370.864 461.366 371.239 461.528 371.616 461.477L384.59 459.745C385.403 459.636 385.781 458.688 385.282 458.048L385.271 458.04ZM362.547 424.24C359.989 426.236 355.865 427.614 350.185 428.373C346.666 428.843 343.457 429.059 340.556 429.023C340.03 429.012 339.605 428.625 339.535 428.1L337.18 410.466C337.112 409.951 337.429 409.455 337.924 409.308C340.713 408.512 343.867 407.879 347.385 407.409C353.065 406.65 357.409 406.918 360.405 408.202C363.401 409.487 365.148 411.988 365.642 415.685C366.135 419.382 365.104 422.234 362.545 424.23L362.547 424.24Z" fill="white"/>
<path d="M352.661 343.488C352.01 343 351.25 342.819 350.368 342.937C349.486 343.054 348.8 343.439 348.3 344.07C347.8 344.712 347.607 345.454 347.719 346.297L349.375 358.697C349.539 359.926 349.46 360.996 349.138 361.906C348.816 362.817 348.277 363.545 347.523 364.089C346.768 364.634 345.806 364.985 344.617 365.143C342.892 365.374 341.497 365.126 340.412 364.403C339.336 363.679 338.653 362.267 338.373 360.166L336.717 347.766C336.604 346.924 336.224 346.268 335.573 345.77C334.922 345.282 334.162 345.101 333.279 345.219C332.397 345.337 331.712 345.721 331.211 346.352C330.712 346.994 330.518 347.736 330.631 348.579L332.518 362.713C332.759 364.517 333.341 366.074 334.282 367.381C335.213 368.689 336.4 369.641 337.844 370.255C339.288 370.869 340.897 371.058 342.691 370.818C344.207 370.616 345.541 370.256 346.673 369.742C347.805 369.227 348.766 368.564 349.526 367.757C349.88 367.386 350.189 366.982 350.473 366.54L350.542 367.056C350.762 368.701 350.677 370.034 350.279 371.056C349.881 372.078 349.198 372.855 348.221 373.399C347.244 373.943 345.972 374.315 344.426 374.521C343.276 374.675 342.243 374.641 341.316 374.422C340.388 374.203 339.652 374.049 339.084 373.953C338.306 373.795 337.598 373.93 336.969 374.357C336.34 374.784 335.929 375.484 335.757 376.466C335.615 377.211 335.783 377.865 336.254 378.447C336.725 379.03 337.498 379.452 338.566 379.743C339.383 379.967 340.415 380.071 341.656 380.067C342.896 380.062 344.057 379.988 345.137 379.844C347.575 379.518 349.714 378.839 351.574 377.804C353.433 376.769 354.82 375.292 355.755 373.381C356.689 371.461 356.949 369.025 356.552 366.052L353.804 345.474C353.691 344.632 353.311 343.976 352.66 343.478L352.661 343.488Z" fill="white"/>
<path d="M170.365 374.299C169.004 364.11 175.937 354.982 186.067 353.629C191.588 352.892 196.674 354.634 200.233 357.72C200.863 358.201 201.229 358.979 201.318 359.643C201.535 361.269 200.392 362.763 198.717 362.987C197.954 363.089 197.031 362.748 196.182 362.135C193.733 360.041 190.48 358.871 186.832 359.358C180.142 360.251 175.556 366.483 176.491 373.481C177.425 380.479 183.479 385.24 190.169 384.346C195.443 383.642 199.492 379.59 200.355 374.118L191.692 375.275C190.116 375.485 188.744 374.428 188.541 372.911C188.339 371.395 189.389 369.963 190.955 369.754L203.573 368.069C205.089 367.866 206.471 368.923 206.702 370.647C207.561 379.047 201.33 388.748 190.942 390.135C180.555 391.522 171.727 384.499 170.366 374.309L170.365 374.299Z" fill="white"/>
<path d="M230.534 384.646C230.376 384.667 230.217 384.688 230.058 384.709C218.447 385.998 212.34 378.197 210.512 370.471C210.139 368.887 211.118 367.303 212.701 366.92C214.284 366.537 215.869 367.526 216.252 369.11C217.034 372.395 219.874 379.915 229.417 378.853C229.536 378.837 229.645 378.822 229.764 378.806C238.219 377.677 240.823 370.358 240.455 365.938C240.32 364.322 241.53 362.879 243.149 362.763C244.775 362.627 246.198 363.839 246.323 365.457C247.001 373.71 241.695 383.155 230.544 384.644L230.534 384.646Z" fill="white"/>
<path d="M249.412 359.425C249.184 357.72 250.325 356.216 252.04 355.987C253.418 355.803 254.703 356.59 255.134 357.702L255.245 358.081C256.241 356.324 258.049 355.124 260.586 354.785C263.401 354.409 266.083 355.231 268.298 357.912C269.612 354.76 272.441 353.202 275.692 352.768C281.53 351.988 286.451 355.599 287.371 362.487L288.901 373.946C289.129 375.651 287.995 377.204 286.28 377.433C284.565 377.662 283.063 376.461 282.835 374.756L281.297 363.238C280.811 359.6 278.534 358.109 275.887 358.462C273.241 358.816 271.494 360.845 271.98 364.482L273.518 376C273.746 377.705 272.552 379.267 270.897 379.488C269.241 379.709 267.679 378.515 267.452 376.81L265.914 365.292C265.428 361.655 263.101 360.17 260.504 360.516C257.907 360.863 256.051 362.907 256.537 366.545L258.075 378.062C258.303 379.767 257.168 381.321 255.454 381.55C253.739 381.779 252.237 380.577 252.009 378.872L249.411 359.415L249.412 359.425Z" fill="white"/>
<path d="M290.071 353.995C289.843 352.29 290.984 350.786 292.699 350.557C294.077 350.373 295.362 351.16 295.793 352.273L295.904 352.651C296.9 350.894 298.708 349.694 301.245 349.355C304.06 348.979 306.742 349.802 308.957 352.482C310.271 349.33 313.1 347.772 316.351 347.338C322.189 346.558 327.11 350.169 328.03 357.058L329.56 368.516C329.788 370.221 328.654 371.775 326.939 372.004C325.224 372.233 323.722 371.031 323.494 369.326L321.956 357.808C321.47 354.171 319.193 352.679 316.546 353.032C313.9 353.386 312.153 355.415 312.639 359.053L314.177 370.57C314.405 372.275 313.211 373.837 311.556 374.058C309.9 374.279 308.339 373.085 308.111 371.38L306.573 359.863C306.087 356.225 303.76 354.74 301.163 355.087C298.566 355.434 296.71 357.477 297.196 361.115L298.734 372.633C298.962 374.337 297.827 375.891 296.113 376.12C294.398 376.349 292.896 375.148 292.668 373.443L290.07 353.985L290.071 353.995Z" fill="white"/>
<path d="M215.343 363.208C215.103 361.414 216.364 359.752 218.168 359.511C219.972 359.271 221.644 360.53 221.885 362.334C222.126 364.138 220.863 365.79 219.039 366.034C217.216 366.277 215.586 365.032 215.343 363.208Z" fill="white"/>
<path d="M233.214 360.821C232.975 359.027 234.236 357.366 236.04 357.125C237.844 356.884 239.515 358.144 239.756 359.948C239.997 361.752 238.735 363.403 236.911 363.647C235.087 363.891 233.458 362.645 233.214 360.821Z" fill="white"/>
<path d="M354.006 340.413C353.566 337.122 355.874 334.08 359.234 333.631C362.594 333.182 365.679 335.505 366.118 338.795C366.558 342.086 364.196 345.105 360.826 345.555C357.456 346.005 354.452 343.753 354.006 340.413ZM364.463 339.016C364.136 336.568 361.918 334.847 359.44 335.177C356.962 335.508 355.334 337.744 355.661 340.192C355.988 342.64 358.181 344.335 360.62 344.009C363.058 343.683 364.792 341.485 364.463 339.016ZM357.965 342.487L357.261 337.214C357.207 336.808 357.536 336.4 357.952 336.345L360.103 336.058C361.837 335.826 362.881 336.766 363.048 338.015C363.181 339.016 362.608 339.708 362.005 339.95C361.906 340.044 361.748 340.065 361.662 340.107L362.912 341.382C363.01 341.511 363.095 341.691 363.12 341.879C363.168 342.236 362.921 342.653 362.455 342.715C362.207 342.748 361.95 342.641 361.816 342.467L359.983 340.523C359.845 340.319 359.717 340.195 359.688 339.977C359.63 339.541 359.883 339.174 360.379 339.108L360.597 339.079C361.083 339.014 361.494 338.767 361.421 338.222C361.344 337.647 360.883 337.517 360.367 337.586L359.009 337.767L359.608 342.248C359.67 342.713 359.31 343.115 358.904 343.169C358.497 343.223 358.043 342.921 357.982 342.465L357.965 342.487Z" fill="white"/>
<path d="M186.431 502.46L191.724 501.753L203.365 521.991L209.248 499.413L215.503 498.578L207.765 528.344L201.828 529.137L186.431 502.46Z" fill="white"/>
<path d="M223.485 526.245L219.715 498.015L225.008 497.309L228.778 525.538L223.485 526.245Z" fill="white"/>
<path d="M241.978 500.632L230.192 502.206L229.459 496.714L257.411 492.981L258.144 498.473L246.835 499.983L249.871 522.721L245.014 523.37L241.978 500.632Z" fill="white"/>
<path d="M266.877 491.717L272.814 490.924L288.092 517.617L281.837 518.452L278.111 511.928L266.236 513.514L264.313 520.793L259.02 521.499L266.877 491.717ZM275.083 506.703L270.236 498.21L267.787 507.677L275.083 506.703Z" fill="white"/>
<path d="M288.564 488.821L293.897 488.109L309.977 508.571L320.005 484.622L325.784 483.851L329.554 512.08L324.657 512.734L322.173 494.129L313.754 514.19L308.104 514.945L295.903 499.352L298.162 516.272L292.344 517.049L288.574 488.82L288.564 488.821Z" fill="white"/>
<path d="M336.294 511.18L332.524 482.951L337.817 482.244L341.587 510.473L336.294 511.18Z" fill="white"/>
<path d="M344.587 481.34L350.078 480.606L369.435 498.713L366.72 478.384L372.499 477.612L376.269 505.842L370.213 506.65L350.479 488.14L353.253 508.915L348.357 509.569L344.587 481.34Z" fill="white"/>
<path d="M374.826 544.22L201.664 567.345C189.675 568.946 181.254 579.963 182.855 591.951C184.456 603.94 195.473 612.361 207.461 610.76L380.624 587.635C392.613 586.034 401.034 575.017 399.433 563.029C397.832 551.04 386.815 542.619 374.826 544.22Z" fill="#ED2D8B"/>
<path d="M199.241 642.507C202.215 642.11 203.978 643.68 204.394 646.793L204.476 647.407L201.592 647.792L201.484 646.989C201.299 645.602 200.674 645.151 199.702 645.28C198.731 645.41 198.246 646.01 198.431 647.397C198.617 648.785 199.376 649.783 201.602 651.272C204.46 653.18 205.477 654.679 205.774 656.899C206.189 660.011 204.87 661.993 201.877 662.393C198.883 662.793 197.09 661.226 196.675 658.114L196.516 656.925L199.4 656.539L199.585 657.927C199.771 659.315 200.452 659.728 201.423 659.599C202.394 659.469 202.943 658.891 202.757 657.504C202.572 656.116 201.813 655.118 199.587 653.629C196.729 651.721 195.711 650.222 195.415 648.002C194.999 644.889 196.289 642.911 199.262 642.514L199.241 642.507Z" fill="white"/>
<path d="M208.45 641.509L210.452 656.496C210.637 657.884 211.318 658.297 212.289 658.168C213.26 658.038 213.809 657.46 213.624 656.073L211.622 641.086L214.507 640.7L216.481 655.489C216.897 658.602 215.578 660.584 212.584 660.983C209.591 661.383 207.798 659.817 207.382 656.704L205.407 641.916L208.46 641.508L208.45 641.509Z" fill="white"/>
<path d="M226.278 644.011L226.616 646.539C227.032 649.651 225.76 651.536 222.707 651.944L221.26 652.137L222.234 659.432L219.181 659.84L216.587 640.413L221.087 639.812C224.14 639.404 225.863 640.899 226.277 644.001L226.278 644.011ZM220.012 642.79L220.89 649.372L222.338 649.178C223.309 649.049 223.775 648.533 223.589 647.145L223.2 644.231C223.015 642.843 222.43 642.467 221.459 642.597L220.012 642.79Z" fill="white"/>
<path d="M227.045 639.026L230.098 638.618L232.322 655.27L237.347 654.599L237.718 657.375L229.64 658.454L227.045 639.026Z" fill="white"/>
<path d="M240.608 645.548L244.801 644.988L245.171 647.764L240.979 648.323L241.738 654.013L247.011 653.309L247.382 656.084L239.056 657.196L236.462 637.768L244.788 636.657L245.158 639.432L239.885 640.136L240.608 645.548Z" fill="white"/>
<path d="M254.945 649.334L255.005 649.326L255.214 635.254L259.456 634.688L262.051 654.115L259.166 654.5L257.305 640.564L257.246 640.572L257.055 654.782L254.17 655.168L250.116 641.726L250.056 641.734L251.891 655.472L249.224 655.828L246.63 636.401L250.872 635.834L254.935 649.335L254.945 649.334Z" fill="white"/>
<path d="M265.834 642.179L270.027 641.619L270.397 644.395L266.205 644.955L266.964 650.644L272.238 649.94L272.608 652.715L264.282 653.827L261.688 634.4L270.014 633.288L270.384 636.063L265.111 636.767L265.834 642.179Z" fill="white"/>
<path d="M275.387 638.018L275.338 638.025L277.217 652.1L274.472 652.467L271.877 633.039L275.713 632.527L280.348 643.742L280.408 643.734L278.855 632.107L281.571 631.744L284.166 651.172L281.033 651.59L275.407 638.016L275.387 638.018Z" fill="white"/>
<path d="M282.86 631.572L292.296 630.312L292.667 633.088L289.475 633.514L291.699 650.166L288.646 650.574L286.422 633.922L283.23 634.348L282.86 631.572Z" fill="white"/>
<path d="M293.998 634.827C293.583 631.714 294.981 629.722 297.985 629.32C300.988 628.919 302.86 630.475 303.276 633.588L304.625 643.688C305.041 646.8 303.642 648.793 300.639 649.194C297.635 649.595 295.763 648.039 295.347 644.927L293.998 634.827ZM298.427 644.717C298.612 646.105 299.297 646.548 300.268 646.419C301.239 646.289 301.784 645.682 301.599 644.294L300.198 633.807C300.013 632.419 299.328 631.976 298.357 632.106C297.385 632.235 296.841 632.843 297.026 634.231L298.427 644.717Z" fill="white"/>
<path d="M321.395 646.2L318.312 646.612L317.316 643.153L313.569 643.654L313.515 647.253L310.71 647.627L311.228 627.784L315.698 627.187L321.405 646.199L321.395 646.2ZM313.604 640.966L316.547 640.572L313.789 630.943L313.729 630.951L313.594 640.967L313.604 640.966Z" fill="white"/>
<path d="M320.218 626.583L323.271 626.176L325.495 642.828L330.52 642.157L330.891 644.932L322.812 646.011L320.218 626.583Z" fill="white"/>
<path d="M329.625 625.327L332.677 624.92L335.272 644.347L332.219 644.755L329.625 625.327Z" fill="white"/>
<path d="M343.182 637.55L343.231 637.544L343.441 623.472L347.693 622.904L350.287 642.332L347.403 642.717L345.542 628.781L345.482 628.789L345.292 642.999L342.407 643.384L338.352 629.943L338.303 629.949L340.137 643.687L337.471 644.043L334.877 624.616L339.129 624.048L343.192 637.549L343.182 637.55Z" fill="white"/>
<path d="M354.061 630.397L358.253 629.837L358.624 632.613L354.431 633.173L355.191 638.862L360.464 638.158L360.835 640.933L352.509 642.045L349.914 622.618L358.241 621.506L358.611 624.281L353.338 624.985L354.061 630.397Z" fill="white"/>
<path d="M363.614 626.236L363.564 626.243L365.444 640.318L362.698 640.684L360.104 621.257L363.94 620.745L368.575 631.96L368.635 631.952L367.082 620.325L369.798 619.962L372.392 639.39L369.26 639.808L363.634 626.234L363.614 626.236Z" fill="white"/>
<path d="M371.086 619.79L380.523 618.53L380.893 621.306L377.702 621.732L379.925 638.384L376.873 638.792L374.649 622.139L371.457 622.566L371.086 619.79Z" fill="white"/>
<path d="M393.277 636.601L390.194 637.013L389.198 633.554L385.451 634.054L385.397 637.653L382.592 638.028L383.11 618.185L387.58 617.588L393.277 636.601ZM385.485 631.366L388.429 630.973L385.67 621.344L385.611 621.351L385.476 631.368L385.485 631.366Z" fill="white"/>
<path d="M401.068 635.561C400.833 635.087 400.683 634.795 400.471 633.209L400.064 630.156C399.823 628.352 399.119 627.77 397.732 627.955L396.681 628.095L397.737 636.005L394.684 636.413L392.09 616.985L396.699 616.37C399.861 615.948 401.415 617.233 401.816 620.237L402.02 621.763C402.287 623.765 401.822 625.119 400.54 625.946L400.548 626.005C402.16 626.436 402.848 627.817 403.118 629.839L403.518 632.832C403.644 633.774 403.766 634.464 404.17 635.146L401.058 635.562L401.068 635.561ZM395.514 619.353L396.31 625.32L397.51 625.16C398.65 625.008 399.277 624.419 399.069 622.863L398.814 620.95C398.629 619.563 398.071 619.012 396.99 619.156L395.523 619.352L395.514 619.353Z" fill="white"/>
<path d="M213.154 675.445L217.346 674.885L217.717 677.661L213.524 678.221L214.284 683.91L219.557 683.206L219.928 685.981L211.602 687.093L209.007 667.666L217.334 666.554L217.704 669.329L212.431 670.033L213.154 675.445Z" fill="white"/>
<path d="M227.501 679.229L227.56 679.222L227.77 665.15L232.012 664.583L234.606 684.011L231.722 684.396L229.861 670.46L229.801 670.468L229.611 684.678L226.726 685.063L222.671 671.622L222.612 671.63L224.447 685.368L221.78 685.724L219.186 666.296L223.428 665.73L227.491 679.231L227.501 679.229Z" fill="white"/>
<path d="M248.226 667.311L248.563 669.839C248.979 672.951 247.707 674.836 244.654 675.244L243.207 675.437L244.181 682.732L241.128 683.14L238.534 663.713L243.034 663.112C246.087 662.704 247.81 664.199 248.224 667.301L248.226 667.311ZM241.959 666.09L242.838 672.672L244.285 672.478C245.256 672.349 245.722 671.832 245.537 670.445L245.148 667.531C244.962 666.143 244.377 665.767 243.406 665.897L241.959 666.09Z" fill="white"/>
<path d="M261.112 680.481L258.03 680.893L257.033 677.435L253.286 677.935L253.232 681.534L250.427 681.908L250.945 662.065L255.415 661.468L261.122 680.48L261.112 680.481ZM253.321 675.247L256.265 674.854L253.506 665.224L253.446 665.232L253.311 675.248L253.321 675.247Z" fill="white"/>
<path d="M264.008 660.089C266.982 659.692 268.745 661.262 269.161 664.374L269.243 664.989L266.359 665.374L266.252 664.571C266.066 663.183 265.441 662.732 264.47 662.862C263.498 662.992 263.013 663.591 263.199 664.979C263.384 666.367 264.143 667.365 266.369 668.853C269.227 670.762 270.244 672.26 270.541 674.481C270.957 677.593 269.637 679.575 266.644 679.975C263.651 680.374 261.857 678.808 261.442 675.696L261.283 674.506L264.167 674.121L264.353 675.509C264.538 676.896 265.219 677.31 266.19 677.18C267.161 677.05 267.71 676.473 267.524 675.085C267.339 673.697 266.58 672.699 264.354 671.211C261.496 669.302 260.479 667.804 260.182 665.583C259.767 662.471 261.056 660.493 264.03 660.096L264.008 660.089Z" fill="white"/>
<path d="M269.431 659.596L278.867 658.336L279.238 661.112L276.046 661.538L278.27 678.19L275.217 678.598L272.993 661.946L269.802 662.372L269.431 659.596Z" fill="white"/>
<path d="M280.195 658.159L283.248 657.751L285.843 677.179L282.79 677.587L280.195 658.159Z" fill="white"/>
<path d="M285.469 657.455L288.522 657.047L290.745 673.699L295.771 673.028L296.141 675.804L288.063 676.882L285.469 657.455Z" fill="white"/>
<path d="M300.522 675.218L297.47 675.626L294.875 656.199L297.928 655.791L299.04 664.117L302.509 663.654L301.397 655.328L304.5 654.913L307.094 674.341L303.992 674.755L302.88 666.429L299.411 666.892L300.522 675.218Z" fill="white"/>
<path d="M319.197 672.725L316.114 673.136L315.117 669.678L311.371 670.178L311.317 673.777L308.512 674.152L309.029 654.308L313.5 653.711L319.197 672.725ZM311.415 667.489L314.359 667.095L311.6 657.466L311.541 657.474L311.405 667.49L311.415 667.489Z" fill="white"/>
<path d="M322.322 652.533L327.149 651.889C330.202 651.481 331.925 652.976 332.339 656.079L333.651 665.901C334.066 669.014 332.795 670.899 329.742 671.306L324.915 671.951L322.32 652.523L322.322 652.533ZM325.745 654.901L327.598 668.778L329.313 668.549C330.284 668.419 330.803 667.845 330.618 666.458L329.269 656.357C329.084 654.97 328.433 654.552 327.461 654.682L325.746 654.911L325.745 654.901Z" fill="white"/>
<path d="M337.797 658.8L341.99 658.24L342.361 661.015L338.168 661.575L338.928 667.265L344.201 666.561L344.571 669.336L336.245 670.448L333.651 651.02L341.977 649.908L342.348 652.684L337.074 653.388L337.797 658.8Z" fill="white"/>
<path d="M353.89 657.075L358.162 656.504L358.986 662.669C359.401 665.782 358.082 667.764 355.089 668.164C352.095 668.563 350.302 666.997 349.887 663.885L348.538 653.784C348.122 650.672 349.441 648.69 352.435 648.29C355.428 647.89 357.221 649.457 357.637 652.569L357.888 654.452L355.004 654.838L354.726 652.756C354.541 651.368 353.856 650.925 352.885 651.055C351.913 651.184 351.369 651.792 351.554 653.18L352.955 663.666C353.14 665.054 353.821 665.468 354.792 665.338C355.764 665.208 356.312 664.631 356.127 663.243L355.649 659.665L354.261 659.85L353.89 657.075Z" fill="white"/>
<path d="M359.36 652.329C358.945 649.216 360.343 647.224 363.347 646.823C366.35 646.422 368.222 647.977 368.638 651.09L369.987 661.19C370.402 664.303 369.004 666.295 366.001 666.696C362.997 667.097 361.125 665.541 360.709 662.429L359.36 652.329ZM363.789 662.22C363.974 663.607 364.659 664.051 365.63 663.921C366.601 663.791 367.146 663.184 366.96 661.796L365.56 651.309C365.375 649.921 364.69 649.478 363.719 649.608C362.747 649.738 362.203 650.345 362.388 651.733L363.789 662.22Z" fill="white"/>
<path d="M378.253 659.098L378.312 659.09L378.521 645.018L382.764 644.452L385.358 663.879L382.474 664.264L380.613 650.328L380.553 650.336L380.362 664.546L377.478 664.931L373.423 651.49L373.364 651.498L375.198 665.236L372.532 665.592L369.937 646.164L374.18 645.598L378.243 659.099L378.253 659.098Z" fill="white"/>
<path d="M397.462 662.273L394.379 662.685L393.383 659.226L389.636 659.726L389.582 663.325L386.777 663.7L387.295 643.857L391.765 643.26L397.462 662.273ZM389.68 657.037L392.624 656.644L389.865 647.014L389.806 647.022L389.67 657.038L389.68 657.037Z" fill="white"/>
<path d="M477.5 697.054L482.379 733.59C468.657 736.674 450.941 740.149 428.057 743.982L422.766 704.364C420.747 689.248 431.363 675.361 446.478 673.342C461.594 671.323 475.482 681.939 477.5 697.054Z" fill="#ED2D8B"/>
<path d="M439.511 703.439C434.732 698.932 430.87 705.592 435.827 709.097C440.06 712.083 440.69 712.422 440.713 712.439C440.731 712.427 441.251 711.934 444.55 707.932C448.416 703.259 442.939 697.836 439.511 703.439Z" fill="white"/>
<path d="M829.83 252.59V703.18C829.83 716.36 826.69 728.81 821.12 739.82C807.73 766.31 780.26 784.47 748.55 784.47H506.33C473.94 784.47 445.99 765.53 432.92 738.13C427.87 727.54 425.04 715.69 425.04 703.18V252.59C425.04 250.89 425.09 249.21 425.2 247.54C427.8 205 463.13 171.31 506.33 171.31H505.32V135.47H497.05C494.54 135.47 492.52 133.44 492.52 130.94C492.52 129.69 493.02 128.56 493.84 127.74C494.34 127.24 494.95 126.86 495.63 126.64C484.31 125.19 485.28 123.76 485.28 123.76C485.28 123.76 484.87 93.71 485.25 74.66C485.6 57.2 497.86 57.8 497.86 57.8H509.7C509.7 57.8 567.16 58.44 627.43 58.74C687.7 58.44 745.16 57.8 745.16 57.8H757.01C757.01 57.8 769.26 57.2 769.61 74.66C769.99 93.71 769.59 123.76 769.59 123.76C769.59 123.76 770.56 125.19 759.23 126.64C761.04 127.23 762.35 128.93 762.35 130.94C762.35 132.19 761.84 133.32 761.02 134.14C760.2 134.96 759.06 135.47 757.81 135.47H749.54V171.31H748.55C792.27 171.31 827.92 205.82 829.75 249.09C829.81 250.25 829.83 251.42 829.83 252.59Z" fill="white" stroke="white" stroke-width="67" stroke-miterlimit="10"/>
<path d="M829.39 252.59V703.18C829.39 716.36 826.25 728.81 820.68 739.82C807.29 766.31 779.82 784.47 748.11 784.47H505.89C473.5 784.47 445.55 765.53 432.48 738.13C427.43 727.54 424.6 715.69 424.6 703.18V252.59C424.6 250.89 424.65 249.21 424.76 247.54C427.36 205 462.69 171.31 505.89 171.31H748.11C791.83 171.31 827.48 205.82 829.31 249.09C829.37 250.25 829.39 251.42 829.39 252.59Z" fill="#1F7D09"/>
<path d="M749.11 135.47H504.89V171.3H749.11V135.47Z" fill="#1F7D09"/>
<path d="M769.15 123.75C769.15 123.75 774.18 131.19 626.99 129.29C479.8 131.19 484.83 123.75 484.83 123.75C484.83 123.75 484.43 93.7 484.81 74.65C485.16 57.19 497.41 57.79 497.41 57.79H509.25C509.25 57.79 566.71 58.43 626.98 58.73C687.25 58.43 744.71 57.79 744.71 57.79H756.55C756.55 57.79 768.81 57.19 769.15 74.65C769.53 93.7 769.13 123.75 769.13 123.75H769.15Z" fill="#9FD974"/>
<path d="M757.38 126.4H496.61C494.108 126.4 492.08 128.428 492.08 130.93C492.08 133.432 494.108 135.46 496.61 135.46H757.38C759.882 135.46 761.91 133.432 761.91 130.93C761.91 128.428 759.882 126.4 757.38 126.4Z" fill="#1F7D09"/>
<path d="M508.62 237.97C461.04 179.33 406.9 249.4 458.03 296.76C501.74 337.24 508.42 342.08 508.62 342.23C508.83 342.08 515.51 337.24 559.21 296.76C610.33 249.4 556.19 179.33 508.62 237.97Z" fill="#CAEEA2"/>
<path d="M625.92 220.15C564.66 176 530.73 257.79 592.46 290.12C645.23 317.77 652.94 320.69 653.19 320.78C653.35 320.58 658.53 314.17 690.13 263.66C727.09 204.58 656.51 151.11 625.92 220.15Z" fill="#CAEEA2"/>
<path d="M750.31 246.13C722.26 176.02 649.78 226.88 684.56 287.27C714.29 338.89 719.24 345.49 719.39 345.7C719.63 345.62 727.45 342.98 781.19 317.28C844.06 287.22 813.13 204.24 750.3 246.13H750.31Z" fill="#CAEEA2"/>
<path d="M830.27 252.58V703.17C830.27 716.35 827.13 728.8 821.56 739.81C815.2 740.76 807.19 741.72 797.09 742.6C783.08 743.84 765.06 744.94 741.87 745.71C712.75 746.7 675.48 747.17 627.8 746.77C627.8 746.77 576.11 747.45 519.84 745.07C501.37 744.29 482.4 743.18 464.61 741.6C453.62 740.63 443.07 739.48 433.36 738.12C428.31 727.53 425.48 715.68 425.48 703.17V252.58C425.48 250.88 425.53 249.2 425.64 247.53C484.96 255.2 680.95 276.77 830.19 249.08C830.25 250.24 830.27 251.41 830.27 252.58Z" fill="#9FD974"/>
<path d="M575.03 390.61H563.43C562.85 390.61 562.37 391.08 562.37 391.67V416.89C562.37 417.47 561.9 417.95 561.31 417.95H533.49C532.91 417.95 532.43 417.48 532.43 416.89V391.67C532.43 391.09 531.96 390.61 531.37 390.61H519.67C519.09 390.61 518.61 391.08 518.61 391.67V457.16C518.61 457.74 519.08 458.22 519.67 458.22H531.37C531.95 458.22 532.43 457.75 532.43 457.16V430.98C532.43 430.4 532.9 429.92 533.49 429.92H561.31C561.89 429.92 562.37 430.39 562.37 430.98V457.16C562.37 457.74 562.84 458.22 563.43 458.22H575.03C575.61 458.22 576.09 457.75 576.09 457.16V391.67C576.09 391.09 575.62 390.61 575.03 390.61Z" fill="white"/>
<path d="M620.62 391.9C620.12 390.84 619.19 390 618.04 389.74C616.28 389.33 614.54 390.22 613.8 391.78L583.08 456.7C582.75 457.4 583.26 458.21 584.04 458.21H596.55C596.97 458.21 597.35 457.96 597.52 457.57L602.66 445.75H631.82L636.95 457.57C637.12 457.96 637.5 458.21 637.92 458.21H650.33C651.11 458.21 651.62 457.4 651.29 456.7L620.62 391.9ZM625.35 426.86L617.21 435C617.07 435.14 616.88 435.22 616.69 435.22C616.5 435.22 616.3 435.14 616.17 435L608.03 426.86C606.82 425.81 606.06 424.26 606.06 422.53C606.06 419.36 608.63 416.78 611.81 416.78C613.88 416.78 615.69 417.88 616.7 419.53C617.71 417.89 619.52 416.78 621.59 416.78C624.76 416.78 627.34 419.35 627.34 422.53C627.34 424.26 626.57 425.8 625.37 426.86H625.35Z" fill="white"/>
<path d="M658.88 390.61H670.58C671.16 390.61 671.64 391.08 671.64 391.67V457.16C671.64 457.74 671.17 458.22 670.58 458.22H658.88C658.3 458.22 657.82 457.75 657.82 457.16V391.67C657.82 391.09 658.29 390.61 658.88 390.61Z" fill="white"/>
<path d="M736.98 456.62L722.74 432.22C722.4 431.64 722.68 430.9 723.32 430.69C727.78 429.2 731.13 426.96 733.37 423.98C735.82 420.73 737.04 416.5 737.04 411.28C737.04 404.01 734.58 398.58 729.65 395.01C724.72 391.44 716.92 389.65 706.23 389.65C702.56 389.65 698.57 389.78 694.25 390.04C690.26 390.28 686.4 390.68 682.69 391.25C682.17 391.33 681.8 391.78 681.8 392.3V457.17C681.8 457.75 682.27 458.23 682.86 458.23H694.56C695.14 458.23 695.62 457.76 695.62 457.17V433.37C695.62 432.73 696.18 432.24 696.81 432.32C698.92 432.6 701.16 432.77 703.54 432.82C704.86 432.93 706.16 432.97 707.44 432.94C707.83 432.94 708.2 433.13 708.39 433.47L722.07 457.68C722.26 458.01 722.61 458.22 722.99 458.22H736.08C736.9 458.22 737.4 457.33 736.99 456.63L736.98 456.62ZM718.93 420.11C716.13 421.75 711.86 422.57 706.13 422.57C702.58 422.57 699.37 422.36 696.5 421.94C695.98 421.86 695.61 421.42 695.61 420.89V403.1C695.61 402.58 695.99 402.13 696.5 402.05C699.37 401.63 702.58 401.42 706.13 401.42C711.86 401.42 716.13 402.26 718.93 403.93C721.73 405.6 723.13 408.31 723.13 412.04C723.13 415.77 721.73 418.46 718.93 420.1V420.11Z" fill="white"/>
<path d="M719.83 338.76C719.25 338.19 718.52 337.91 717.63 337.91C716.74 337.91 716.01 338.2 715.43 338.76C714.85 339.33 714.56 340.04 714.56 340.89V353.4C714.56 354.64 714.34 355.69 713.9 356.55C713.46 357.41 712.83 358.06 712.01 358.5C711.19 358.94 710.19 359.16 708.99 359.16C707.25 359.16 705.9 358.73 704.92 357.87C703.95 357.01 703.46 355.52 703.46 353.4V340.89C703.46 340.04 703.17 339.34 702.59 338.76C702.01 338.19 701.28 337.91 700.39 337.91C699.5 337.91 698.77 338.2 698.19 338.76C697.61 339.33 697.32 340.04 697.32 340.89V355.15C697.32 356.97 697.69 358.59 698.45 360.01C699.2 361.43 700.25 362.53 701.6 363.33C702.95 364.13 704.52 364.53 706.33 364.53C707.86 364.53 709.23 364.35 710.42 363.99C711.61 363.63 712.65 363.1 713.51 362.4C713.91 362.08 714.27 361.72 714.61 361.32V361.84C714.61 363.5 714.35 364.81 713.82 365.77C713.29 366.73 712.51 367.41 711.47 367.82C710.43 368.23 709.12 368.43 707.56 368.43C706.4 368.43 705.38 368.26 704.49 367.92C703.6 367.58 702.89 367.33 702.34 367.16C701.59 366.9 700.87 366.94 700.19 367.28C699.51 367.62 699.01 368.26 698.71 369.21C698.47 369.93 698.55 370.6 698.94 371.24C699.33 371.88 700.04 372.4 701.06 372.83C701.84 373.16 702.85 373.4 704.08 373.56C705.31 373.72 706.47 373.8 707.56 373.8C710.02 373.8 712.23 373.41 714.21 372.63C716.19 371.85 717.76 370.57 718.94 368.8C720.12 367.02 720.7 364.64 720.7 361.64V340.88C720.7 340.03 720.41 339.33 719.83 338.75V338.76Z" fill="white"/>
<path d="M535.06 345.17C535.06 334.89 543.14 326.76 553.36 326.76C558.93 326.76 563.74 329.16 566.86 332.69C567.42 333.25 567.68 334.07 567.68 334.74C567.68 336.38 566.35 337.71 564.66 337.71C563.89 337.71 563.02 337.25 562.26 336.53C560.11 334.13 557.04 332.54 553.36 332.54C546.61 332.54 541.24 338.11 541.24 345.17C541.24 352.23 546.61 357.75 553.36 357.75C558.68 357.75 563.23 354.27 564.81 348.96H556.07C554.48 348.96 553.26 347.73 553.26 346.2C553.26 344.67 554.49 343.39 556.07 343.39H568.8C570.33 343.39 571.56 344.62 571.56 346.36C571.3 354.8 563.84 363.59 553.36 363.59C542.88 363.59 535.06 355.46 535.06 345.18V345.17Z" fill="white"/>
<path d="M593.32 363.4C593.16 363.4 593 363.4 592.84 363.4C581.16 363.14 576.14 354.6 575.35 346.7C575.19 345.08 576.37 343.64 577.99 343.47C579.61 343.3 581.05 344.49 581.22 346.11C581.56 349.47 583.38 357.3 592.98 357.51C593.1 357.51 593.21 357.51 593.33 357.51C601.86 357.51 605.41 350.6 605.63 346.17C605.71 344.55 607.1 343.28 608.72 343.38C610.35 343.46 611.6 344.85 611.51 346.47C611.09 354.74 604.58 363.4 593.33 363.4H593.32Z" fill="white"/>
<path d="M615.38 340.9C615.38 339.18 616.71 337.84 618.44 337.84C619.83 337.84 621 338.79 621.28 339.95L621.34 340.34C622.56 338.73 624.51 337.78 627.07 337.78C629.91 337.78 632.46 338.95 634.3 341.9C636.02 338.95 639.03 337.78 642.31 337.78C648.2 337.78 652.6 342.01 652.6 348.96V360.52C652.6 362.24 651.27 363.63 649.54 363.63C647.81 363.63 646.48 362.24 646.48 360.52V348.9C646.48 345.23 644.42 343.45 641.75 343.45C639.08 343.45 637.08 345.23 637.08 348.9V360.52C637.08 362.24 635.69 363.63 634.02 363.63C632.35 363.63 630.96 362.24 630.96 360.52V348.9C630.96 345.23 628.85 343.45 626.23 343.45C623.61 343.45 621.5 345.23 621.5 348.9V360.52C621.5 362.24 620.17 363.63 618.44 363.63C616.71 363.63 615.38 362.24 615.38 360.52V340.89V340.9Z" fill="white"/>
<path d="M656.39 340.9C656.39 339.18 657.72 337.84 659.45 337.84C660.84 337.84 662.01 338.79 662.29 339.95L662.35 340.34C663.57 338.73 665.52 337.78 668.08 337.78C670.92 337.78 673.47 338.95 675.31 341.9C677.03 338.95 680.04 337.78 683.32 337.78C689.21 337.78 693.61 342.01 693.61 348.96V360.52C693.61 362.24 692.28 363.63 690.55 363.63C688.82 363.63 687.49 362.24 687.49 360.52V348.9C687.49 345.23 685.43 343.45 682.76 343.45C680.09 343.45 678.09 345.23 678.09 348.9V360.52C678.09 362.24 676.7 363.63 675.03 363.63C673.36 363.63 671.97 362.24 671.97 360.52V348.9C671.97 345.23 669.86 343.45 667.24 343.45C664.62 343.45 662.51 345.23 662.51 348.9V360.52C662.51 362.24 661.18 363.63 659.45 363.63C657.72 363.63 656.39 362.24 656.39 360.52V340.89V340.9Z" fill="white"/>
<path d="M581.11 340.13C581.11 338.32 582.58 336.84 584.4 336.84C586.22 336.84 587.71 338.31 587.71 340.13C587.71 341.95 586.24 343.42 584.4 343.42C582.56 343.42 581.11 341.97 581.11 340.13Z" fill="white"/>
<path d="M599.13 340.13C599.13 338.32 600.6 336.84 602.42 336.84C604.24 336.84 605.73 338.31 605.73 340.13C605.73 341.95 604.26 343.42 602.42 343.42C600.58 343.42 599.13 341.97 599.13 340.13Z" fill="white"/>
<path d="M721.57 335.89C721.57 332.57 724.26 329.86 727.65 329.86C731.04 329.86 733.79 332.57 733.79 335.89C733.79 339.21 731.05 341.89 727.65 341.89C724.25 341.89 721.57 339.26 721.57 335.89ZM732.12 335.89C732.12 333.42 730.15 331.42 727.65 331.42C725.15 331.42 723.24 333.42 723.24 335.89C723.24 338.36 725.19 340.33 727.65 340.33C730.11 340.33 732.12 338.38 732.12 335.89ZM725.21 338.47V333.15C725.21 332.74 725.59 332.38 726.01 332.38H728.18C729.93 332.38 730.84 333.45 730.84 334.71C730.84 335.72 730.18 336.33 729.55 336.49C729.44 336.57 729.28 336.57 729.19 336.6L730.26 338.03C730.34 338.17 730.4 338.36 730.4 338.55C730.4 338.91 730.1 339.29 729.63 339.29C729.38 339.29 729.14 339.15 729.03 338.96L727.47 336.79C727.36 336.57 727.25 336.43 727.25 336.21C727.25 335.77 727.55 335.44 728.05 335.44H728.27C728.76 335.44 729.2 335.25 729.2 334.7C729.2 334.12 728.76 333.93 728.24 333.93H726.87V338.45C726.87 338.92 726.46 339.27 726.05 339.27C725.64 339.27 725.23 338.91 725.23 338.45L725.21 338.47Z" fill="white"/>
<path d="M534.01 474.33H539.35L548.21 495.93L557.03 474.33H563.34L551.73 502.81H545.74L534.01 474.33Z" fill="white"/>
<path d="M567.59 502.81V474.33H572.93V502.81H567.59Z" fill="white"/>
<path d="M589.32 479.87H577.43V474.33H605.63V479.87H594.22V502.81H589.32V479.87Z" fill="white"/>
<path d="M615.17 474.33H621.16L632.77 502.81H626.46L623.63 495.85H611.65L608.78 502.81H603.44L615.17 474.33ZM621.32 490.27L617.64 481.21L613.96 490.27H621.32Z" fill="white"/>
<path d="M637.06 474.33H642.44L655.67 496.74L668.78 474.33H674.61V502.81H669.67V484.04L658.67 502.81H652.97L642.94 485.74V502.81H637.07V474.33H637.06Z" fill="white"/>
<path d="M681.4 502.81V474.33H686.74V502.81H681.4Z" fill="white"/>
<path d="M693.58 474.33H699.12L715.91 494.84V474.33H721.74V502.81H715.63L698.52 481.85V502.81H693.58V474.33Z" fill="white"/>
<path d="M715.23 540.66H540.53C528.435 540.66 518.63 550.465 518.63 562.56C518.63 574.655 528.435 584.46 540.53 584.46H715.23C727.325 584.46 737.13 574.655 737.13 562.56C737.13 550.465 727.325 540.66 715.23 540.66Z" fill="#ED2D8B"/>
<path d="M528.17 614.84C531.17 614.84 532.71 616.63 532.71 619.77V620.39H529.8V619.58C529.8 618.18 529.24 617.65 528.26 617.65C527.28 617.65 526.72 618.18 526.72 619.58C526.72 620.98 527.34 622.07 529.35 623.84C531.93 626.11 532.74 627.73 532.74 629.97C532.74 633.11 531.17 634.9 528.15 634.9C525.13 634.9 523.56 633.11 523.56 629.97V628.77H526.47V630.17C526.47 631.57 527.09 632.07 528.07 632.07C529.05 632.07 529.67 631.57 529.67 630.17C529.67 628.77 529.05 627.68 527.04 625.91C524.46 623.64 523.65 622.02 523.65 619.78C523.65 616.64 525.19 614.85 528.19 614.85L528.17 614.84Z" fill="white"/>
<path d="M537.44 615.07V630.19C537.44 631.59 538.06 632.09 539.04 632.09C540.02 632.09 540.64 631.59 540.64 630.19V615.07H543.55V629.99C543.55 633.13 541.98 634.92 538.96 634.92C535.94 634.92 534.37 633.13 534.37 629.99V615.07H537.45H537.44Z" fill="white"/>
<path d="M554.77 619.91V622.46C554.77 625.6 553.26 627.3 550.18 627.3H548.72V634.66H545.64V615.06H550.18C553.26 615.06 554.77 616.77 554.77 619.9V619.91ZM548.72 617.87V624.51H550.18C551.16 624.51 551.69 624.06 551.69 622.66V619.72C551.69 618.32 551.16 617.87 550.18 617.87H548.72Z" fill="white"/>
<path d="M556.2 615.07H559.28V631.87H564.35V634.67H556.2V615.07Z" fill="white"/>
<path d="M568.77 623.33H573V626.13H568.77V631.87H574.09V634.67H565.69V615.07H574.09V617.87H568.77V623.33Z" fill="white"/>
<path d="M582.49 628.99H582.55L584.62 615.07H588.9V634.67H585.99V620.61H585.93L583.86 634.67H580.95L578.71 620.81H578.65V634.67H575.96V615.07H580.24L582.48 628.99H582.49Z" fill="white"/>
<path d="M594.22 623.33H598.45V626.13H594.22V631.87H599.54V634.67H591.14V615.07H599.54V617.87H594.22V623.33Z" fill="white"/>
<path d="M604.25 620.47H604.19V634.67H601.42V615.07H605.28L608.39 626.8H608.45V615.07H611.19V634.67H608.03L604.25 620.47Z" fill="white"/>
<path d="M612.5 615.07H622.02V617.87H618.8V634.67H615.72V617.87H612.5V615.07Z" fill="white"/>
<path d="M623.12 619.77C623.12 616.63 624.77 614.84 627.8 614.84C630.83 614.84 632.48 616.63 632.48 619.77V629.96C632.48 633.1 630.83 634.89 627.8 634.89C624.77 634.89 623.12 633.1 623.12 629.96V619.77ZM626.2 630.16C626.2 631.56 626.82 632.09 627.8 632.09C628.78 632.09 629.4 631.56 629.4 630.16V619.58C629.4 618.18 628.78 617.65 627.8 617.65C626.82 617.65 626.2 618.18 626.2 619.58V630.16Z" fill="white"/>
<path d="M648.76 634.67H645.65L645.12 631.11H641.34L640.81 634.67H637.98L641.12 615.07H645.63L648.77 634.67H648.76ZM641.74 628.45H644.71L643.25 618.54H643.19L641.73 628.45H641.74Z" fill="white"/>
<path d="M650.19 615.07H653.27V631.87H658.34V634.67H650.19V615.07Z" fill="white"/>
<path d="M659.68 615.07H662.76V634.67H659.68V615.07Z" fill="white"/>
<path d="M671.5 628.99H671.56L673.63 615.07H677.91V634.67H675V620.61H674.94L672.87 634.67H669.96L667.72 620.81H667.66V634.67H664.97V615.07H669.25L671.49 628.99H671.5Z" fill="white"/>
<path d="M683.23 623.33H687.46V626.13H683.23V631.87H688.55V634.67H680.15V615.07H688.55V617.87H683.23V623.33Z" fill="white"/>
<path d="M693.26 620.47H693.2V634.67H690.43V615.07H694.29L697.4 626.8H697.46V615.07H700.2V634.67H697.04L693.26 620.47Z" fill="white"/>
<path d="M701.51 615.07H711.03V617.87H707.81V634.67H704.73V617.87H701.51V615.07Z" fill="white"/>
<path d="M721.28 634.67H718.17L717.64 631.11H713.86L713.33 634.67H710.5L713.64 615.07H718.15L721.29 634.67H721.28ZM714.25 628.45H717.22L715.76 618.54H715.7L714.24 628.45H714.25Z" fill="white"/>
<path d="M729.15 634.67C728.98 634.17 728.87 633.86 728.87 632.26V629.18C728.87 627.36 728.25 626.69 726.85 626.69H725.79V634.67H722.71V615.07H727.36C730.55 615.07 731.92 616.55 731.92 619.58V621.12C731.92 623.14 731.28 624.42 729.9 625.07V625.13C731.44 625.77 731.94 627.23 731.94 629.27V632.29C731.94 633.24 731.97 633.94 732.28 634.67H729.14H729.15ZM725.79 617.87V623.89H726.99C728.14 623.89 728.84 623.39 728.84 621.82V619.89C728.84 618.49 728.36 617.87 727.27 617.87H725.79Z" fill="white"/>
<path d="M537.61 649.33H541.84V652.13H537.61V657.87H542.93V660.67H534.53V641.07H542.93V643.87H537.61V649.33Z" fill="white"/>
<path d="M551.33 654.99H551.39L553.46 641.07H557.74V660.67H554.83V646.61H554.77L552.7 660.67H549.79L547.55 646.81H547.49V660.67H544.8V641.07H549.08L551.32 654.99H551.33Z" fill="white"/>
<path d="M573.44 645.91V648.46C573.44 651.6 571.93 653.3 568.85 653.3H567.39V660.66H564.31V641.06H568.85C571.93 641.06 573.44 642.77 573.44 645.9V645.91ZM567.4 643.87V650.51H568.86C569.84 650.51 570.37 650.06 570.37 648.66V645.72C570.37 644.32 569.84 643.87 568.86 643.87H567.4Z" fill="white"/>
<path d="M584.48 660.67H581.37L580.84 657.11H577.06L576.53 660.67H573.7L576.84 641.07H581.35L584.49 660.67H584.48ZM577.45 654.45H580.42L578.96 644.54H578.9L577.44 654.45H577.45Z" fill="white"/>
<path d="M590.05 640.84C593.05 640.84 594.59 642.63 594.59 645.77V646.39H591.68V645.58C591.68 644.18 591.12 643.65 590.14 643.65C589.16 643.65 588.6 644.18 588.6 645.58C588.6 646.98 589.22 648.07 591.23 649.84C593.81 652.11 594.62 653.73 594.62 655.97C594.62 659.11 593.05 660.9 590.03 660.9C587.01 660.9 585.44 659.11 585.44 655.97V654.77H588.35V656.17C588.35 657.57 588.97 658.07 589.95 658.07C590.93 658.07 591.55 657.57 591.55 656.17C591.55 654.77 590.93 653.68 588.92 651.91C586.34 649.64 585.53 648.02 585.53 645.78C585.53 642.64 587.07 640.85 590.07 640.85L590.05 640.84Z" fill="white"/>
<path d="M595.48 641.07H605V643.87H601.78V660.67H598.7V643.87H595.48V641.07Z" fill="white"/>
<path d="M606.35 641.07H609.43V660.67H606.35V641.07Z" fill="white"/>
<path d="M611.66 641.07H614.74V657.87H619.81V660.67H611.66V641.07Z" fill="white"/>
<path d="M624.24 660.67H621.16V641.07H624.24V649.47H627.74V641.07H630.88V660.67H627.74V652.27H624.24V660.67Z" fill="white"/>
<path d="M643.08 660.67H639.97L639.44 657.11H635.66L635.13 660.67H632.3L635.44 641.07H639.95L643.09 660.67H643.08ZM636.05 654.45H639.02L637.56 644.54H637.5L636.04 654.45H636.05Z" fill="white"/>
<path d="M648.85 641.07H653.72C656.8 641.07 658.31 642.78 658.31 645.91V655.82C658.31 658.96 656.8 660.66 653.72 660.66H648.85V641.06V641.07ZM651.93 643.87V657.87H653.67C654.65 657.87 655.24 657.37 655.24 655.97V645.78C655.24 644.38 654.65 643.88 653.67 643.88H651.93V643.87Z" fill="white"/>
<path d="M663.35 649.33H667.58V652.13H663.35V657.87H668.67V660.67H660.27V641.07H668.67V643.87H663.35V649.33Z" fill="white"/>
<path d="M679.54 649.75H683.85V655.97C683.85 659.11 682.28 660.9 679.26 660.9C676.24 660.9 674.67 659.11 674.67 655.97V645.78C674.67 642.64 676.24 640.85 679.26 640.85C682.28 640.85 683.85 642.64 683.85 645.78V647.68H680.94V645.58C680.94 644.18 680.32 643.65 679.34 643.65C678.36 643.65 677.74 644.18 677.74 645.58V656.16C677.74 657.56 678.36 658.06 679.34 658.06C680.32 658.06 680.94 657.56 680.94 656.16V652.55H679.54V649.75Z" fill="white"/>
<path d="M685.58 645.77C685.58 642.63 687.23 640.84 690.26 640.84C693.29 640.84 694.94 642.63 694.94 645.77V655.96C694.94 659.1 693.29 660.89 690.26 660.89C687.23 660.89 685.58 659.1 685.58 655.96V645.77ZM688.66 656.16C688.66 657.56 689.28 658.09 690.26 658.09C691.24 658.09 691.86 657.56 691.86 656.16V645.58C691.86 644.18 691.24 643.65 690.26 643.65C689.28 643.65 688.66 644.18 688.66 645.58V656.16Z" fill="white"/>
<path d="M703.42 654.99H703.48L705.55 641.07H709.83V660.67H706.92V646.61H706.86L704.79 660.67H701.88L699.64 646.81H699.58V660.67H696.89V641.07H701.17L703.41 654.99H703.42Z" fill="white"/>
<path d="M722.04 660.67H718.93L718.4 657.11H714.62L714.09 660.67H711.26L714.4 641.07H718.91L722.05 660.67H722.04ZM715.01 654.45H717.98L716.52 644.54H716.46L715 654.45H715.01Z" fill="white"/>
<path d="M796.76 705.74V742.6C782.75 743.84 764.73 744.94 741.54 745.71V705.74C741.54 690.49 753.9 678.13 769.15 678.13C784.4 678.13 796.76 690.49 796.76 705.74Z" fill="#ED2D8B"/>
<path d="M758.27 707.05C754.13 701.95 749.42 708.04 753.87 712.17C757.67 715.69 758.25 716.11 758.27 716.13C758.29 716.12 758.87 715.7 762.67 712.17C767.12 708.05 762.41 701.95 758.27 707.05Z" fill="white"/>
</g>
<defs>
<clipPath id="clip0_1_319">
<rect width="753.99" height="871.47" fill="white" transform="translate(672.408 -61) rotate(7.61)"/>
</clipPath>
</defs>
</svg>
